<?xml version="1.0" encoding="UTF-8"?>
<svg width="400px" height="400px" viewBox="0 0 400 400" version="1.1" xmlns="http://www.w3.org/2000/svg" xmlns:xlink="http://www.w3.org/1999/xlink">
    <!-- Generator: Sketch 52.5 (67469) - http://www.bohemiancoding.com/sketch -->
    <title>iconPF_2</title>
    <desc>Created with Sketch.</desc>
    <g id="iconPF_2" stroke="none" stroke-width="1" fill="none" fill-rule="evenodd">
        <g id="Group" transform="translate(31.000000, 61.000000)">
            <path d="M184.84375,142.641509 L153.15625,142.641509 C150.2397,142.641509 147.875,145.007002 147.875,147.924528 L147.875,280 L190.125,280 L190.125,147.924528 C190.125,145.007002 187.7603,142.641509 184.84375,142.641509 Z" id="Path" fill-opacity="0.5" fill="#AFAFAF"></path>
            <path d="M169,142.641509 L153.15625,142.641509 C150.2397,142.641509 147.875,145.007002 147.875,147.924528 L147.875,280 L163.71875,280 L163.71875,147.924528 C163.71875,145.007002 166.08345,142.641509 169,142.641509 Z" id="Path" fill-opacity="0.3" fill="#747371"></path>
            <path d="M285.1875,68.6792453 L269.34375,68.6792453 C266.4272,68.6792453 264.0625,71.0447375 264.0625,73.9622642 L264.0625,95.0943396 C264.0625,98.0118663 266.4272,100.377358 269.34375,100.377358 L285.1875,100.377358 C288.10405,100.377358 290.46875,98.0118663 290.46875,95.0943396 L290.46875,73.9622642 C290.46875,71.0447375 288.10405,68.6792453 285.1875,68.6792453 Z" id="Path" fill="#AFAFAF"></path>
            <path d="M269.34375,58.1132075 L237.65625,58.1132075 C234.7397,58.1132075 232.375,60.4786997 232.375,63.3962264 L232.375,105.660377 C232.375,108.577904 234.7397,110.943396 237.65625,110.943396 L269.34375,110.943396 C272.2603,110.943396 274.625,108.577904 274.625,105.660377 L274.625,63.3962264 C274.625,60.4786997 272.2603,58.1132075 269.34375,58.1132075 Z" id="Path" fill="#FFE24E"></path>
            <path d="M68.65625,68.6792453 L52.8125,68.6792453 C49.8959502,68.6792453 47.53125,71.0447375 47.53125,73.9622642 L47.53125,95.0943396 C47.53125,98.0118663 49.8959502,100.377358 52.8125,100.377358 L68.65625,100.377358 C71.5727998,100.377358 73.9375,98.0118663 73.9375,95.0943396 L73.9375,73.9622642 C73.9375,71.0447375 71.5727998,68.6792453 68.65625,68.6792453 Z" id="Path" fill="#AFAFAF"></path>
            <path d="M100.34375,58.1132075 L68.65625,58.1132075 C65.7397002,58.1132075 63.375,60.4786997 63.375,63.3962264 L63.375,105.660377 C63.375,108.577904 65.7397002,110.943396 68.65625,110.943396 L100.34375,110.943396 C103.2603,110.943396 105.625,108.577904 105.625,105.660377 L105.625,63.3962264 C105.625,60.4786997 103.2603,58.1132075 100.34375,58.1132075 Z" id="Path" fill="#FFE24E"></path>
            <path d="M169,-8.52651283e-14 C122.40741,-8.52651283e-14 84.5,37.9201061 84.5,84.5283019 C84.5,131.136498 122.40741,169.056604 169,169.056604 C215.59259,169.056604 253.5,131.136498 253.5,84.5283019 C253.5,37.9201061 215.59259,-8.52651283e-14 169,-8.52651283e-14 Z" id="Path" fill="#85D2B0"></path>
            <path d="M184.84375,158.490566 C138.25116,158.490566 100.34375,120.57046 100.34375,73.9622642 C100.34375,48.0476117 112.066681,24.8234819 130.48143,9.30461396 C103.203567,23.3402123 84.5,51.7906101 84.5,84.5283019 C84.5,131.136498 122.40741,169.056604 169,169.056604 C189.686615,169.056604 208.658371,161.578346 223.36232,149.185952 C211.807007,155.131928 198.70961,158.490566 184.84375,158.490566 Z" id="Path" fill="#53C091"></path>
            <path d="M169,26.4150943 C136.915375,26.4150943 110.90625,52.4329308 110.90625,84.5283019 C110.90625,116.623673 136.915375,142.641509 169,142.641509 C201.084625,142.641509 227.09375,116.623673 227.09375,84.5283019 L169,84.5283019 L169,26.4150943 Z" id="Path" fill="#9EDFF5"></path>
            <path d="M169,26.4150943 L169,84.5283019 L227.09375,84.5283019 C227.09375,52.4329308 201.084625,26.4150943 169,26.4150943 Z" id="Path" fill="#F9FAFC"></path>
            <path d="M169,147.924528 C134.055557,147.924528 105.625,119.484449 105.625,84.5283019 C105.625,49.5721549 134.055557,21.1320755 169,21.1320755 C203.944443,21.1320755 232.375,49.5721549 232.375,84.5283019 C232.375,119.484449 203.944443,147.924528 169,147.924528 Z M169,31.6981132 C139.878342,31.6981132 116.1875,55.3968899 116.1875,84.5283019 C116.1875,113.659714 139.878342,137.358491 169,137.358491 C198.121658,137.358491 221.8125,113.659714 221.8125,84.5283019 C221.8125,55.3968899 198.121658,31.6981132 169,31.6981132 Z" id="Shape" fill="#CDEDDE" fill-rule="nonzero"></path>
            <path d="M161.078125,81.8867925 C159.726868,81.8867925 158.37561,81.3708726 157.344116,80.339033 L141.500366,64.4899764 C139.437378,62.4262972 139.437378,59.0831368 141.500366,57.0194575 C143.563354,54.9557783 146.905396,54.9557783 148.968384,57.0194575 L164.812134,72.8685142 C166.875122,74.9321934 166.875122,78.2753538 164.812134,80.339033 C163.78064,81.3708726 162.429382,81.8867925 161.078125,81.8867925 Z" id="Path" fill="#747371"></path>
            <path d="M169,73.9622642 C163.177216,73.9622642 158.4375,78.7035675 158.4375,84.5283019 C158.4375,90.3530362 163.177216,95.0943396 169,95.0943396 C174.822784,95.0943396 179.5625,90.3530362 179.5625,84.5283019 C179.5625,78.7035675 174.822784,73.9622642 169,73.9622642 Z" id="Path" fill="#FFE24E"></path>
            <path d="M31.6875,89.8113208 L26.40625,89.8113208 C23.4897002,89.8113208 21.125,87.4458286 21.125,84.5283019 C21.125,81.6107752 23.4897002,79.245283 26.40625,79.245283 L31.6875,79.245283 C34.6040498,79.245283 36.96875,81.6107752 36.96875,84.5283019 C36.96875,87.4458286 34.6040498,89.8113208 31.6875,89.8113208 Z" id="Path" fill="#9EDFF5"></path>
            <path d="M10.5625,89.8113208 L5.28125,89.8113208 C2.36470015,89.8113208 0,87.4458286 0,84.5283019 C0,81.6107752 2.36470015,79.245283 5.28125,79.245283 L10.5625,79.245283 C13.4790498,79.245283 15.84375,81.6107752 15.84375,84.5283019 C15.84375,87.4458286 13.4790498,89.8113208 10.5625,89.8113208 Z" id="Path" fill="#9EDFF5"></path>
            <path d="M39.4211275,71.1324442 C38.0698702,71.1324442 36.7186128,70.6165243 35.6871187,69.5846847 L31.9531099,65.8494253 C29.8901216,63.785746 29.8901216,60.4425857 31.9531099,58.3789064 C34.0160982,56.3152272 37.3581392,56.3152272 39.4211275,58.3789064 L43.1551363,62.1141658 C45.2181246,64.1778451 45.2181246,67.5210055 43.1551363,69.5846847 C42.1262207,70.6165243 40.7749634,71.1324442 39.4211275,71.1324442 Z" id="Path" fill="#9EDFF5"></path>
            <path d="M24.4850923,56.1914064 C23.1312558,56.1914064 21.7799991,55.6754866 20.748505,54.643647 L17.0144962,50.9083875 C14.9540865,48.8447083 14.9540865,45.4989685 17.0144962,43.4352892 C19.0774845,41.3741894 22.422104,41.3741894 24.4850923,43.4352892 L28.2191011,47.1705487 C30.2795108,49.2342279 30.2795108,52.5799677 28.2191011,54.643647 C27.187607,55.6754866 25.8363497,56.1914064 24.4850923,56.1914064 Z" id="Path" fill="#9EDFF5"></path>
            <path d="M35.6871187,112.225457 C34.3358614,112.225457 32.984604,111.709537 31.9531099,110.677697 C29.8901216,108.614018 29.8901216,105.270858 31.9531099,103.207178 L35.6871187,99.4719191 C37.750107,97.4082398 41.092148,97.4082398 43.1551363,99.4719191 C45.2181246,101.535598 45.2181246,104.878759 43.1551363,106.942438 L39.4211275,110.677697 C38.3896333,111.709537 37.038376,112.225457 35.6871187,112.225457 Z" id="Path" fill="#9EDFF5"></path>
            <path d="M20.7510835,127.166495 C19.397247,127.166495 18.0459903,126.650575 17.0144962,125.621315 C14.9540865,123.557635 14.9540865,120.211895 17.0144962,118.148216 L20.748505,114.412957 C22.8114933,112.351857 26.1561128,112.351857 28.2191011,114.412957 C30.2795108,116.476636 30.2795108,119.822376 28.2191011,121.886055 L24.4850923,125.621315 C23.4535982,126.650575 22.1023409,127.166495 20.7510835,127.166495 Z" id="Path" fill="#9EDFF5"></path>
            <path d="M311.59375,89.8113208 L306.3125,89.8113208 C303.39595,89.8113208 301.03125,87.4458286 301.03125,84.5283019 C301.03125,81.6107752 303.39595,79.245283 306.3125,79.245283 L311.59375,79.245283 C314.5103,79.245283 316.875,81.6107752 316.875,84.5283019 C316.875,87.4458286 314.5103,89.8113208 311.59375,89.8113208 Z" id="Path" fill="#9EDFF5"></path>
            <path d="M332.71875,89.8113208 L327.4375,89.8113208 C324.52095,89.8113208 322.15625,87.4458286 322.15625,84.5283019 C322.15625,81.6107752 324.52095,79.245283 327.4375,79.245283 L332.71875,79.245283 C335.6353,79.245283 338,81.6107752 338,84.5283019 C338,87.4458286 335.6353,89.8113208 332.71875,89.8113208 Z" id="Path" fill="#9EDFF5"></path>
            <path d="M298.578873,71.1324442 C297.225037,71.1324442 295.873779,70.6165243 294.844864,69.5846847 C292.781875,67.5210055 292.781875,64.1778451 294.844864,62.1141658 L298.578873,58.3789064 C300.641861,56.3152272 303.983902,56.3152272 306.04689,58.3789064 C308.109878,60.4425857 308.109878,63.785746 306.04689,65.8494253 L302.312881,69.5846847 C301.281387,70.6165243 299.93013,71.1324442 298.578873,71.1324442 Z" id="Path" fill="#9EDFF5"></path>
            <path d="M313.514908,56.1914064 C312.16365,56.1914064 310.812393,55.6754866 309.780899,54.6410675 C307.717911,52.5799677 307.717911,49.2342279 309.780899,47.1705487 L313.514908,43.4352892 C315.577896,41.3741894 318.922516,41.3741894 320.985504,43.4378687 C323.045914,45.4989685 323.045914,48.8447083 320.982925,50.9083875 L317.248916,54.643647 C316.220001,55.6754866 314.866165,56.1914064 313.514908,56.1914064 Z" id="Path" fill="#9EDFF5"></path>
            <path d="M302.312881,112.225457 C300.961624,112.225457 299.610367,111.709537 298.578873,110.677697 L294.844864,106.942438 C292.781875,104.878759 292.781875,101.535598 294.844864,99.4719191 C296.907852,97.4082398 300.249893,97.4082398 302.312881,99.4719191 L306.04689,103.207178 C308.109878,105.270858 308.109878,108.614018 306.04689,110.677697 C305.015396,111.709537 303.664139,112.225457 302.312881,112.225457 Z" id="Path" fill="#9EDFF5"></path>
            <path d="M317.248916,127.166495 C315.897659,127.166495 314.546402,126.653154 313.514908,125.621315 L309.780899,121.886055 C307.717911,119.822376 307.717911,116.476636 309.780899,114.415536 C311.843887,112.351857 315.185928,112.349278 317.248916,114.412957 L320.982925,118.148216 C323.045914,120.211895 323.045914,123.557635 320.985504,125.618735 C319.95401,126.650575 318.602753,127.166495 317.248916,127.166495 Z" id="Path" fill="#9EDFF5"></path>
        </g>
    </g>
</svg>