<?xml version="1.0" encoding="UTF-8"?>
<svg width="400px" height="400px" viewBox="0 0 400 400" version="1.1" xmlns="http://www.w3.org/2000/svg" xmlns:xlink="http://www.w3.org/1999/xlink">
    <!-- Generator: Sketch 52.5 (67469) - http://www.bohemiancoding.com/sketch -->
    <title>iconPF_1</title>
    <desc>Created with Sketch.</desc>
    <g id="iconPF_1" stroke="none" stroke-width="1" fill="none" fill-rule="evenodd">
        <g id="Group" transform="translate(60.000000, 60.000000)">
            <path d="M140,0 C62.679138,0 0,62.679138 0,140 C0,217.320862 62.679138,280 140,280 C217.320862,280 280,220.055237 280,142.734375 C280,65.413513 217.320862,0 140,0 Z" id="Path" fill="#9EDFF5"></path>
            <path d="M157.5,271.25 C80.179138,271.25 17.5,208.570862 17.5,131.25 C17.5,79.8928834 45.1599121,35.0021361 86.3891602,10.6405638 C35.6729127,31.6845703 0,81.6723633 0,140 C0,217.320862 62.679138,280 140,280 C166.711426,280 191.671143,272.843628 212.90741,260.291138 C195.913697,267.357788 177.183228,271.25 157.5,271.25 Z" id="Path" fill="#58C8EE"></path>
            <path d="M205.548096,238.27301 C210.890808,229.992981 215.475159,220.862732 219.252014,211.083069 C230.415954,215.229492 241.261596,220.258178 251.69281,226.141357 C253.48938,223.823548 255.209046,221.443786 256.856079,219.006348 C245.724182,212.666016 234.132995,207.267761 222.193604,202.841492 C228.063965,184.982605 231.366577,165.273743 231.815186,144.812927 L279.972229,144.898376 C279.98291,144.178467 280,143.458557 280,142.734375 C280,140.529785 279.942322,138.33374 279.841919,136.148376 L231.836548,136.062927 C231.464844,115.288086 228.147278,95.2737428 222.193604,77.1585084 C233.479309,72.9736328 244.457397,67.9214479 255.025329,62.0233152 C253.371887,59.5922852 251.650085,57.210388 249.853516,54.8861693 C239.99054,60.3314206 229.762268,65.0161745 219.25415,68.916931 C215.475159,59.1372682 210.890808,50.0070189 205.548096,41.7269896 C188.186951,14.8190306 164.910583,0 140,0 C115.089417,0 91.8130495,14.8190306 74.4519043,41.7269896 C69.1113281,50.0048828 64.5269778,59.1329955 60.7501223,68.9105222 C49.9108887,64.8901367 39.375,60.034485 29.2385866,54.3777467 C27.4398802,56.6998294 25.7095338,59.0774537 24.0582278,61.5106198 C34.899597,67.6245117 46.1895755,72.8475951 57.8106692,77.1520996 C51.8869017,95.1733398 48.5736081,115.076599 48.1719973,135.733948 L0.0747682031,135.648499 C0.0299072266,137.094727 0,138.543091 0,140 C0,141.471863 0.0299072266,142.937317 0.0747682031,144.398499 L48.1762695,144.483948 C48.5971068,165.064392 51.9061277,184.890747 57.8085326,202.845764 C46.1895755,207.150268 34.899597,212.375488 24.0582278,218.487244 C25.7095338,220.922546 27.4398802,223.300171 29.2364505,225.622253 C39.3728639,219.965515 49.9108887,215.109863 60.7501223,211.087341 C64.5269778,220.864868 69.1113281,229.995117 74.4519043,238.27301 C91.8130495,265.180969 115.089417,280 140,280 C164.910583,280 188.186951,265.180969 205.548096,238.27301 Z M213.939209,199.953308 C200.577087,195.556946 186.828308,192.354736 172.838135,190.402221 C174.128418,175.982666 174.859009,160.578308 174.980774,144.710388 L223.065186,144.795837 C222.62085,164.282532 219.489135,183.013001 213.939209,199.953308 Z M223.084411,136.045837 L174.985046,135.960388 C174.880371,119.855346 174.147644,104.220276 172.838135,89.5977786 C186.828308,87.6452637 200.577087,84.4430541 213.939209,80.046692 C219.570312,97.2305299 222.714844,116.257935 223.084411,136.045837 Z M198.19519,46.4715573 C203.170471,54.1812135 207.451477,62.687683 210.993347,71.8051146 C198.306275,75.9643555 185.253906,79.0063477 171.977234,80.8798216 C170.479736,67.062683 168.446045,54.3093873 165.923157,43.1347656 C162.680359,28.7750247 158.869324,17.9699707 154.519958,10.7644655 C170.883484,15.3402709 186.03363,27.6193236 198.19519,46.4715573 Z M113.764954,135.85144 C113.871765,120.133057 114.58313,104.88678 115.849915,90.6402591 C123.850098,91.4584349 131.910095,91.875 140,91.875 C148.096314,91.875 156.156311,91.4584349 164.150085,90.6423952 C165.419006,104.916687 166.130371,120.195007 166.235046,135.945435 L113.764954,135.85144 Z M166.230774,144.695435 C166.111145,160.219421 165.401917,175.27771 164.150085,189.357605 C156.156311,188.541565 148.096314,188.125 140,188.125 C131.910095,188.125 123.850098,188.541565 115.849915,189.359741 C114.595947,175.249939 113.886719,160.159607 113.769226,144.60144 L166.230774,144.695435 Z M140,8.75 C143.41156,8.75 150.916138,16.3977051 157.38678,45.0616458 C159.847717,55.9585573 161.832275,68.4170534 163.293457,81.9351198 C155.583801,82.7233887 147.810059,83.125 140,83.125 C132.19635,83.125 124.422607,82.7233887 116.706543,81.930847 C118.167725,68.4149167 120.152283,55.9585573 122.61322,45.0616458 C129.083862,16.3977051 136.58844,8.75 140,8.75 Z M81.8048098,46.4715573 C93.9663698,27.6214597 109.116516,15.3402709 125.480042,10.7644655 C121.130676,17.9699707 117.319641,28.7750247 114.076843,43.1347656 C111.553955,54.3072512 109.5224,67.0562747 108.022766,80.8691406 C94.7546387,78.9913939 81.697998,75.9600833 69.006653,71.8029785 C72.5506589,62.6855469 76.8295287,54.1790769 81.8048098,46.4715573 Z M66.0629271,80.0424193 C79.4250488,84.4366458 93.182373,87.6281738 107.161865,89.5849609 C105.856628,104.173279 105.123901,119.772034 105.014954,135.836487 L56.9241334,135.751038 C57.3193359,116.065674 60.459595,97.1429441 66.0629271,80.0424193 Z M56.9284056,144.501038 L105.019226,144.586487 C105.136719,160.501404 105.86731,175.954895 107.161865,190.417175 C93.182373,192.371826 79.4250488,195.563354 66.0629271,199.957581 C60.4830931,182.929687 57.3471068,164.094544 56.9284056,144.501038 Z M81.8048098,233.528443 C76.8295287,225.820923 72.5506589,217.314453 69.0087891,208.197021 C81.697998,204.039917 94.7567748,201.008606 108.022766,199.130859 C109.5224,212.943725 111.553955,225.692749 114.076843,236.865234 C117.319641,251.224975 121.130676,262.030029 125.480042,269.235535 C109.116516,264.659729 93.9663698,252.380676 81.8048098,233.528443 Z M140,271.25 C136.58844,271.25 129.083862,263.602295 122.61322,234.938354 C120.152283,224.041443 118.167725,211.585083 116.706543,198.069153 C124.422607,197.276611 132.19635,196.875 140,196.875 C147.810059,196.875 155.583801,197.276611 163.293457,198.06488 C161.832275,211.582947 159.847717,224.041443 157.38678,234.938354 C150.916138,263.602295 143.41156,271.25 140,271.25 Z M154.519958,269.235535 C158.869324,262.030029 162.680359,251.224975 165.923157,236.865234 C168.446045,225.690613 170.479736,212.937317 171.977234,199.120178 C185.253906,200.993652 198.306275,204.035645 210.993347,208.194885 C207.451477,217.312317 203.170471,225.818786 198.19519,233.528443 C186.03363,252.380676 170.883484,264.659729 154.519958,269.235535 Z" id="Shape" fill="#E8F7FC" fill-rule="nonzero"></path>
            <path d="M188.125,39.375 C156.763001,39.375 131.25,64.8880006 131.25,96.25 C131.25,109.257507 140.384521,127.793579 158.399353,151.343384 C171.530762,168.507995 184.440003,181.861572 184.984741,182.421264 C186.678772,184.168701 189.571228,184.168701 191.265259,182.421264 C191.807861,181.861572 204.719238,168.507995 217.84851,151.343384 C235.865479,127.793579 245,109.257507 245,96.25 C245,64.8880006 219.486999,39.375 188.125,39.375 Z" id="Path" fill="#85D2B0"></path>
            <path d="M171.524353,146.968384 C153.509521,123.418579 144.375,104.882507 144.375,91.875 C144.375,69.230957 157.677307,49.6374512 176.877747,40.4943848 C150.884094,45.7281497 131.25,68.7396237 131.25,96.25 C131.25,109.257507 140.384521,127.793579 158.399353,151.343384 C171.530762,168.507995 184.440003,181.861572 184.984741,182.421264 C186.678772,184.168701 189.571228,184.168701 191.265259,182.421264 C191.474609,182.205505 193.525391,180.084229 196.712646,176.582947 C192.969971,172.618103 182.325134,161.086731 171.524353,146.968384 Z" id="Path" fill="#53C091"></path>
            <path d="M188.125,56.875 C166.41449,56.875 148.75,74.5394896 148.75,96.25 C148.75,117.96051 166.41449,135.625 188.125,135.625 C209.83551,135.625 227.5,117.96051 227.5,96.25 C227.5,74.5394896 209.83551,56.875 188.125,56.875 Z" id="Path" fill="#F9FAFC"></path>
            <path d="M196.875,131.25 C175.16449,131.25 157.5,113.58551 157.5,91.875 C157.5,78.2223509 164.48761,66.1761472 175.070495,59.1094973 C159.757995,64.5077513 148.75,79.1131589 148.75,96.25 C148.75,117.96051 166.41449,135.625 188.125,135.625 C196.184997,135.625 203.683167,133.187561 209.929505,129.015503 C205.842896,130.457458 201.450806,131.25 196.875,131.25 Z" id="Path" fill-opacity="0.5" fill="#AFAFAF"></path>
            <path d="M189.736842,93.024335 C188.536433,93.024335 187.563158,92.0593963 187.563158,90.8692699 L187.563158,73.6287493 C187.563158,72.438623 188.536433,71.4736842 189.736842,71.4736842 C190.937251,71.4736842 191.910526,72.438623 191.910526,73.6287493 L191.910526,90.8692699 C191.910526,92.0593963 190.937251,93.024335 189.736842,93.024335 Z" id="Path" fill="#B25B01"></path>
            <path d="M202.674933,85.3774317 C198.580171,83.3475877 193.84328,83.6411733 189.736842,86.1150784 C185.630405,83.6411733 180.893514,83.3475877 176.798751,85.3774317 C171.37197,88.0681061 168,94.3249505 168,101.707732 C168,108.547538 170.362608,114.234048 174.652662,117.720244 C178.607324,120.934953 183.950257,122.120871 189.736842,121.079115 C191.104947,121.325348 192.447579,121.447413 193.754125,121.447413 C197.972006,121.447413 201.801426,120.175209 204.821022,117.720244 C209.111076,114.234048 211.473684,108.547538 211.473684,101.707732 C211.473684,94.3249505 208.101714,88.0681061 202.674933,85.3774317 Z" id="Path" fill="#E55B6B"></path>
            <path d="M181.173715,118.089594 C176.88366,114.603397 174.521053,108.915836 174.521053,102.077082 C174.521053,94.6943001 177.893023,88.4364035 183.319804,85.7457291 C184.347209,85.2364266 185.416008,84.8733908 186.503911,84.654517 C183.263551,83.6432777 179.85231,83.863204 176.798751,85.3774317 C171.37197,88.0681061 168,94.3249505 168,101.707732 C168,108.547538 170.362608,114.234048 174.652662,117.720244 C178.183838,120.591911 182.824144,121.83886 187.896428,121.331662 C185.395842,120.756066 183.117082,119.669063 181.173715,118.089594 Z" id="Path" fill="#DB132B"></path>
            <path d="M207.257926,75.78171 C205.707265,73.1247081 202.822463,71.4736842 199.730695,71.4736842 C196.638926,71.4736842 193.754125,73.1247081 192.202403,75.78171 C191.81288,76.4499062 191.81288,77.2727876 192.202403,77.9409839 C193.754125,80.5979857 196.638926,82.2490096 199.730695,82.2490096 C202.822463,82.2490096 205.707265,80.5979857 207.257926,77.9409839 C207.648509,77.2727876 207.648509,76.4499062 207.257926,75.78171 Z" id="Path" fill="#6CC04A"></path>
            <path d="M78.75,96.25 C47.3880006,96.25 21.875,121.763001 21.875,153.125 C21.875,166.132507 31.0095215,184.668579 49.0243529,208.218384 C62.1557617,225.382995 75.0650026,238.736572 75.6097409,239.296264 C77.3037721,241.043701 80.1962279,241.043701 81.8902591,239.296264 C82.4328613,238.736572 95.3442383,225.382995 108.47351,208.218384 C126.490479,184.668579 135.625,166.132507 135.625,153.125 C135.625,121.763001 110.111999,96.25 78.75,96.25 Z" id="Path" fill="#85D2B0"></path>
            <path d="M62.1493529,203.86261 C44.1345215,180.312805 35,161.776733 35,148.769226 C35,126.099548 48.3343503,106.486816 67.5711061,97.3565677 C41.5454102,102.564697 21.875,125.58899 21.875,153.125 C21.875,166.132507 31.0095215,184.668579 49.0243529,208.218384 C62.1557617,225.382995 75.0650026,238.736572 75.6097409,239.296264 C77.3037721,241.043701 80.1962279,241.043701 81.8902591,239.296264 C82.0996094,239.080505 84.1461184,236.963501 87.3291016,233.466492 C83.5778809,229.49524 72.9415892,217.968139 62.1493529,203.86261 Z" id="Path" fill="#53C091"></path>
            <path d="M78.75,113.75 C57.0394896,113.75 39.375,131.41449 39.375,153.125 C39.375,174.83551 57.0394896,192.5 78.75,192.5 C100.46051,192.5 118.125,174.83551 118.125,153.125 C118.125,131.41449 100.46051,113.75 78.75,113.75 Z" id="Path" fill="#F9FAFC"></path>
            <path d="M87.5,188.125 C65.7894896,188.125 48.125,170.46051 48.125,148.75 C48.125,135.097351 55.11261,123.051147 65.6954955,115.984497 C50.3829955,121.382751 39.375,135.988159 39.375,153.125 C39.375,174.83551 57.0394896,192.5 78.75,192.5 C86.8099974,192.5 94.3081666,190.062561 100.554505,185.890503 C96.4678958,187.332458 92.0758059,188.125 87.5,188.125 Z" id="Path" fill-opacity="0.5" fill="#AFAFAF"></path>
            <path d="M78.75,140 C77.6306152,140 76.5112305,139.572754 75.6567383,138.718262 L71.2817383,134.343262 C69.5727539,132.634277 69.5727539,129.865723 71.2817383,128.156738 C72.9907227,126.447754 75.7592773,126.447754 77.4682617,128.156738 L81.8432617,132.531738 C83.5522461,134.240723 83.5522461,137.009277 81.8432617,138.718262 C80.9887695,139.572754 79.8693848,140 78.75,140 Z" id="Path" fill="#98D37F"></path>
            <path d="M78.75,148.741455 C78.7457278,148.741455 78.739319,148.741455 78.7350462,148.741455 C76.3253783,148.735046 74.375,146.784668 74.375,144.375 C74.375,138.323059 77.1179199,126.875 87.5,126.875 C89.9160768,126.875 91.875,128.833923 91.875,131.25 C91.875,133.666077 89.9160768,135.625 87.5,135.625 C83.36853,135.625 83.125,144.302368 83.125,144.389954 C83.1100462,146.795349 81.1532591,148.741455 78.75,148.741455 Z" id="Path" fill="#B25B01"></path>
            <path d="M78.75,140 C69.1006471,140 61.25,147.850647 61.25,157.5 C61.25,167.149353 69.1006471,175 78.75,175 C88.3993529,175 96.25,167.149353 96.25,157.5 C96.25,147.850647 88.3993529,140 78.75,140 Z" id="Path" fill="#FFA84E"></path>
            <path d="M87.5,170.625 C77.8506471,170.625 70,162.774353 70,153.125 C70,148.055725 72.1704102,143.484192 75.6268308,140.284119 C67.4621582,141.76239 61.25,148.916626 61.25,157.5 C61.25,167.149353 69.1006471,175 78.75,175 C83.3300781,175 87.5021361,173.229065 90.6231692,170.340881 C89.6084596,170.524597 88.5659791,170.625 87.5,170.625 Z" id="Path" fill="#FF8300"></path>
        </g>
    </g>
</svg>