<?xml version="1.0" encoding="UTF-8"?>
<svg width="400px" height="400px" viewBox="0 0 400 400" version="1.1" xmlns="http://www.w3.org/2000/svg" xmlns:xlink="http://www.w3.org/1999/xlink">
    <!-- Generator: Sketch 52.5 (67469) - http://www.bohemiancoding.com/sketch -->
    <title>iconPF_4</title>
    <desc>Created with Sketch.</desc>
    <g id="iconPF_4" stroke="none" stroke-width="1" fill="none" fill-rule="evenodd">
        <g id="Group" transform="translate(90.000000, 62.000000)">
            <path d="M197.70756,182.637532 C197.217588,182.637532 196.724646,182.581146 196.228734,182.456504 L171.902333,176.378719 C168.644757,175.565577 166.66408,172.265529 167.477731,169.007029 C168.291383,165.751497 171.596471,163.772061 174.854047,164.585202 L193.71651,169.29786 L198.016391,156.403339 C199.079484,153.221999 202.52414,151.500751 205.710447,152.560208 C208.896754,153.622634 210.619083,157.06513 209.555991,160.249438 L203.47439,178.482796 C202.631044,181.011249 200.267297,182.637532 197.70756,182.637532 Z" id="Path" fill="#747371"></path>
            <path d="M191.62596,225.182032 C190.046169,225.182032 188.490135,224.567725 187.323109,223.401431 L175.159909,211.245859 C172.784284,208.871724 172.784284,205.025626 175.159909,202.651491 C177.535534,200.277355 181.384046,200.277355 183.759672,202.651491 L192.822681,211.708816 L201.0661,207.589691 C204.071266,206.088051 207.72379,207.307763 209.226373,210.308076 C210.728955,213.311357 209.511448,216.96159 206.506282,218.46323 L194.343081,224.541016 C193.478947,224.971328 192.549484,225.182032 191.62596,225.182032 Z" id="Path" fill="#747371"></path>
            <path d="M185.54139,279.882104 C182.18285,279.882104 179.45979,277.160752 179.45979,273.804318 L179.45979,258.823526 L163.923202,248.472297 C161.128873,246.611569 160.371642,242.836694 162.236508,240.044118 C164.098405,237.251542 167.875648,236.497753 170.669977,238.358482 L188.914778,250.514053 C190.60741,251.6388 191.622991,253.538108 191.622991,255.570961 L191.622991,273.804318 C191.622991,277.160752 188.899931,279.882104 185.54139,279.882104 Z" id="Path" fill="#747371"></path>
            <path d="M51.7432157,182.637532 C49.1834793,182.637532 46.8197323,181.011249 45.9763854,178.482796 L39.8947852,160.249438 C38.8346627,157.06513 40.5540215,153.622634 43.7432978,152.560208 C46.9266354,151.500751 50.3712918,153.219031 51.4343844,156.403339 L55.7342659,169.29786 L74.5967291,164.585202 C77.8572742,163.769093 81.1593931,165.751497 81.973045,169.007029 C82.7866962,172.265529 80.8060186,175.565577 77.5484429,176.378719 L53.2220419,182.456504 C52.72613,182.581146 52.2302189,182.637532 51.7432157,182.637532 Z" id="Path" fill="#747371"></path>
            <path d="M57.8248159,225.182032 C56.9042608,225.182032 55.9718284,224.971328 55.1076946,224.541016 L42.9444941,218.46323 C39.9422977,216.96159 38.7218209,213.311357 40.2244033,210.308076 C41.7269858,207.307763 45.3824791,206.088051 48.3846755,207.589691 L56.6280946,211.708816 L65.6911044,202.651491 C68.0667294,200.277355 71.9152421,200.277355 74.2908672,202.651491 C76.6664923,205.025626 76.6664923,208.871724 74.2908672,211.245859 L62.1276667,223.401431 C60.9606411,224.567725 59.4046066,225.182032 57.8248159,225.182032 Z" id="Path" fill="#747371"></path>
            <path d="M63.9093855,279.882104 C60.5508454,279.882104 57.8277853,277.160752 57.8277853,273.804318 L57.8277853,255.570961 C57.8277853,253.538108 58.8433654,251.641768 60.5359979,250.514053 L78.7807986,238.358482 C81.5751274,236.497753 85.3523713,237.251542 87.2142677,240.044118 C89.0791334,242.836694 88.3219027,246.611569 85.5275739,248.472297 L69.9909858,258.823526 L69.9909858,273.804318 C69.9909858,277.160752 67.2679257,279.882104 63.9093855,279.882104 Z" id="Path" fill="#747371"></path>
            <path d="M149.04585,134.015246 C147.887733,134.015246 146.714768,133.685834 145.678401,132.994368 C142.884072,131.133639 142.129811,127.358764 143.991707,124.566188 L156.154908,106.332831 C158.019774,103.540255 161.794048,102.786467 164.588377,104.647195 C167.382706,106.507924 168.139937,110.282798 166.275071,113.075375 L154.11187,131.308732 C152.938905,133.065592 151.01168,134.015246 149.04585,134.015246 Z" id="Path" fill="#FFA84E"></path>
            <path d="M100.404926,134.015246 C98.4390963,134.015246 96.5118706,133.065592 95.3389055,131.308732 L83.175705,113.075375 C81.3108393,110.282798 82.06807,106.507924 84.8623989,104.647195 C87.6567277,102.786467 91.4310022,103.540255 93.2958679,106.332831 L105.459068,124.566188 C107.320965,127.358764 106.566703,131.133639 103.772375,132.994368 C102.736008,133.685834 101.563043,134.015246 100.404926,134.015246 Z" id="Path" fill="#FFA84E"></path>
            <path d="M124.725388,115.781889 C101.251243,115.781889 82.1541863,134.866967 82.1541863,158.326389 C82.1541863,181.785811 101.251243,200.870889 124.725388,200.870889 C148.199533,200.870889 167.29659,181.785811 167.29659,158.326389 C167.29659,134.866967 148.199533,115.781889 124.725388,115.781889 Z" id="Path" fill="#FEEE99"></path>
            <path d="M100.398987,158.326389 C100.398987,137.997858 114.744793,120.96047 133.847788,116.776058 C130.907952,116.132074 127.855274,115.781889 124.725388,115.781889 C101.251243,115.781889 82.1541863,134.866967 82.1541863,158.326389 C82.1541863,181.785811 101.251243,200.870889 124.725388,200.870889 C127.855274,200.870889 130.907952,200.520704 133.847788,199.87672 C114.744793,195.692307 100.398987,178.65492 100.398987,158.326389 Z" id="Path" fill="#FFE24E"></path>
            <path d="M170.043406,154.272553 C168.888258,152.984585 167.240168,152.248603 165.511901,152.248603 L83.9388744,152.248603 C82.2106075,152.248603 80.5625174,152.984585 79.4073699,154.272553 C69.4148971,165.430988 63.9093855,179.818246 63.9093855,194.793103 C63.9093855,216.519407 69.9672295,234.972372 81.4325899,248.160692 C92.3990691,260.77922 107.772334,267.726533 124.725388,267.726533 C141.678442,267.726533 157.051707,260.77922 168.018186,248.160692 C179.483546,234.972372 185.54139,216.519407 185.54139,194.793103 C185.54139,179.818246 180.035879,165.430988 170.043406,154.272553 Z" id="Path" fill="#E55B6B"></path>
            <path d="M99.6773907,248.160692 C88.2120302,234.972372 82.1541863,216.519407 82.1541863,194.793103 C82.1541863,179.818246 87.6596978,165.430988 97.6521706,154.272553 C98.8073182,152.984585 100.455408,152.248603 102.183675,152.248603 L83.9388744,152.248603 C82.2106075,152.248603 80.5625174,152.984585 79.4073699,154.272553 C69.4148971,165.430988 63.9093855,179.818246 63.9093855,194.793103 C63.9093855,216.519407 69.9672295,234.972372 81.4325899,248.160692 C92.3990691,260.77922 107.772334,267.726533 124.725388,267.726533 C127.825579,267.726533 130.872318,267.489119 133.847788,267.032098 C120.544288,264.990342 108.636467,258.470373 99.6773907,248.160692 Z" id="Path" fill="#DB132B"></path>
            <path d="M124.725388,267.726533 C126.777334,267.726533 128.805524,267.619696 130.806988,267.417895 L130.806988,152.248603 L118.643788,152.248603 L118.643788,267.417895 C120.645251,267.619696 122.673442,267.726533 124.725388,267.726533 Z" id="Path" fill="#DB132B"></path>
            <path d="M107.736567,-1.70530257e-13 L16.3237707,-1.70530257e-13 C7.3219492,-1.70530257e-13 2.84217094e-14,7.3395295 2.84217094e-14,16.3594035 L2.84217094e-14,68.7104539 C2.84217094e-14,77.7303283 7.3219492,85.0698578 16.3237707,85.0698578 L46.9535519,85.0698578 L59.1095174,109.434859 C60.2889345,111.80044 63.7698088,111.80044 64.949226,109.434859 L77.1067852,85.0698578 L107.736567,85.0698578 C116.736794,85.0698578 124.060337,77.7303283 124.060337,68.7104539 L124.060337,16.3594035 C124.060337,7.3395295 116.736794,-1.70530257e-13 107.736567,-1.70530257e-13 Z" id="Path" fill="#85D2B0"></path>
            <path d="M56.7474958,78.5609171 L26.1177141,78.5609171 C17.1158926,78.5609171 9.79394343,71.2213876 9.79394343,62.2015136 L9.79394343,9.85046317 C9.79394343,6.32525276 10.9159835,3.05880289 12.8173955,0.384945836 C5.49544627,1.99660736 1.63424829e-13,8.54548057 1.63424829e-13,16.3594035 L1.63424829e-13,68.7104539 C1.63424829e-13,77.7303283 7.3219492,85.0698578 16.3237707,85.0698578 L46.9535519,85.0698578 L59.1095174,109.436456 C60.2889345,111.80044 63.7698088,111.80044 64.949226,109.436456 L68.5512296,102.218321 L56.7474958,78.5609171 Z" id="Path" fill="#53C091"></path>
            <path d="M101.20674,65.4376149 L22.8520038,65.4376149 C21.0494081,65.4376149 19.5878873,63.9729037 19.5878873,62.1663731 L19.5878873,19.6322429 C19.5878873,17.8241151 21.0494081,16.3594035 22.8520038,16.3594035 C24.6561933,16.3594035 26.1177141,17.8241151 26.1177141,19.6322429 L26.1177141,58.893534 L101.20674,58.893534 C103.009335,58.893534 104.470856,60.3598424 104.470856,62.1663731 C104.470856,63.9729037 103.009335,65.4376149 101.20674,65.4376149 Z" id="Path" fill="#636FB7"></path>
            <path d="M94.6734878,52.3510504 C94.0519033,52.3510504 93.4223494,52.1721543 92.8661109,51.7999868 L84.8827317,46.4666486 L76.899353,51.7999868 C76.1199815,52.3207018 75.1557284,52.4804305 74.2504461,52.2408373 C73.3451637,51.9996475 72.5881054,51.3799005 72.168934,50.541325 L64.7370123,35.6450355 L58.1131511,44.4971946 C57.3242166,45.5514038 55.983825,46.028992 54.7087795,45.7095348 L41.6491254,42.4366958 C40.7247174,42.2050894 39.9469396,41.5805504 39.521393,40.7260023 L32.9915662,27.6378406 C32.1850997,26.0213871 32.8385607,24.0567251 34.4514933,23.2484986 C36.0644259,22.4402716 38.0248082,23.0951591 38.8312748,24.7116126 L44.690109,36.4532624 L54.1891982,38.8332184 L62.6825952,27.4845012 C63.3615572,26.5772427 64.4549085,26.0868758 65.5881054,26.1891021 C66.7149269,26.2897312 67.7078684,26.9701748 68.2146992,27.9844516 L76.3542712,44.3007287 L83.0721671,39.8123547 C84.1687062,39.0792003 85.5967572,39.0792003 86.6932964,39.8123547 L96.4872402,46.3564359 C97.9886062,47.357934 98.3934333,49.3896818 97.3941163,50.8927283 C96.7645624,51.8383217 95.7285882,52.3510504 94.6734878,52.3510504 Z" id="Path" fill="#F9FAFC"></path>
        </g>
    </g>
</svg>