<?xml version="1.0" encoding="UTF-8"?>
<svg width="400px" height="400px" viewBox="0 0 400 400" version="1.1" xmlns="http://www.w3.org/2000/svg" xmlns:xlink="http://www.w3.org/1999/xlink">
    <!-- Generator: Sketch 52.5 (67469) - http://www.bohemiancoding.com/sketch -->
    <title>iconPF_3</title>
    <desc>Created with Sketch.</desc>
    <g id="iconPF_3" stroke="none" stroke-width="1" fill="none" fill-rule="evenodd">
        <g id="Group" transform="translate(5.000000, 60.000000)">
            <path d="M6.09375,274.673913 C91.40625,274.673913 91.40625,6.84782609 195,6.84782609 C298.59375,6.84782609 298.59375,274.673913 383.90625,274.673913" id="Path" fill="#EAEAF4"></path>
            <path d="M195,6.08695652 C145.970306,6.08695652 120.146256,66.0797383 97.5,129.279467 L97.5,273.913043 L292.5,273.913043 L292.5,129.279467 C269.853744,66.0797383 244.029694,6.08695652 195,6.08695652 Z" id="Path" fill="#A5ADD4"></path>
            <path d="M383.90625,280 C338.997574,280 317.13089,217.703804 293.978805,151.748896 C269.895401,83.1309439 244.987793,12.173913 195,12.173913 C145.012207,12.173913 120.104599,83.1309439 96.0211946,151.748896 C72.8691097,217.703804 51.002426,280 6.09375,280 C2.72850018,280 0,277.274542 0,273.913043 C0,270.551545 2.72850018,267.826087 6.09375,267.826087 C42.3587036,267.826087 62.8388216,209.485819 84.518051,147.721638 C96.8602751,112.561141 109.622039,76.2028704 126.263809,48.5143514 C145.881042,15.8682916 168.366623,0 195,0 C221.633377,0 244.118958,15.8682916 263.736191,48.5143514 C280.377961,76.2028704 293.139725,112.561141 305.481949,147.721638 C327.161178,209.485819 347.641296,267.826087 383.90625,267.826087 C387.2715,267.826087 390,270.551545 390,273.913043 C390,277.274542 387.2715,280 383.90625,280 Z" id="Path" fill="#636FB7"></path>
            <path d="M195,146.086957 C191.63475,146.086957 188.90625,143.361498 188.90625,140 L188.90625,91.3043478 C188.90625,87.9428497 191.63475,85.2173913 195,85.2173913 C198.36525,85.2173913 201.09375,87.9428497 201.09375,91.3043478 L201.09375,140 C201.09375,143.361498 198.36525,146.086957 195,146.086957 Z" id="Path" fill="#B25B01"></path>
            <path d="M231.270905,124.488366 C219.791565,118.755095 206.51207,119.584324 195,126.571841 C183.48793,119.584324 170.208435,118.755095 158.729095,124.488366 C143.515549,132.088145 134.0625,149.76053 134.0625,170.613111 C134.0625,189.932065 140.685882,205.993546 152.712708,215.840268 C163.799286,224.920177 178.777771,228.269786 195,225.327361 C198.835373,226.022843 202.599334,226.367612 206.262131,226.367612 C218.086624,226.367612 228.822098,222.774286 237.287292,215.840268 C249.314118,205.993546 255.9375,189.932065 255.9375,170.613111 C255.9375,149.76053 246.484451,132.088145 231.270905,124.488366 Z" id="Path" fill="#E55B6B"></path>
            <path d="M170.993958,216.883492 C158.967132,207.03677 152.34375,190.972317 152.34375,171.656335 C152.34375,150.803754 161.796799,133.128397 177.010345,125.528618 C179.890594,124.090099 182.886886,123.064708 185.936737,122.446502 C176.852646,119.590268 167.289505,120.211447 158.729095,124.488366 C143.515549,132.088145 134.0625,149.76053 134.0625,170.613111 C134.0625,189.932065 140.685882,205.993546 152.712708,215.840268 C162.612076,223.951257 175.620804,227.473251 189.840545,226.040676 C182.830353,224.414911 176.442032,221.344684 170.993958,216.883492 Z" id="Path" fill="#DB132B"></path>
            <path d="M244.118958,97.3853604 C239.771805,89.8806893 231.684494,85.2173913 223.016968,85.2173913 C214.349442,85.2173913 206.262131,89.8806893 201.912003,97.3853604 C200.820007,99.272673 200.820007,101.596892 201.912003,103.484205 C206.262131,110.988876 214.349442,115.652174 223.016968,115.652174 C231.684494,115.652174 239.771805,110.988876 244.118958,103.484205 C245.213928,101.596892 245.213928,99.272673 244.118958,97.3853604 Z" id="Path" fill="#6CC04A"></path>
            <path d="M201.09375,170.434783 L188.90625,170.434783 L188.90625,164.347826 L207.1875,164.347826 C210.55275,164.347826 213.28125,161.622368 213.28125,158.26087 C213.28125,154.899371 210.55275,152.173913 207.1875,152.173913 L201.09375,152.173913 L201.09375,146.086957 C201.09375,142.725458 198.36525,140 195,140 C191.63475,140 188.90625,142.725458 188.90625,146.086957 L188.90625,152.173913 C182.187653,152.173913 176.71875,157.636719 176.71875,164.347826 L176.71875,170.434783 C176.71875,177.14589 182.187653,182.608696 188.90625,182.608696 L201.09375,182.608696 L201.09375,188.695652 L182.8125,188.695652 C179.44725,188.695652 176.71875,191.421111 176.71875,194.782609 C176.71875,198.144107 179.44725,200.869565 182.8125,200.869565 L188.90625,200.869565 L188.90625,206.956522 C188.90625,210.31802 191.63475,213.043478 195,213.043478 C198.36525,213.043478 201.09375,210.31802 201.09375,206.956522 L201.09375,200.869565 C207.812347,200.869565 213.28125,195.406759 213.28125,188.695652 L213.28125,182.608696 C213.28125,175.897589 207.812347,170.434783 201.09375,170.434783 Z" id="Path" fill="#F9FAFC"></path>
        </g>
    </g>
</svg>