<?xml version="1.0" encoding="UTF-8"?>
<svg width="1030px" height="500px" viewBox="0 0 1030 500" version="1.1" xmlns="http://www.w3.org/2000/svg" xmlns:xlink="http://www.w3.org/1999/xlink">
    <!-- Generator: Sketch 52.5 (67469) - http://www.bohemiancoding.com/sketch -->
    <title>GRO_Dark</title>
    <desc>Created with Sketch.</desc>
    <g id="GRO_Dark" stroke="none" stroke-width="1" fill="none" fill-rule="evenodd">
        <g id="Group-2" transform="translate(10.000000, 10.000000)" fill="#161614" fill-rule="nonzero">
            <path d="M601.893072,156.805063 L636.087048,182.627848 L615.187349,209.164557 C629.62244,225.478481 634.961446,244.101266 634.961446,264.562025 C634.961446,287.711392 626.215211,320.339241 595.413253,334.435443 C626.580271,349.989873 634.170482,372.410127 634.170482,396.288608 C634.170482,447.934177 594.622289,479.832911 540.304367,479.832911 C485.986446,479.832911 445.29744,446.825316 445.29744,396.288608 L491.310241,396.288608 C491.310241,420.592405 513.731024,436.511392 540.334789,436.511392 C566.938554,436.511392 587.838253,422.096203 587.838253,396.288608 C587.838253,370.481013 563.500904,358.724051 540.334789,358.724051 C481.818675,358.724051 445.327861,323.058228 445.327861,264.546835 C445.327861,206.035443 487.918223,169.670886 540.334789,169.670886 C555.150151,169.670886 570.360994,171.56962 583.275,180.303797 L601.893072,156.805063 Z M491.310241,264.653165 C491.310241,297.281013 513.350753,316.648101 540.334789,316.648101 C566.938554,316.648101 589.009488,296.901266 589.009488,264.653165 C589.009488,232.405063 566.968976,211.898734 540.334789,211.898734 C513.350753,211.822785 491.310241,231.934177 491.310241,264.577215 L491.310241,264.653165 Z" id="Shape"></path>
            <path d="M707.53238,175.777215 L710.954819,197.468354 C725.38991,174.318987 744.768524,170.901266 763.782078,170.901266 C783.160693,170.901266 801.809187,178.496203 812.046084,188.734177 L791.146386,228.956962 C781.639608,220.982278 772.893373,216.805063 757.68253,216.805063 C733.345181,216.805063 710.939608,229.701266 710.939608,264.243038 L710.939608,362.977215 L664.592169,362.977215 L664.592169,175.777215 L707.53238,175.777215 Z" id="Shape"></path>
            <path d="M1010,269.513924 C1010,323.407595 973.144127,367.032911 912.331175,367.032911 C851.518223,367.032911 814.981777,323.392405 814.981777,269.513924 C814.981777,216 852.217922,171.979747 911.89006,171.979747 C971.562199,171.979747 1010,216 1010,269.513924 Z M861.420482,269.513924 C861.420482,297.979747 878.51747,324.531646 912.346386,324.531646 C946.175301,324.531646 963.272289,297.964557 963.272289,269.513924 C963.272289,241.427848 943.498193,214.116456 912.346386,214.116456 C878.897741,214.177215 861.420482,241.427848 861.420482,269.513924 Z" id="Shape"></path>
            <g id="Group">
                <path d="M326.226958,208.572152 C313.237997,208.588889 302.712543,219.099833 302.695783,232.070886 L302.695783,302.278481 L144.609488,302.278481 C90.7600167,302.219879 47.1210318,258.641056 47.0623494,204.865823 L47.0623494,47.0126582 L205.148645,47.0126582 C258.992185,47.0712435 302.62872,90.6408254 302.695783,144.410127 C302.695783,157.392314 313.234454,167.916456 326.234563,167.916456 C339.234673,167.916456 349.773343,157.392314 349.773343,144.410127 C349.681124,64.6868638 284.981976,0.0837073851 205.148645,0 L23.5311747,0 C10.5422143,0.0167368642 0.0167599698,10.5276806 0,23.4987342 L0,204.865823 C0.0922037262,284.583163 64.7820963,349.183873 144.609488,349.275949 L326.226958,349.275949 C339.215918,349.259213 349.741373,338.748269 349.758133,325.777215 L349.758133,232.070886 C349.741373,219.099833 339.215918,208.588889 326.226958,208.572152 Z" id="Shape"></path>
                <path d="M349.773343,232.070886 C349.773343,219.113924 339.810241,208.572152 327.565512,208.572152 L150.267922,208.572152 C138.023193,208.572152 128.06009,219.113924 128.06009,232.070886 C128.06009,245.027848 138.023193,255.56962 150.267922,255.56962 L349.773343,255.56962 L349.773343,234.531646 L349.651657,234.531646 C349.727711,233.726582 349.773343,232.906329 349.773343,232.070886 Z" id="Shape"></path>
                <path d="M130.448193,120.182278 C158.767009,120.182278 181.723946,143.107566 181.723946,171.387342 L181.723946,196.982278 C153.42294,196.98229 130.473379,174.084763 130.448193,145.822785 L130.448193,120.182278 Z" id="Shape"></path>
                <path d="M242.476054,120.136709 L242.476054,145.777215 C242.476054,159.357642 237.073803,172.381851 227.457734,181.984663 C217.841665,191.587475 204.799476,196.982278 191.200301,196.982278 L191.200301,171.341772 C191.200301,143.061997 214.157238,120.136709 242.476054,120.136709 Z" id="Shape" transform="translate(216.838178, 158.559494) rotate(180.000000) translate(-216.838178, -158.559494) "></path>
            </g>
        </g>
    </g>
</svg>