<?xml version="1.0" encoding="UTF-8"?>
<svg width="3100px" height="800px" viewBox="0 0 3100 800" version="1.1" xmlns="http://www.w3.org/2000/svg" xmlns:xlink="http://www.w3.org/1999/xlink">
    <!-- Generator: Sketch 52.5 (67469) - http://www.bohemiancoding.com/sketch -->
    <title>Tanibox_GreenFull</title>
    <desc>Created with Sketch.</desc>
    <g id="Tanibox_GreenFull" stroke="none" stroke-width="1" fill="none" fill-rule="evenodd">
        <path d="M1188.02329,165.609756 L1188.02329,265.772358 L1071.01523,265.772358 L1071.01523,620.894309 L967.008062,620.894309 L967.008062,265.772358 L850,265.772358 L850,165.609756 L1188.02329,165.609756 Z M1375.23619,295.691057 L1472.74291,295.691057 L1472.74291,620.894309 L1375.23619,620.894309 L1375.23619,590.325203 C1353.78471,615.04065 1321.93252,630 1278.37952,630 C1193.22365,630 1123.01881,555.203252 1123.01881,458.292683 C1123.01881,361.382114 1193.22365,286.585366 1278.37952,286.585366 C1321.93252,286.585366 1353.78471,301.544715 1375.23619,326.260163 L1375.23619,295.691057 Z M1297.88086,537.642276 C1342.73395,537.642276 1375.23619,507.073171 1375.23619,458.292683 C1375.23619,409.512195 1342.73395,378.943089 1297.88086,378.943089 C1253.02777,378.943089 1220.52553,409.512195 1220.52553,458.292683 C1220.52553,507.073171 1253.02777,537.642276 1297.88086,537.642276 Z M1702.20872,286.585366 C1767.86324,286.585366 1823.76709,333.414634 1823.76709,421.219512 L1823.76709,620.894309 L1726.26038,620.894309 L1726.26038,435.528455 C1726.26038,395.203252 1700.90863,376.341463 1669.70648,376.341463 C1633.95402,376.341463 1609.25231,397.154472 1609.25231,443.333333 L1609.25231,620.894309 L1511.7456,620.894309 L1511.7456,295.691057 L1609.25231,295.691057 L1609.25231,326.260163 C1626.80352,302.195122 1659.30576,286.585366 1702.20872,286.585366 Z M1906.97283,267.073171 C1875.12063,267.073171 1848.4688,240.406504 1848.4688,208.536585 C1848.4688,176.666667 1875.12063,150 1906.97283,150 C1938.82502,150 1965.47686,176.666667 1965.47686,208.536585 C1965.47686,240.406504 1938.82502,267.073171 1906.97283,267.073171 Z M1858.21947,620.894309 L1858.21947,295.691057 L1955.72619,295.691057 L1955.72619,620.894309 L1858.21947,620.894309 Z M2189.09227,286.585366 C2274.24813,286.585366 2344.45297,361.382114 2344.45297,458.292683 C2344.45297,555.203252 2274.24813,630 2189.09227,630 C2145.53927,630 2113.68707,615.04065 2092.23559,590.325203 L2092.23559,620.894309 L1994.72887,620.894309 L1994.72887,165.609756 L2092.23559,165.609756 L2092.23559,326.260163 C2113.68707,301.544715 2145.53927,286.585366 2189.09227,286.585366 Z M2169.59092,537.642276 C2214.44401,537.642276 2246.94625,507.073171 2246.94625,458.292683 C2246.94625,409.512195 2214.44401,378.943089 2169.59092,378.943089 C2124.73783,378.943089 2092.23559,409.512195 2092.23559,458.292683 C2092.23559,507.073171 2124.73783,537.642276 2169.59092,537.642276 Z M2523.21529,630 C2427.6587,630 2350.95342,555.203252 2350.95342,458.292683 C2350.95342,361.382114 2427.6587,286.585366 2523.21529,286.585366 C2618.77187,286.585366 2695.47716,361.382114 2695.47716,458.292683 C2695.47716,555.203252 2618.77187,630 2523.21529,630 Z M2523.21529,535.04065 C2565.4682,535.04065 2597.97044,504.471545 2597.97044,458.292683 C2597.97044,412.113821 2565.4682,381.544715 2523.21529,381.544715 C2480.96238,381.544715 2448.46014,412.113821 2448.46014,458.292683 C2448.46014,504.471545 2480.96238,535.04065 2523.21529,535.04065 Z M3027,620.894309 L2915.1923,620.894309 L2854.73813,535.04065 L2794.28397,620.894309 L2682.47626,620.894309 L2798.83428,455.691057 L2686.37653,295.691057 L2798.18423,295.691057 L2854.73813,376.341463 L2911.29203,295.691057 L3023.09973,295.691057 L2910.64198,455.691057 L3027,620.894309 Z" id="Tanibox" fill="#09A562"></path>
        <g id="Icon">
            <rect id="Bound" fill-opacity="0" fill="#D8D8D8" x="0" y="0" width="800" height="800"></rect>
            <path d="M407.579506,371.420494 L541.394389,237.605611 C541.394389,237.605611 388.312073,235.462662 308.838208,314.936527 C229.364343,394.410392 273.764623,505.235377 273.764623,505.235377 L407.579506,371.420494 L273.764623,505.235377 C273.764623,505.235377 384.589608,549.635657 464.063473,470.161792 C543.537338,390.687927 541.394389,237.605611 541.394389,237.605611 L407.579506,371.420494 Z" id="Combined-Shape" fill="#09A562"></path>
            <path d="M197,582.994949 L295.994949,484" id="Line" stroke="#09A562" stroke-width="42" stroke-linecap="square"></path>
            <path d="M200.467148,586.2 C144.151884,534.982544 120,472.319709 120,390.2 C120,235.56027 245.36027,110.2 400,110.2 C554.63973,110.2 680,235.56027 680,390.2 C680,544.372795 555.395637,669.442683 401.4,670.196574" id="Combined-Shape" stroke="#09A562" stroke-width="42"></path>
            <circle id="Oval" fill="#09A562" cx="407" cy="670.2" r="35"></circle>
        </g>
    </g>
</svg>