<?xml version="1.0" encoding="UTF-8"?>
<svg width="2600px" height="800px" viewBox="0 0 2600 800" version="1.1" xmlns="http://www.w3.org/2000/svg" xmlns:xlink="http://www.w3.org/1999/xlink">
    <!-- Generator: Sketch 52.5 (67469) - http://www.bohemiancoding.com/sketch -->
    <title>Terra_Full</title>
    <desc>Created with Sketch.</desc>
    <g id="Terra_Full" stroke="none" stroke-width="1" fill="none" fill-rule="evenodd">
        <g id="logo" transform="translate(384.000000, 77.000000)"></g>
        <g id="Icon">
            <rect id="Bound" x="0" y="0" width="945" height="800"></rect>
            <path d="M357.187109,403.812891 L501.993928,259.006072 C501.993928,259.006072 336.336994,256.687095 250.334918,342.689171 C164.332843,428.691246 212.380289,548.619711 212.380289,548.619711 L357.187109,403.812891 L212.380289,548.619711 C212.380289,548.619711 332.308754,596.667157 418.310829,510.665082 C504.312905,424.663006 501.993928,259.006072 501.993928,259.006072 L357.187109,403.812891 Z" id="Leaf" fill="#203298"></path>
            <polyline id="Line" stroke="#203298" stroke-width="42" stroke-linecap="square" stroke-linejoin="round" transform="translate(400.000000, 378.250000) scale(-1, 1) rotate(-90.000000) translate(-400.000000, -378.250000) " points="484.25 78.25 678.25 78.25 678.25 678.25 121.75 678.25 250 550"></polyline>
            <g id="Line-2" transform="translate(316.000000, 665.000000)">
                <circle id="Dot" fill="#203298" cx="35" cy="35" r="35"></circle>
                <path d="M71,35 L384,35" id="Line-6" stroke="#203298" stroke-width="42" stroke-linecap="square" stroke-linejoin="round"></path>
                <circle id="Oval" fill="#203298" cx="384" cy="35" r="35"></circle>
            </g>
            <g id="Line-3" transform="translate(539.000000, 461.000000)">
                <circle id="Oval" fill="#203298" cx="138" cy="135" r="35"></circle>
                <circle id="Oval" fill="#203298" cx="229" cy="35" r="35"></circle>
                <polyline id="Line-6" stroke="#203298" stroke-width="42" stroke-linecap="square" stroke-linejoin="round" points="110 135 -8.52651283e-14 135 1.14575016e-13 35 200 35"></polyline>
            </g>
            <g id="Line-4" transform="translate(539.000000, 229.000000)">
                <circle id="Oval" fill="#203298" cx="271" cy="35" r="35"></circle>
                <circle id="Oval" fill="#203298" cx="35" cy="171" r="35"></circle>
                <polyline id="Line-6" stroke="#203298" stroke-width="42" stroke-linecap="square" stroke-linejoin="round" points="71 171 271 171 271 71"></polyline>
            </g>
            <circle id="Oval" fill="#203298" cx="700" cy="314" r="35"></circle>
        </g>
        <path d="M1374.64302,192 L1374.64302,295.529412 L1253.61274,295.529412 L1253.61274,662.588235 L1146.03028,662.588235 L1146.03028,295.529412 L1025,295.529412 L1025,192 L1374.64302,192 Z M1431.12381,534.857143 C1443.89923,569.815126 1474.82919,581.915966 1511.81066,581.915966 C1539.37867,581.915966 1562.91234,571.159664 1576.36014,556.369748 L1657.047,602.756303 C1624.09986,648.470588 1574.34297,672 1510.46588,672 C1395.48712,672 1324.21374,594.689076 1324.21374,494.521008 C1324.21374,394.352941 1396.8319,317.042017 1503.06959,317.042017 C1601.23859,317.042017 1673.85676,393.008403 1673.85676,494.521008 C1673.85676,508.638655 1672.51197,522.084034 1669.82241,534.857143 L1431.12381,534.857143 Z M1429.10664,459.563025 L1573.67058,459.563025 C1562.91234,420.571429 1532.65477,406.453782 1502.3972,406.453782 C1464.07094,406.453782 1438.52011,425.277311 1429.10664,459.563025 Z M1815.05874,386.285714 C1828.50655,341.243697 1873.55671,319.731092 1915.91731,319.731092 L1915.91731,434.016807 C1874.2291,427.294118 1815.05874,444.10084 1815.05874,510.655462 L1815.05874,662.588235 L1714.20018,662.588235 L1714.20018,326.453782 L1815.05874,326.453782 L1815.05874,386.285714 Z M2047.03344,386.285714 C2060.48125,341.243697 2105.53141,319.731092 2147.892,319.731092 L2147.892,434.016807 C2106.2038,427.294118 2047.03344,444.10084 2047.03344,510.655462 L2047.03344,662.588235 L1946.17488,662.588235 L1946.17488,326.453782 L2047.03344,326.453782 L2047.03344,386.285714 Z M2412.14144,326.453782 L2513,326.453782 L2513,662.588235 L2412.14144,662.588235 L2412.14144,630.991597 C2389.95255,656.537815 2357.00542,672 2311.95526,672 C2223.87212,672 2151.25395,594.689076 2151.25395,494.521008 C2151.25395,394.352941 2223.87212,317.042017 2311.95526,317.042017 C2357.00542,317.042017 2389.95255,332.504202 2412.14144,358.05042 L2412.14144,326.453782 Z M2332.12698,576.537815 C2378.52192,576.537815 2412.14144,544.941176 2412.14144,494.521008 C2412.14144,444.10084 2378.52192,412.504202 2332.12698,412.504202 C2285.73204,412.504202 2252.11252,444.10084 2252.11252,494.521008 C2252.11252,544.941176 2285.73204,576.537815 2332.12698,576.537815 Z" id="Terra" fill="#203298"></path>
    </g>
</svg>