<?xml version="1.0" encoding="UTF-8"?>
<svg width="2900px" height="400px" viewBox="0 0 2900 400" version="1.1" xmlns="http://www.w3.org/2000/svg" xmlns:xlink="http://www.w3.org/1999/xlink">
    <!-- Generator: Sketch 52.5 (67469) - http://www.bohemiancoding.com/sketch -->
    <title>Artboard</title>
    <desc>Created with Sketch.</desc>
    <g id="Artboard" stroke="none" stroke-width="1" fill="none" fill-rule="evenodd">
        <g id="Tania" transform="translate(70.000000, 0.000000)">
            <path d="M619.098568,87.804878 L619.098568,137.886179 L560.564448,137.886179 L560.564448,315.447154 L508.53412,315.447154 L508.53412,137.886179 L450,137.886179 L450,87.804878 L619.098568,87.804878 Z M720.882898,152.845528 L769.661331,152.845528 L769.661331,315.447154 L720.882898,315.447154 L720.882898,300.162602 C710.151643,312.520325 694.217355,320 672.429655,320 C629.829823,320 594.709351,282.601626 594.709351,234.146341 C594.709351,185.691057 629.829823,148.292683 672.429655,148.292683 C694.217355,148.292683 710.151643,155.772358 720.882898,168.130081 L720.882898,152.845528 Z M682.185341,273.821138 C704.62342,273.821138 720.882898,258.536585 720.882898,234.146341 C720.882898,209.756098 704.62342,194.471545 682.185341,194.471545 C659.747262,194.471545 643.487784,209.756098 643.487784,234.146341 C643.487784,258.536585 659.747262,273.821138 682.185341,273.821138 Z M892.582982,148.292683 C925.427127,148.292683 953.393429,171.707317 953.393429,215.609756 L953.393429,315.447154 L904.614996,315.447154 L904.614996,222.764228 C904.614996,202.601626 891.932603,193.170732 876.323505,193.170732 C858.438079,193.170732 846.080876,203.577236 846.080876,226.666667 L846.080876,315.447154 L797.302443,315.447154 L797.302443,152.845528 L846.080876,152.845528 L846.080876,168.130081 C854.860994,156.097561 871.120472,148.292683 892.582982,148.292683 Z M1003.14743,138.536585 C987.213142,138.536585 973.880371,125.203252 973.880371,109.268293 C973.880371,93.3333333 987.213142,80 1003.14743,80 C1019.08172,80 1032.41449,93.3333333 1032.41449,109.268293 C1032.41449,125.203252 1019.08172,138.536585 1003.14743,138.536585 Z M978.758214,315.447154 L978.758214,152.845528 L1027.53665,152.845528 L1027.53665,315.447154 L978.758214,315.447154 Z M1173.22157,152.845528 L1222,152.845528 L1222,315.447154 L1173.22157,315.447154 L1173.22157,300.162602 C1162.49031,312.520325 1146.55602,320 1124.76832,320 C1082.16849,320 1047.04802,282.601626 1047.04802,234.146341 C1047.04802,185.691057 1082.16849,148.292683 1124.76832,148.292683 C1146.55602,148.292683 1162.49031,155.772358 1173.22157,168.130081 L1173.22157,152.845528 Z M1134.52401,273.821138 C1156.96209,273.821138 1173.22157,258.536585 1173.22157,234.146341 C1173.22157,209.756098 1156.96209,194.471545 1134.52401,194.471545 C1112.08593,194.471545 1095.82645,209.756098 1095.82645,234.146341 C1095.82645,258.536585 1112.08593,273.821138 1134.52401,273.821138 Z" fill="#755399"></path>
            <g id="Icon">
                <rect id="Bound" fill-opacity="0" fill="#D8D8D8" x="0" y="0" width="400" height="400"></rect>
                <path d="M203.593554,219.406446 L275.996964,147.003036 C275.996964,147.003036 193.168497,145.843548 150.167459,188.844585 C107.166421,231.845623 131.190144,291.809856 131.190144,291.809856 L203.593554,219.406446 L131.190144,291.809856 C131.190144,291.809856 191.154377,315.833579 234.155415,272.832541 C277.156452,229.831503 275.996964,147.003036 275.996964,147.003036 L203.593554,219.406446 Z" id="Leaf" fill="#755399"></path>
                <polyline id="Line" stroke="#755399" stroke-width="21" stroke-linecap="square" stroke-linejoin="round" points="50 207.5 50 50 350 50 350 350 71.75 350 135.875 285.875"></polyline>
                <circle id="Dot" fill="#755399" cx="50" cy="222.5" r="17.5"></circle>
            </g>
        </g>
        <g id="Terra" transform="translate(1523.000000, 0.000000)">
            <g id="Icon">
                <rect id="Bound" x="0" y="0" width="472.688022" height="400"></rect>
                <path d="M178.664622,201.906446 L251.096844,129.503036 C251.096844,129.503036 168.235416,128.343548 125.217267,171.344585 C82.199118,214.345623 106.232401,274.309856 106.232401,274.309856 L178.664622,201.906446 L106.232401,274.309856 C106.232401,274.309856 166.220495,298.333579 209.238644,255.332541 C252.256793,212.331503 251.096844,129.503036 251.096844,129.503036 L178.664622,201.906446 Z" id="Leaf" fill="#203298"></path>
                <polyline id="Line" stroke="#203298" stroke-width="21" stroke-linecap="square" stroke-linejoin="round" transform="translate(200.079586, 189.125000) scale(-1, 1) rotate(-90.000000) translate(-200.079586, -189.125000) " points="242.204586 39.0653104 339.204586 39.0653104 339.204586 339.18469 60.9545862 339.18469 125.079586 275.034172"></polyline>
                <g id="Line-2" transform="translate(158.062873, 332.500000)">
                    <ellipse id="Dot" fill="#203298" cx="17.5069638" cy="17.5" rx="17.5069638" ry="17.5"></ellipse>
                    <path d="M35.5141265,17.5 L192.076403,17.5" id="Line-6" stroke="#203298" stroke-width="21" stroke-linecap="square" stroke-linejoin="round"></path>
                    <ellipse id="Oval" fill="#203298" cx="192.076403" cy="17.5" rx="17.5069638" ry="17.5"></ellipse>
                </g>
                <g id="Line-3" transform="translate(269.607242, 230.500000)">
                    <ellipse id="Oval" fill="#203298" cx="69.0274572" cy="67.5" rx="17.5069638" ry="17.5"></ellipse>
                    <ellipse id="Oval" fill="#203298" cx="114.545563" cy="17.5" rx="17.5069638" ry="17.5"></ellipse>
                    <polyline id="Line-6" stroke="#203298" stroke-width="21" stroke-linecap="square" stroke-linejoin="round" points="55.0218862 67.5 -8.52651283e-14 67.5 1.46947052e-14 17.5 100.039793 17.5"></polyline>
                </g>
                <g id="Line-4" transform="translate(269.607242, 114.500000)">
                    <ellipse id="Oval" fill="#203298" cx="135.55392" cy="17.5" rx="17.5069638" ry="17.5"></ellipse>
                    <ellipse id="Oval" fill="#203298" cx="17.5069638" cy="85.5" rx="17.5069638" ry="17.5"></ellipse>
                    <polyline id="Line-6" stroke="#203298" stroke-width="21" stroke-linecap="square" stroke-linejoin="round" points="35.5141265 85.5 135.55392 85.5 135.55392 35.5"></polyline>
                </g>
                <ellipse id="Oval" fill="#203298" cx="350.139276" cy="157" rx="17.5069638" ry="17.5"></ellipse>
            </g>
            <path d="M687.595016,96 L687.595016,147.764706 L627.055797,147.764706 L627.055797,331.294118 L573.243158,331.294118 L573.243158,147.764706 L512.70394,147.764706 L512.70394,96 L687.595016,96 Z M715.846651,267.428571 C722.236902,284.907563 737.708036,290.957983 756.20613,290.957983 C769.995619,290.957983 781.767134,285.579832 788.493713,278.184874 L828.853192,301.378151 C812.373072,324.235294 787.484726,336 755.533472,336 C698.021214,336 662.370341,297.344538 662.370341,247.260504 C662.370341,197.176471 698.693872,158.521008 751.833853,158.521008 C800.937886,158.521008 837.261417,196.504202 837.261417,247.260504 C837.261417,254.319328 836.588759,261.042017 835.243443,267.428571 L715.846651,267.428571 Z M714.837664,229.781513 L787.148397,229.781513 C781.767134,210.285714 766.632329,203.226891 751.497524,203.226891 C732.326772,203.226891 719.54627,212.638655 714.837664,229.781513 Z M907.890506,193.142857 C914.617086,170.621849 937.151128,159.865546 958.339855,159.865546 L958.339855,217.008403 C937.487457,213.647059 907.890506,222.05042 907.890506,255.327731 L907.890506,331.294118 L857.441157,331.294118 L857.441157,163.226891 L907.890506,163.226891 L907.890506,193.142857 Z M1023.92401,193.142857 C1030.65059,170.621849 1053.18463,159.865546 1074.37336,159.865546 L1074.37336,217.008403 C1053.52096,213.647059 1023.92401,222.05042 1023.92401,255.327731 L1023.92401,331.294118 L973.474659,331.294118 L973.474659,163.226891 L1023.92401,163.226891 L1023.92401,193.142857 Z M1206.55065,163.226891 L1257,163.226891 L1257,331.294118 L1206.55065,331.294118 L1206.55065,315.495798 C1195.45179,328.268908 1178.97167,336 1156.43763,336 C1112.37853,336 1076.055,297.344538 1076.055,247.260504 C1076.055,197.176471 1112.37853,158.521008 1156.43763,158.521008 C1178.97167,158.521008 1195.45179,166.252101 1206.55065,179.02521 L1206.55065,163.226891 Z M1166.5275,288.268908 C1189.7342,288.268908 1206.55065,272.470588 1206.55065,247.260504 C1206.55065,222.05042 1189.7342,206.252101 1166.5275,206.252101 C1143.3208,206.252101 1126.50435,222.05042 1126.50435,247.260504 C1126.50435,272.470588 1143.3208,288.268908 1166.5275,288.268908 Z" fill="#203298"></path>
        </g>
    </g>
</svg>