<?xml version="1.0" encoding="UTF-8"?>
<svg width="400px" height="400px" viewBox="0 0 400 400" version="1.1" xmlns="http://www.w3.org/2000/svg" xmlns:xlink="http://www.w3.org/1999/xlink">
    <!-- Generator: Sketch 52.5 (67469) - http://www.bohemiancoding.com/sketch -->
    <title>tania-knowledge</title>
    <desc>Created with Sketch.</desc>
    <g id="tania-knowledge" stroke="none" stroke-width="1" fill="none" fill-rule="evenodd">
        <g id="dots" transform="translate(10.000000, 10.000000)" fill="#C4E5B6" fill-rule="nonzero">
            <circle id="Oval" cx="6.78571429" cy="6.78571429" r="6.78571429"></circle>
            <circle id="Oval" cx="47.5" cy="6.78571429" r="6.78571429"></circle>
            <circle id="Oval" cx="88.2142857" cy="6.78571429" r="6.78571429"></circle>
            <circle id="Oval" cx="128.928571" cy="6.78571429" r="6.78571429"></circle>
            <circle id="Oval" cx="169.642857" cy="6.78571429" r="6.78571429"></circle>
            <circle id="Oval" cx="210.357143" cy="6.78571429" r="6.78571429"></circle>
            <circle id="Oval" cx="251.071429" cy="6.78571429" r="6.78571429"></circle>
            <circle id="Oval" cx="291.785714" cy="6.78571429" r="6.78571429"></circle>
            <circle id="Oval" cx="332.5" cy="6.78571429" r="6.78571429"></circle>
            <circle id="Oval" cx="373.214286" cy="6.78571429" r="6.78571429"></circle>
            <circle id="Oval" cx="6.78571429" cy="47.5" r="6.78571429"></circle>
            <circle id="Oval" cx="47.5" cy="47.5" r="6.78571429"></circle>
            <circle id="Oval" cx="88.2142857" cy="47.5" r="6.78571429"></circle>
            <circle id="Oval" cx="128.928571" cy="47.5" r="6.78571429"></circle>
            <circle id="Oval" cx="169.642857" cy="47.5" r="6.78571429"></circle>
            <circle id="Oval" cx="210.357143" cy="47.5" r="6.78571429"></circle>
            <circle id="Oval" cx="251.071429" cy="47.5" r="6.78571429"></circle>
            <circle id="Oval" cx="291.785714" cy="47.5" r="6.78571429"></circle>
            <circle id="Oval" cx="332.5" cy="47.5" r="6.78571429"></circle>
            <circle id="Oval" cx="373.214286" cy="47.5" r="6.78571429"></circle>
            <circle id="Oval" cx="6.78571429" cy="88.2142857" r="6.78571429"></circle>
            <circle id="Oval" cx="47.5" cy="88.2142857" r="6.78571429"></circle>
            <circle id="Oval" cx="88.2142857" cy="88.2142857" r="6.78571429"></circle>
            <circle id="Oval" cx="128.928571" cy="88.2142857" r="6.78571429"></circle>
            <circle id="Oval" cx="169.642857" cy="88.2142857" r="6.78571429"></circle>
            <circle id="Oval" cx="210.357143" cy="88.2142857" r="6.78571429"></circle>
            <circle id="Oval" cx="251.071429" cy="88.2142857" r="6.78571429"></circle>
            <circle id="Oval" cx="291.785714" cy="88.2142857" r="6.78571429"></circle>
            <circle id="Oval" cx="332.5" cy="88.2142857" r="6.78571429"></circle>
            <circle id="Oval" cx="373.214286" cy="88.2142857" r="6.78571429"></circle>
            <circle id="Oval" cx="6.78571429" cy="128.928571" r="6.78571429"></circle>
            <circle id="Oval" cx="47.5" cy="128.928571" r="6.78571429"></circle>
            <circle id="Oval" cx="88.2142857" cy="128.928571" r="6.78571429"></circle>
            <circle id="Oval" cx="128.928571" cy="128.928571" r="6.78571429"></circle>
            <circle id="Oval" cx="169.642857" cy="128.928571" r="6.78571429"></circle>
            <circle id="Oval" cx="210.357143" cy="128.928571" r="6.78571429"></circle>
            <circle id="Oval" cx="251.071429" cy="128.928571" r="6.78571429"></circle>
            <circle id="Oval" cx="291.785714" cy="128.928571" r="6.78571429"></circle>
            <circle id="Oval" cx="332.5" cy="128.928571" r="6.78571429"></circle>
            <circle id="Oval" cx="373.214286" cy="128.928571" r="6.78571429"></circle>
            <circle id="Oval" cx="6.78571429" cy="169.642857" r="6.78571429"></circle>
            <circle id="Oval" cx="47.5" cy="169.642857" r="6.78571429"></circle>
            <circle id="Oval" cx="88.2142857" cy="169.642857" r="6.78571429"></circle>
            <circle id="Oval" cx="128.928571" cy="169.642857" r="6.78571429"></circle>
            <circle id="Oval" cx="169.642857" cy="169.642857" r="6.78571429"></circle>
            <circle id="Oval" cx="210.357143" cy="169.642857" r="6.78571429"></circle>
            <circle id="Oval" cx="251.071429" cy="169.642857" r="6.78571429"></circle>
            <circle id="Oval" cx="291.785714" cy="169.642857" r="6.78571429"></circle>
            <circle id="Oval" cx="332.5" cy="169.642857" r="6.78571429"></circle>
            <circle id="Oval" cx="373.214286" cy="169.642857" r="6.78571429"></circle>
            <circle id="Oval" cx="6.78571429" cy="210.357143" r="6.78571429"></circle>
            <circle id="Oval" cx="47.5" cy="210.357143" r="6.78571429"></circle>
            <circle id="Oval" cx="88.2142857" cy="210.357143" r="6.78571429"></circle>
            <circle id="Oval" cx="128.928571" cy="210.357143" r="6.78571429"></circle>
            <circle id="Oval" cx="169.642857" cy="210.357143" r="6.78571429"></circle>
            <circle id="Oval" cx="210.357143" cy="210.357143" r="6.78571429"></circle>
            <circle id="Oval" cx="251.071429" cy="210.357143" r="6.78571429"></circle>
            <circle id="Oval" cx="291.785714" cy="210.357143" r="6.78571429"></circle>
            <circle id="Oval" cx="332.5" cy="210.357143" r="6.78571429"></circle>
            <circle id="Oval" cx="373.214286" cy="210.357143" r="6.78571429"></circle>
            <circle id="Oval" cx="6.78571429" cy="251.071429" r="6.78571429"></circle>
            <circle id="Oval" cx="47.5" cy="251.071429" r="6.78571429"></circle>
            <circle id="Oval" cx="88.2142857" cy="251.071429" r="6.78571429"></circle>
            <circle id="Oval" cx="128.928571" cy="251.071429" r="6.78571429"></circle>
            <circle id="Oval" cx="169.642857" cy="251.071429" r="6.78571429"></circle>
            <circle id="Oval" cx="210.357143" cy="251.071429" r="6.78571429"></circle>
            <circle id="Oval" cx="251.071429" cy="251.071429" r="6.78571429"></circle>
            <circle id="Oval" cx="291.785714" cy="251.071429" r="6.78571429"></circle>
            <circle id="Oval" cx="332.5" cy="251.071429" r="6.78571429"></circle>
            <circle id="Oval" cx="373.214286" cy="251.071429" r="6.78571429"></circle>
            <circle id="Oval" cx="6.78571429" cy="291.785714" r="6.78571429"></circle>
            <circle id="Oval" cx="47.5" cy="291.785714" r="6.78571429"></circle>
            <circle id="Oval" cx="88.2142857" cy="291.785714" r="6.78571429"></circle>
            <circle id="Oval" cx="128.928571" cy="291.785714" r="6.78571429"></circle>
            <circle id="Oval" cx="169.642857" cy="291.785714" r="6.78571429"></circle>
            <circle id="Oval" cx="210.357143" cy="291.785714" r="6.78571429"></circle>
            <circle id="Oval" cx="251.071429" cy="291.785714" r="6.78571429"></circle>
            <circle id="Oval" cx="291.785714" cy="291.785714" r="6.78571429"></circle>
            <circle id="Oval" cx="332.5" cy="291.785714" r="6.78571429"></circle>
            <circle id="Oval" cx="373.214286" cy="291.785714" r="6.78571429"></circle>
            <circle id="Oval" cx="6.78571429" cy="332.5" r="6.78571429"></circle>
            <circle id="Oval" cx="47.5" cy="332.5" r="6.78571429"></circle>
            <circle id="Oval" cx="88.2142857" cy="332.5" r="6.78571429"></circle>
            <circle id="Oval" cx="128.928571" cy="332.5" r="6.78571429"></circle>
            <circle id="Oval" cx="169.642857" cy="332.5" r="6.78571429"></circle>
            <circle id="Oval" cx="210.357143" cy="332.5" r="6.78571429"></circle>
            <circle id="Oval" cx="251.071429" cy="332.5" r="6.78571429"></circle>
            <circle id="Oval" cx="291.785714" cy="332.5" r="6.78571429"></circle>
            <circle id="Oval" cx="332.5" cy="332.5" r="6.78571429"></circle>
            <circle id="Oval" cx="373.214286" cy="332.5" r="6.78571429"></circle>
            <circle id="Oval" cx="6.78571429" cy="373.214286" r="6.78571429"></circle>
            <circle id="Oval" cx="47.5" cy="373.214286" r="6.78571429"></circle>
            <circle id="Oval" cx="88.2142857" cy="373.214286" r="6.78571429"></circle>
            <circle id="Oval" cx="128.928571" cy="373.214286" r="6.78571429"></circle>
            <circle id="Oval" cx="169.642857" cy="373.214286" r="6.78571429"></circle>
            <circle id="Oval" cx="210.357143" cy="373.214286" r="6.78571429"></circle>
            <circle id="Oval" cx="251.071429" cy="373.214286" r="6.78571429"></circle>
            <circle id="Oval" cx="291.785714" cy="373.214286" r="6.78571429"></circle>
            <circle id="Oval" cx="332.5" cy="373.214286" r="6.78571429"></circle>
            <circle id="Oval" cx="373.214286" cy="373.214286" r="6.78571429"></circle>
        </g>
        <g id="icon" transform="translate(42.000000, 23.000000)">
            <path d="M291.891923,352 L24.3031761,352 C10.9946449,352 0.140555853,341.15109 0.140555853,327.84891 L0.140555853,208.456386 C0.140555853,195.154206 10.9946449,184.305296 24.3031761,184.305296 L291.83738,184.305296 C305.145911,184.305296 316,195.154206 316,208.456386 L316,327.903427 C316,341.15109 305.145911,352 291.891923,352 Z" id="Shape" fill="#755399" fill-rule="nonzero"></path>
            <path d="M286.546693,343.985981 L30.2483806,343.985981 C26.1031004,343.985981 22.7214244,340.605919 22.7214244,336.462617 L22.7214244,199.297508 C22.7214244,195.154206 26.1031004,191.774143 30.2483806,191.774143 L286.546693,191.774143 C290.691973,191.774143 294.073649,195.154206 294.073649,199.297508 L294.073649,336.4081 C294.073649,340.605919 290.691973,343.985981 286.546693,343.985981 Z" id="Shape" fill="#6ABF4B" fill-rule="nonzero"></path>
            <path d="M22.6668813,336.462617 L22.6668813,165.714953 C22.6668813,165.714953 157.770291,192.155763 157.770291,191.774143 L157.770291,344.149533 L30.3574669,344.149533 C26.1031004,344.095016 22.6668813,340.660436 22.6668813,336.462617 Z" id="Shape" fill="#AED835" fill-rule="nonzero"></path>
            <ellipse id="Oval" fill="#9E86B6" fill-rule="nonzero" cx="302.636926" cy="265.590343" rx="10.0904847" ry="10.0856698"></ellipse>
            <polygon id="Shape" fill="#D2EA8E" fill-rule="nonzero" points="41.2660991 344.095016 41.2660991 152.794393 157.279402 191.610592 157.279402 344.095016"></polygon>
            <path d="M182.478342,191.610592 L294.073649,160.099688 L294.073649,336.626168 C294.073649,340.660436 290.80106,343.985981 286.710323,343.985981 L182.478342,343.985981 L182.478342,191.610592 Z" id="Shape" fill="#D2EA8E" fill-rule="nonzero"></path>
            <polygon id="Shape" fill="#E4EFC6" fill-rule="nonzero" points="157.279402 191.774143 275.256259 143.362928 275.256259 344.095016 157.279402 344.095016"></polygon>
            <ellipse id="Oval" fill="#046339" fill-rule="nonzero" cx="99.8999969" cy="254.141745" rx="28.4169868" ry="33.7461059"></ellipse>
            <ellipse id="Oval" fill="#07834D" fill-rule="nonzero" cx="213.895203" cy="254.141745" rx="28.4169868" ry="33.7461059"></ellipse>
            <path d="M200.913931,244.819315 L209.749923,300.808411 C210.404441,305.115265 216.622361,305.115265 217.276879,300.808411 L226.112871,244.819315 C226.494673,242.529595 224.694749,240.403427 222.349393,240.403427 L204.677409,240.403427 C202.332053,240.403427 200.532129,242.529595 200.913931,244.819315 Z" id="Shape" fill="#FF8300" fill-rule="nonzero"></path>
            <g id="Group-3" transform="translate(45.000000, 27.000000)" stroke="#6CC04A" stroke-linecap="round">
                <path d="M54.4091085,225.833333 L55.3908854,99.6806854" id="Shape" stroke-width="7.81573988"></path>
                <path d="M72.9537832,144.820872 L53.91822,187.344237" id="Shape" stroke-width="4.88484424"></path>
                <path d="M3.08399419,71.05919 L61.717892,165.809969 C61.717892,165.809969 29.810143,124.976636 0.793181436,108.785047" id="Shape" stroke-width="4.88484424"></path>
                <path d="M42.1914405,0.732087227 L56.3726623,106.713396 C56.3726623,106.713396 61.7724352,46.635514 73.0083263,37.3676012" id="Shape" stroke-width="4.88484424"></path>
                <path d="M106.170568,74.4937695 L63.3541869,144.330218 C63.3541869,144.330218 71.9720063,111.619938 74.917337,81.3084112 C74.917337,81.3084112 74.262819,53.94081 30.1374019,35.8411215" id="Shape" stroke-width="4.88484424"></path>
            </g>
            <g id="Group" transform="translate(140.371022, 46.704050)">
                <path d="M6.92698142,65.529595 C6.92698142,65.529595 52.8523228,65.529595 40.1437663,0.054517134 C40.1437663,0.109034268 -19.4719084,22.5700935 6.92698142,65.529595 Z" id="Shape" fill="#09A562" fill-rule="nonzero"></path>
                <path d="M6.92698142,65.529595 L35.2348819,9.86760125" id="Shape" stroke="#D2EA8E" stroke-width="1.9539486" stroke-linecap="round"></path>
                <polyline id="Shape" stroke="#D2EA8E" stroke-width="1.9539486" stroke-linecap="round" points="39.1619894 24.5327103 26.9443214 26.2227414 21.5445485 15.7009346"></polyline>
                <polyline id="Shape" stroke="#D2EA8E" stroke-width="1.9539486" stroke-linecap="round" points="35.2348819 40.1246106 19.8537105 40.1246106 10.7995458 26.44081"></polyline>
                <polyline id="Shape" stroke="#D2EA8E" stroke-width="1.9539486" stroke-linecap="round" points="25.4716561 54.7897196 12.3812975 54.7897196 4.96342763 43.0685358"></polyline>
            </g>
            <g id="Group" transform="translate(108.190557, 78.323988)">
                <path d="M10.3086574,48.3566978 C10.3086574,48.3566978 37.2529788,38.7071651 14.9448261,0 C14.8902829,0 -14.9448261,26.7133956 10.3086574,48.3566978 Z" id="Shape" fill="#09A562" fill-rule="nonzero"></path>
                <path d="M10.3086574,48.3566978 L14.2903081,7.19626168" id="Shape" stroke="#D2EA8E" stroke-width="1.26397975" stroke-linecap="round"></path>
                <polyline id="Shape" stroke="#D2EA8E" stroke-width="1.26397975" stroke-linecap="round" points="19.9082537 15.6464174 13.0903586 19.2990654 7.58149935 13.7928349"></polyline>
                <polyline id="Shape" stroke="#D2EA8E" stroke-width="1.26397975" stroke-linecap="round" points="21.1627464 26.3317757 12.1085817 29.5482866 3.70893493 22.8426791"></polyline>
                <polyline id="Shape" stroke="#D2EA8E" stroke-width="1.26397975" stroke-linecap="round" points="18.7628473 37.6713396 11.0722616 40.3971963 4.0361939 34.5638629"></polyline>
            </g>
            <g id="Group" transform="translate(63.010345, 0.000000)">
                <path d="M26.8897783,41.3239875 C26.8897783,41.3239875 42.4891223,17.3364486 1.2544927,0 C1.2544927,0 -6.32700665,39.3613707 26.8897783,41.3239875 Z" id="Shape" fill="#09A562" fill-rule="nonzero"></path>
                <path d="M26.8897783,41.3239875 L5.12705711,6.105919" id="Shape" stroke="#D2EA8E" stroke-width="1.26397975" stroke-linecap="round"></path>
                <polyline id="Shape" stroke="#D2EA8E" stroke-width="1.26397975" stroke-linecap="round" points="14.6721103 9.43146417 11.5086069 16.4641745 3.76347809 15.4283489"></polyline>
                <polyline id="Shape" stroke="#D2EA8E" stroke-width="1.26397975" stroke-linecap="round" points="22.1990664 17.2274143 16.962923 25.241433 6.16337717 24.9688474"></polyline>
                <polyline id="Shape" stroke="#D2EA8E" stroke-width="1.26397975" stroke-linecap="round" points="27.1079509 27.694704 22.6899549 34.5093458 13.5267039 34.1277259"></polyline>
            </g>
            <g id="Group" transform="translate(26.375816, 63.059190)">
                <path d="M26.5079761,41.8146417 C26.5079761,41.8146417 42.1073201,17.8271028 0.872690573,0.490654206 C0.927233733,0.490654206 -6.65426562,39.8520249 26.5079761,41.8146417 Z" id="Shape" fill="#09A562" fill-rule="nonzero"></path>
                <path d="M26.5079761,41.8146417 L4.74525499,6.59657321" id="Shape" stroke="#D2EA8E" stroke-width="1.26397975" stroke-linecap="round"></path>
                <polyline id="Shape" stroke="#D2EA8E" stroke-width="1.26397975" stroke-linecap="round" points="14.3448513 9.92211838 11.1268048 16.9548287 3.43621913 15.9190031"></polyline>
                <polyline id="Shape" stroke="#D2EA8E" stroke-width="1.26397975" stroke-linecap="round" points="21.8172643 17.7180685 16.5811209 25.7320872 5.8361182 25.4595016"></polyline>
                <polyline id="Shape" stroke="#D2EA8E" stroke-width="1.26397975" stroke-linecap="round" points="26.7806919 28.1853583 22.3081528 35 13.1994449 34.6183801"></polyline>
            </g>
            <g id="Group" transform="translate(116.372032, 121.937695)">
                <path d="M0,34.8364486 C0,34.8364486 35.9984861,63.4034268 66.7608288,4.25233645 C66.7062856,4.25233645 6.05429085,-15.2102804 0,34.8364486 Z" id="Shape" fill="#09A562" fill-rule="nonzero"></path>
                <path d="M0,34.8364486 L56.8339735,8.88629283" id="Shape" stroke="#D2EA8E" stroke-width="1.9539486" stroke-linecap="round"></path>
                <polyline id="Shape" stroke="#D2EA8E" stroke-width="1.9539486" stroke-linecap="round" points="50.7796827 22.788162 40.1437663 16.5186916 42.4345791 4.96105919"></polyline>
                <polyline id="Shape" stroke="#D2EA8E" stroke-width="1.9539486" stroke-linecap="round" points="37.9620399 32.6012461 25.9080014 23.0062305 27.3261236 6.70560748"></polyline>
                <polyline id="Shape" stroke="#D2EA8E" stroke-width="1.9539486" stroke-linecap="round" points="21.2172895 37.9984424 10.9631753 29.8208723 12.4358407 16.0280374"></polyline>
            </g>
            <g id="Group" transform="translate(104.917968, 9.632399)">
                <path d="M7.19969722,65.4750779 C7.19969722,65.4750779 53.1250386,65.4750779 40.4164821,2.84217094e-14 C40.4164821,0.054517134 -19.1991926,22.5155763 7.19969722,65.4750779 Z" id="Shape" fill="#09A562" fill-rule="nonzero"></path>
                <path d="M7.19969722,65.4750779 L35.5075977,9.81308411" id="Shape" stroke="#D2EA8E" stroke-width="1.9539486" stroke-linecap="round"></path>
                <polyline id="Shape" stroke="#D2EA8E" stroke-width="1.9539486" stroke-linecap="round" points="39.4347053 24.4781931 27.2170372 26.1682243 21.8172643 15.6464174"></polyline>
                <polyline id="Shape" stroke="#D2EA8E" stroke-width="1.9539486" stroke-linecap="round" points="35.5075977 40.0700935 20.1264263 40.0700935 11.0722616 26.3862928"></polyline>
                <polyline id="Shape" stroke="#D2EA8E" stroke-width="1.9539486" stroke-linecap="round" points="25.7443719 54.7352025 12.6540133 54.7352025 5.23614344 43.0140187"></polyline>
            </g>
            <g id="Group" transform="translate(40.557038, 41.797508)">
                <path d="M64.2518434,37.7803738 C64.2518434,37.7803738 66.1063109,-8.12305296 0.163629482,1.90809969 C0.163629482,1.90809969 20.2355127,62.3676012 64.2518434,37.7803738 Z" id="Shape" fill="#09A562" fill-rule="nonzero"></path>
                <path d="M64.2518434,37.7803738 L9.76322578,7.19626168" id="Shape" stroke="#D2EA8E" stroke-width="1.9539486" stroke-linecap="round"></path>
                <polyline id="Shape" stroke="#D2EA8E" stroke-width="1.9539486" stroke-linecap="round" points="24.5444224 3.87071651 25.7443719 16.1915888 15.0539124 21.0981308"></polyline>
                <polyline id="Shape" stroke="#D2EA8E" stroke-width="1.9539486" stroke-linecap="round" points="40.03468 8.39563863 39.3801621 23.8239875 25.3625698 32.2741433"></polyline>
                <polyline id="Shape" stroke="#D2EA8E" stroke-width="1.9539486" stroke-linecap="round" points="54.270445 18.7538941 53.7250134 31.8380062 41.725518 38.8161994"></polyline>
            </g>
            <g id="Group" transform="translate(1.285962, 109.398754)">
                <path d="M64.4154729,37.5623053 C64.4154729,37.5623053 66.2699404,-8.3411215 0.327258965,1.69003115 C0.381802126,1.69003115 20.3991421,62.1495327 64.4154729,37.5623053 Z" id="Shape" fill="#09A562" fill-rule="nonzero"></path>
                <path d="M64.4154729,37.5623053 L9.92685526,6.97819315" id="Shape" stroke="#D2EA8E" stroke-width="1.9539486" stroke-linecap="round"></path>
                <polyline id="Shape" stroke="#D2EA8E" stroke-width="1.9539486" stroke-linecap="round" points="24.762595 3.70716511 25.9625445 15.9735202 15.2175419 20.8800623"></polyline>
                <polyline id="Shape" stroke="#D2EA8E" stroke-width="1.9539486" stroke-linecap="round" points="40.1983095 8.23208723 39.5983347 23.605919 25.5261993 32.0560748"></polyline>
                <polyline id="Shape" stroke="#D2EA8E" stroke-width="1.9539486" stroke-linecap="round" points="54.4340745 18.5903427 53.943186 31.6744548 41.8891475 38.5981308"></polyline>
            </g>
            <g id="Group" transform="translate(61.828871, 100.676012)">
                <path d="M46.6889456,57.0249221 C46.6889456,57.0249221 65.2881635,15.046729 0.272715804,0.163551402 C0.327258965,0.109034268 -3.27258965,63.6760125 46.6889456,57.0249221 Z" id="Shape" fill="#08A562" fill-rule="nonzero"></path>
                <path d="M46.6889456,57.0249221 L7.25424039,8.55919003" id="Shape" stroke="#D2EA8E" stroke-width="1.9539486" stroke-linecap="round"></path>
                <polyline id="Shape" stroke="#D2EA8E" stroke-width="1.9539486" stroke-linecap="round" points="22.2536096 10.9034268 18.8719336 22.788162 7.0906109 23.4423676"></polyline>
                <polyline id="Shape" stroke="#D2EA8E" stroke-width="1.9539486" stroke-linecap="round" points="34.9621661 20.8255452 28.6897026 34.8909657 12.544927 37.6168224"></polyline>
                <polyline id="Shape" stroke="#D2EA8E" stroke-width="1.9539486" stroke-linecap="round" points="44.3981329 35.6542056 39.1074463 47.6479751 25.3625698 49.665109"></polyline>
            </g>
            <g id="Group" transform="translate(94.554767, 138.292835)">
                <path d="M6.76335194,65.8021807 C6.76335194,65.8021807 52.6886933,65.8021807 39.9801369,0.327102804 C40.03468,0.327102804 -19.5809947,22.788162 6.76335194,65.8021807 Z" id="Shape" fill="#09A562" fill-rule="nonzero"></path>
                <path d="M6.76335194,65.8021807 L35.1257956,10.0856698" id="Shape" stroke="#D2EA8E" stroke-width="1.9539486" stroke-linecap="round"></path>
                <polyline id="Shape" stroke="#D2EA8E" stroke-width="1.9539486" stroke-linecap="round" points="39.0529031 24.7507788 26.7806919 26.44081 21.4354622 15.9735202"></polyline>
                <polyline id="Shape" stroke="#D2EA8E" stroke-width="1.9539486" stroke-linecap="round" points="35.1257956 40.3971963 19.690081 40.3971963 10.6904595 26.7133956"></polyline>
                <polyline id="Shape" stroke="#D2EA8E" stroke-width="1.9539486" stroke-linecap="round" points="25.3625698 55.0623053 12.2722112 55.0623053 4.85434131 43.3411215"></polyline>
            </g>
            <g id="Group" transform="translate(187.823572, 121.937695)" fill-rule="nonzero">
                <path d="M7.25424039,78.3956386 L8.89053521,75.5062305 C9.38142366,74.6884735 10.6359164,75.0155763 10.6359164,75.9968847 C10.6359164,76.6510903 11.2904343,77.0872274 11.8904091,76.8691589 L12.3267543,76.7056075 C12.9267291,76.4875389 13.581247,76.9781931 13.581247,77.5778816 L13.581247,78.8317757 C13.581247,79.4859813 14.235765,79.9221184 14.8357397,79.7040498 L15.272085,79.5404984 C15.8720598,79.3224299 16.5265777,79.8130841 16.5265777,80.4127726 L16.5265777,83.4657321 C16.5265777,84.228972 17.3447251,84.665109 17.9992431,84.228972 L19.0355631,83.5202492 C19.7446242,83.029595 20.6718579,83.6838006 20.5082285,84.5015576 L19.9627968,87.2274143 C19.7991674,88.0996885 20.7809443,88.6993769 21.4900054,88.1542056 L22.4172391,87.3909657 C23.071757,86.8457944 24.0535339,87.4454829 23.9444476,88.2632399 L22.4717822,97.7492212 C22.3081528,98.6760125 21.1082032,98.8395639 20.6718579,98.0218069 C18.326502,93.0062305 13.1449018,82.9205607 7.63604251,79.5404984 C7.0906109,79.376947 6.98152458,78.8317757 7.25424039,78.3956386 Z" id="Shape" fill="#6CC04A"></path>
                <path d="M20.8354874,102.165109 L13.3085312,102.982866 C11.9449522,103.146417 11.5631501,101.401869 12.8176428,100.965732 L16.4174914,99.711838 C17.5628978,99.3302181 17.3447251,97.7492212 16.0902324,97.694704 L10.1995711,97.4221184 C9.05416469,97.3676012 8.72690573,95.9501558 9.76322578,95.4595016 L11.3995206,94.6962617 C12.4358407,94.2056075 12.1631249,92.788162 11.0177185,92.7336449 L7.69058567,92.4610592 C6.49063613,92.3520249 6.27246349,90.8800623 7.36332671,90.4439252 C8.39964676,90.0623053 8.29056044,88.6448598 7.14515406,88.4267913 L1.90901063,87.5545171 C0.872690573,87.3909657 0.65451793,86.0825545 1.58175166,85.5919003 L3.32713281,84.665109 C4.3089097,84.1199377 3.98165074,82.7570093 2.83624436,82.7024922 L1.19994954,82.6479751 C-0.163629482,82.5934579 -0.272715804,80.8489097 1.03632006,80.576324 L6.76335194,79.4859813 C7.0906109,79.4314642 7.36332671,79.4859813 7.63604251,79.6495327 C9.8723121,81.1214953 20.9445737,88.8629283 21.8172643,101.074766 C21.8718075,101.619938 21.4354622,102.110592 20.8354874,102.165109 Z" id="Shape" fill="#6CC04A"></path>
                <path d="M29.835109,104.61838 L37.307522,106.035826 C38.6165578,106.308411 39.3256189,103.85514 38.1256694,103.200935 L34.7439934,101.292835 C33.6531302,100.693146 34.1440187,98.4579439 35.3985114,98.4579439 L41.398259,98.2943925 C42.5982086,98.2398754 43.1436402,96.2227414 42.1618633,95.5140187 L40.6346548,94.3691589 C39.6528779,93.6604361 40.1983095,91.6433022 41.3437159,91.588785 L44.7253918,91.3707165 C45.9253414,91.3161994 46.4162298,89.1900312 45.3799098,88.5358255 C44.3981329,87.9361371 44.7253918,85.9190031 45.9253414,85.7009346 L51.3251143,84.7196262 C52.4159775,84.5015576 52.8523228,82.7024922 51.9796322,81.9937695 L50.3978806,80.6853583 C49.4706468,79.9221184 50.0160784,77.9595016 51.216028,77.9595016 L52.8523228,77.9049844 C54.2159018,77.8504673 54.597704,75.3971963 53.3432113,74.9610592 L47.7798089,73.2165109 C47.4525499,73.1074766 47.1798341,73.1619938 46.8525751,73.4345794 C44.3435897,75.3971963 31.9622922,85.9735202 29.1260479,103.146417 C28.8533321,103.800623 29.2351342,104.509346 29.835109,104.61838 Z" id="Shape" fill="#6CC04A"></path>
                <g transform="translate(0.000000, 23.442368)" fill="#6CC04A" id="Shape">
                    <path d="M14.3448513,26.6588785 L6.76335194,24.8598131 C5.39977292,24.5327103 5.5634024,22.8426791 6.92698142,22.8426791 L10.7995458,22.8971963 C12.0540385,22.8971963 12.3267543,21.4252336 11.181348,20.9345794 L5.5634024,18.6993769 C4.47253918,18.2632399 4.63616867,16.8457944 5.78157504,16.7367601 L7.63604251,16.5732087 C8.78144889,16.4641745 8.99962153,15.1012461 7.90875831,14.6105919 L4.74525499,13.2476636 C3.59984861,12.7570093 3.87256442,11.3395639 5.12705711,11.2850467 C6.27246349,11.2850467 6.59972246,9.92211838 5.5634024,9.37694704 L0.763604251,6.86915888 C-0.218172643,6.37850467 5.4872773e-14,5.12461059 1.09086322,4.96105919 L3.054417,4.74299065 C4.19982338,4.57943925 4.3089097,3.2165109 3.21804649,2.78037383 L1.69083798,2.18068536 C0.436345286,1.69003115 0.872690573,0.054517134 2.23626959,0.218068536 L8.12693096,1.14485981 C8.45418992,1.19937695 8.72690573,1.36292835 8.94507837,1.58099688 C10.6359164,3.65264798 11.6176932,13.1931464 15.7084303,25.8411215 C15.8720598,26.4953271 14.9448261,26.7679128 14.3448513,26.6588785 Z"></path>
                    <path d="M18.98102,49.0109034 L11.3995206,47.1573209 C10.0359416,46.8302181 10.2541142,45.0856698 11.6176932,45.1401869 L15.4902577,45.2492212 C16.7447504,45.3037383 17.0720093,43.7772586 15.8720598,43.2866044 L10.2541142,40.9968847 C9.16325101,40.5607477 9.3268805,39.1433022 10.52683,39.0342679 L12.3812975,38.9252336 C13.5267039,38.8707165 13.7448765,37.453271 12.6540133,37.017134 L9.49050998,35.6542056 C8.3451036,35.1635514 8.67236257,33.6915888 9.8723121,33.6915888 C11.0177185,33.6915888 11.3995206,32.3831776 10.3632006,31.7834891 L5.61794556,29.2211838 C4.63616867,28.6760125 4.90888447,27.4766355 5.94520453,27.3676012 L7.90875831,27.1495327 C9.05416469,27.0404984 9.21779417,25.623053 8.12693096,25.1869159 L6.59972246,24.5872274 C5.34522976,24.0420561 5.8361182,22.4065421 7.14515406,22.6791277 L13.0358154,23.6604361 C13.3630744,23.7149533 13.6357902,23.8785047 13.8539628,24.0965732 C15.5448008,26.2227414 16.3629482,35.7632399 20.2900558,48.411215 C20.5627716,48.847352 19.6355379,49.1199377 18.98102,49.0109034 Z"></path>
                    <path d="M22.9081275,72.2352025 L15.3266282,70.3816199 C13.9630492,70.0545171 14.1812218,68.3099688 15.5448008,68.364486 L19.4173652,68.4735202 C20.6718579,68.5280374 20.9991169,67.0015576 19.7991674,66.5109034 L14.1812218,64.2211838 C13.0903586,63.7850467 13.2539881,62.3676012 14.4539376,62.258567 L16.3084051,62.1495327 C17.4538115,62.0950156 17.6719841,60.6775701 16.5811209,60.241433 L13.4176176,58.8785047 C12.2722112,58.3878505 12.5994701,56.9158879 13.7994197,56.9158879 C14.9448261,56.9158879 15.3266282,55.6074766 14.2903081,55.0077882 L9.54505314,52.4454829 C8.56327624,51.9003115 8.83599205,50.7009346 9.8723121,50.5919003 L11.8358659,50.3738318 C12.9812723,50.2647975 13.1449018,48.847352 12.0540385,48.411215 L10.52683,47.8115265 C9.27233733,47.3208723 9.76322578,45.6308411 11.0722616,45.9034268 L16.962923,46.8847352 C17.290182,46.9392523 17.5628978,47.1028037 17.7810704,47.3208723 C19.4719084,49.4470405 20.2900558,58.9875389 24.2171634,71.635514 C24.435336,72.1261682 23.5081023,72.3987539 22.9081275,72.2352025 Z"></path>
                </g>
                <g transform="translate(9.272337, 20.716511)" fill="#6CC04A" id="Shape">
                    <path d="M5.72703188,29.2211838 L11.8358659,24.423676 C12.9267291,23.5514019 12.0540385,22.0794393 10.854089,22.6791277 L7.36332671,24.3691589 C6.21792033,24.9143302 5.34522976,23.6604361 6.21792033,22.7336449 L10.4177437,18.3722741 C11.2358911,17.5 10.4722869,16.3006231 9.38142366,16.682243 L7.63604251,17.3364486 C6.5451793,17.7180685 5.78157504,16.5732087 6.59972246,15.7009346 L8.89053521,13.1386293 C9.70868262,12.211838 8.83599205,11.0124611 7.74512883,11.5031153 C6.70880878,11.9937695 5.8361182,10.9034268 6.5451793,9.97663551 L9.81776894,5.66978193 C10.4722869,4.79750779 9.76322578,3.76168224 8.72690573,4.08878505 L6.8178951,4.68847352 C5.72703188,5.01557632 5.01797079,3.87071651 5.8361182,2.99844237 L6.98152458,1.79906542 C7.90875831,0.817757009 6.8178951,-0.490654206 5.67248872,0.27258567 L0.70906109,3.59813084 C0.436345286,3.76168224 0.272715804,4.03426791 0.163629482,4.30685358 C-0.490888447,6.92367601 2.67261488,15.9735202 4.25436654,29.1666667 C4.25436654,29.711838 5.23614344,29.6028037 5.72703188,29.2211838 Z"></path>
                    <path d="M10.854089,51.4641745 L16.9083798,46.5576324 C17.9992431,45.6853583 17.1265525,44.2133956 15.8720598,44.8130841 L12.3812975,46.5576324 C11.2358911,47.1028037 10.3632006,45.8489097 11.2358911,44.9221184 L15.3811713,40.5062305 C16.1993188,39.6339564 15.4357145,38.4345794 14.3448513,38.8707165 L12.5994701,39.5249221 C11.5086069,39.9610592 10.7450027,38.7616822 11.5086069,37.8894081 L13.7994197,35.3271028 C14.6175671,34.4003115 13.7448765,33.2009346 12.6540133,33.7461059 C11.6176932,34.2367601 10.7450027,33.1464174 11.3995206,32.2196262 L14.6175671,27.9127726 C15.272085,27.0404984 14.5630239,26.0046729 13.5267039,26.3317757 L11.6722364,26.9859813 C10.5813732,27.3676012 9.8723121,26.1682243 10.6904595,25.2959502 L11.8358659,24.0965732 C12.7630996,23.1152648 11.6176932,21.8068536 10.52683,22.5700935 L5.61794556,25.9501558 C5.34522976,26.1137072 5.18160028,26.3862928 5.07251395,26.7133956 C4.41799602,29.3302181 7.69058567,38.3255452 9.43596682,51.5186916 C9.38142366,51.9548287 10.3632006,51.8457944 10.854089,51.4641745 Z"></path>
                    <path d="M15.1629987,74.1978193 L21.2172895,69.2912773 C22.3081528,68.4190031 21.4354622,66.9470405 20.1809695,67.546729 L16.6902072,69.2912773 C15.5448008,69.8364486 14.6721103,68.5825545 15.5448008,67.6557632 L19.690081,63.2398754 C20.5082285,62.3676012 19.7446242,61.1682243 18.653761,61.6043614 L16.9083798,62.258567 C15.8175166,62.694704 15.0539124,61.4953271 15.8175166,60.623053 L18.1083294,58.0607477 C18.9264768,57.1339564 18.0537862,55.9345794 16.962923,56.4797508 C15.926603,56.970405 15.0539124,55.8800623 15.7084303,54.953271 L18.9264768,50.6464174 C19.5809947,49.7741433 18.8719336,48.7383178 17.8356136,49.0654206 L15.9811461,49.7196262 C14.8902829,50.1012461 14.1812218,48.9018692 14.9993692,48.029595 L16.1447756,46.8302181 C17.0720093,45.8489097 15.926603,44.5404984 14.8357397,45.3037383 L9.92685526,48.6838006 C9.65413946,48.847352 9.49050998,49.1199377 9.38142366,49.4470405 C8.72690573,52.0638629 11.9994954,61.05919 13.7448765,74.2523364 C13.7448765,74.6884735 14.6721103,74.5794393 15.1629987,74.1978193 Z"></path>
                </g>
                <g transform="translate(25.635286, 5.451713)" fill="#6CC04A" id="Shape">
                    <path d="M21.9808938,23.8785047 L29.7805658,23.7149533 C31.1441448,23.6604361 31.3623175,21.970405 29.9987384,21.6978193 L26.1807172,20.9345794 C24.9262245,20.7165109 24.9807676,19.135514 26.2352603,18.9719626 L32.235008,17.9906542 C33.4349576,17.7725857 33.5440439,16.3551402 32.3986375,16.0280374 L30.5987132,15.482866 C29.50785,15.1557632 29.5623931,13.7383178 30.7623427,13.5202492 L34.1440187,12.8660436 C35.3439682,12.6479751 35.3985114,11.1760125 34.1985618,10.9034268 C33.0531554,10.6308411 32.9986123,9.26791277 34.1440187,8.94080997 L39.3256189,7.46884735 C40.361939,7.19626168 40.4164821,5.88785047 39.3801621,5.56074766 L37.5256946,4.90654206 C36.4348314,4.52492212 36.5984609,3.16199377 37.7438673,2.94392523 L39.3801621,2.67133956 C40.7437411,2.45327103 40.6346548,0.763239875 39.2710758,0.654205607 L33.3258712,0.327102804 C32.9986123,0.327102804 32.6713533,0.381619938 32.4531807,0.599688474 C30.3259974,2.28971963 27.4352099,11.4485981 20.8354874,22.9517134 C20.5082285,23.3878505 21.380919,23.8785047 21.9808938,23.8785047 Z"></path>
                    <path d="M12.8721859,45.7943925 L20.6173148,45.0311526 C21.9808938,44.9221184 22.0899801,43.1775701 20.7264011,43.0140187 L16.8538367,42.5233645 C15.599344,42.3598131 15.5448008,40.8333333 16.7447504,40.5607477 L22.6354117,39.1433022 C23.7808181,38.8707165 23.8353613,37.453271 22.6899549,37.1806854 L20.8900306,36.7990654 C19.7446242,36.5264798 19.7446242,35.1635514 20.8900306,34.8364486 L24.2171634,33.9096573 C25.4171129,33.5825545 25.3080266,32.1105919 24.1080771,31.9470405 C22.9626707,31.7834891 22.7990412,30.4205607 23.8899044,29.9844237 L28.9624184,28.1308411 C29.9987384,27.7492212 29.9441953,26.4953271 28.9078752,26.2227414 L26.9988646,25.7320872 C25.9080014,25.4595016 25.9625445,24.0420561 27.0534078,23.7694704 L28.6351594,23.3878505 C29.9441953,23.0607477 29.7260226,21.3707165 28.3624436,21.3707165 L22.4172391,21.4797508 C22.0899801,21.4797508 21.7627212,21.588785 21.5445485,21.8068536 C19.5809947,23.6604361 17.3447251,32.982866 11.6176932,44.9221184 C11.3995206,45.4127726 12.2722112,45.8489097 12.8721859,45.7943925 Z"></path>
                    <path d="M6.65426562,68.0373832 L14.235765,66.2928349 C15.599344,65.9657321 15.4357145,64.2757009 14.0721355,64.2757009 L10.1995711,64.3302181 C8.94507837,64.3302181 8.67236257,62.8037383 9.8723121,62.3676012 L15.5448008,60.1869159 C16.635664,59.7507788 16.5265777,58.3333333 15.3266282,58.2242991 L13.4721607,58.0607477 C12.3267543,57.9517134 12.1085817,56.588785 13.1994449,56.0981308 L16.3629482,54.7897196 C17.5083546,54.2990654 17.2356388,52.8816199 16.0356893,52.8271028 C14.8902829,52.8271028 14.5630239,51.4641745 15.599344,50.9190031 L20.3991421,48.411215 C21.380919,47.9205607 21.1627464,46.6666667 20.0718832,46.5031153 L18.1083294,46.2305296 C16.962923,46.0669782 16.8538367,44.7040498 17.9446999,44.2679128 L19.4719084,43.6682243 C20.7264011,43.1775701 20.2900558,41.5420561 18.9264768,41.7056075 L13.0358154,42.5778816 C12.7085565,42.6323988 12.4358407,42.7959502 12.217668,43.0140187 C10.4722869,45.0856698 9.49050998,54.6261682 5.34522976,67.2196262 C5.12705711,67.8738318 6.05429085,68.1464174 6.65426562,68.0373832 Z"></path>
                    <path d="M1.69083798,92.4065421 L9.16325101,90.1713396 C10.4722869,89.7897196 10.2541142,88.0996885 8.89053521,88.1542056 L5.01797079,88.4267913 C3.76347809,88.5358255 3.38167597,87.0093458 4.52708235,86.5186916 L10.0359416,83.9563863 C11.1268048,83.4657321 10.854089,82.0482866 9.70868262,82.0482866 L7.85421515,81.9937695 C6.70880878,81.9392523 6.43609297,80.576324 7.47241303,80.0856698 L10.52683,78.55919 C11.6176932,78.0140187 11.2904343,76.5965732 10.0359416,76.6510903 C8.89053521,76.7056075 8.45418992,75.3971963 9.49050998,74.7975078 L14.1266786,72.017134 C15.0539124,71.4719626 14.7811966,70.2180685 13.6903334,70.1635514 L11.7267796,70.0545171 C10.5813732,70 10.3632006,68.6370717 11.4540638,68.1464174 L12.9812723,67.4376947 C14.235765,66.8380062 13.6903334,65.2570093 12.3267543,65.529595 L6.49063613,66.7834891 C6.16337717,66.8380062 5.89066137,67.0015576 5.72703188,67.2741433 C4.14528022,69.4548287 3.76347809,79.0498442 0.381802126,91.8613707 C0.163629482,92.3520249 1.09086322,92.5700935 1.69083798,92.4065421 Z"></path>
                </g>
                <g transform="translate(18.544675, 0.000000)" id="Shape">
                    <path d="M25.1443971,28.5124611 L20.344599,22.4065421 C19.4719084,21.3161994 20.6718579,20.0623053 21.708178,20.9345794 L24.7080518,23.3878505 C25.6898287,24.2056075 26.8352351,23.1697819 26.1807172,22.0794393 L23.1263002,16.8457944 C22.5263254,15.8099688 23.5626455,14.8286604 24.5444224,15.482866 L26.0716309,16.5186916 C27.0534078,17.1728972 28.0351846,16.1915888 27.489753,15.1557632 L25.8534582,12.1573209 C25.2534834,11.0669782 26.3988898,10.1401869 27.3261236,10.8489097 C28.2533573,11.5576324 29.3442205,10.7398754 28.8533321,9.64953271 L26.6716056,4.68847352 C26.2352603,3.70716511 27.1624941,2.83489097 28.0897278,3.43457944 L29.7805658,4.47040498 C30.7623427,5.07009346 31.7441196,4.08878505 31.1441448,3.0529595 L30.3259974,1.63551402 C29.6169363,0.436137072 31.0350585,-0.54517134 31.9622922,0.436137072 L35.9984861,4.79750779 C36.2166588,5.01557632 36.3257451,5.34267913 36.3257451,5.6152648 C36.3802882,8.3411215 31.1441448,16.3551402 26.5079761,28.7850467 C26.3988898,29.3302181 25.5261993,29.0031153 25.1443971,28.5124611 Z" fill="#6ABF4B"></path>
                    <path d="M15.4357145,51.9003115 L10.3086574,46.0124611 C9.38142366,44.9766355 10.52683,43.6682243 11.6176932,44.4859813 L14.7266534,46.7757009 C15.7629735,47.5389408 16.8538367,46.4485981 16.1447756,45.4127726 L12.8721859,40.3426791 C12.217668,39.3613707 13.1994449,38.271028 14.1812218,38.8707165 L15.7629735,39.8520249 C16.7447504,40.4517134 17.7265273,39.4158879 17.1265525,38.4345794 L15.3266282,35.4906542 C14.6721103,34.4548287 15.7629735,33.4190031 16.7447504,34.1277259 C17.6719841,34.7819315 18.7628473,33.9096573 18.2174157,32.8738318 L15.8175166,28.0218069 C15.3266282,27.0404984 16.2538619,26.1682243 17.1810956,26.6588785 L18.9264768,27.5856698 C19.9627968,28.1308411 20.8354874,27.0950156 20.2355127,26.1137072 L19.3628221,24.7507788 C18.5992178,23.605919 19.9627968,22.5155763 20.9445737,23.4968847 L25.1989403,27.694704 C25.4171129,27.9127726 25.5807424,28.2398754 25.5807424,28.5124611 C25.7443719,31.1838006 20.9445737,39.5249221 16.9083798,52.1183801 C16.7992935,52.6635514 15.8720598,52.3909657 15.4357145,51.9003115 Z" fill="#6ABF4B"></path>
                    <path d="M10.3086574,76.4875389 L4.25436654,71.5809969 C3.16350333,70.7087227 4.09073706,69.2367601 5.2906866,69.8364486 L8.78144889,71.5809969 C9.92685526,72.1261682 10.7995458,70.9267913 9.98139842,70 L5.89066137,65.529595 C5.07251395,64.6573209 5.8361182,63.4579439 6.98152458,63.894081 L8.72690573,64.5482866 C9.81776894,64.9844237 10.5813732,63.7850467 9.81776894,62.9127726 L7.58149935,60.3504673 C6.76335194,59.423676 7.63604251,58.2242991 8.78144889,58.7694704 C9.81776894,59.2601246 10.6904595,58.2242991 10.0359416,57.2429907 L6.8178951,52.8816199 C6.16337717,52.0093458 6.92698142,50.9735202 7.90875831,51.3006231 L9.76322578,51.9548287 C10.854089,52.3364486 11.5631501,51.1370717 10.7995458,50.2647975 L9.65413946,49.0654206 C8.72690573,48.029595 9.8723121,46.7757009 11.0177185,47.5389408 L15.926603,50.9190031 C16.1993188,51.0825545 16.3629482,51.3551402 16.4720346,51.682243 C17.0720093,54.2990654 13.7994197,63.2943925 11.9449522,76.4330218 C11.7813227,77.0327103 10.7995458,76.8691589 10.3086574,76.4875389 Z" fill="#6ABF4B"></path>
                    <path d="M7.03606774,101.510903 L0.818147412,96.8224299 C-0.272715804,96.0046729 0.545431608,94.4781931 1.79992431,95.0233645 L5.34522976,96.6043614 C6.49063613,97.1495327 7.36332671,95.8411215 6.43609297,94.9688474 L2.18172643,90.6619938 C1.30903586,89.7897196 2.07264011,88.5903427 3.16350333,88.9719626 L4.90888447,89.5716511 C5.99974769,89.953271 6.76335194,88.7538941 5.94520453,87.8816199 L3.59984861,85.3738318 C2.7817012,84.5015576 3.59984861,83.2476636 4.69071183,83.7383178 C5.78157504,84.1744548 6.59972246,83.0841121 5.89066137,82.211838 L2.5089854,78.0140187 C1.85446747,77.1417445 2.5089854,76.105919 3.54530545,76.4330218 L5.45431608,76.9781931 C6.5451793,77.305296 7.19969722,76.105919 6.38154981,75.288162 L5.23614344,74.1433022 C4.25436654,73.1619938 5.34522976,71.8535826 6.49063613,72.5623053 L11.5086069,75.7788162 C11.7813227,75.9423676 11.9994954,76.2149533 12.0540385,76.4875389 C12.7630996,79.1043614 9.81776894,88.2087227 8.50873308,101.401869 C8.50873308,101.94704 7.52695619,101.892523 7.03606774,101.510903 Z" fill="#6CC04A"></path>
                </g>
                <path d="M25.9080014,111.214953 C23.2353865,82.1573209 17.7265273,53.4267913 9.49050998,25.4595016 C8.94507837,23.6604361 6.16337717,24.423676 6.70880878,26.2227414 C14.8902829,53.9719626 20.344599,82.4299065 23.0172139,111.214953 C23.1808433,113.014019 26.126174,113.068536 25.9080014,111.214953 Z" id="Shape" fill="#09A562"></path>
                <path d="M26.9988646,109.088785 C28.4169868,96.0046729 29.835109,82.9205607 32.562267,70.0545171 C35.289425,57.0249221 39.4892484,44.376947 44.8890213,32.2741433 C48.7615857,23.5514019 53.2341249,15.1012461 57.9248368,6.86915888 C58.8520705,5.23364486 56.3430851,3.76168224 55.4158514,5.39719626 C47.6161794,19.0809969 40.5801116,33.3099688 35.5075977,48.2476636 C31.3077743,60.5685358 28.6897026,73.271028 26.8352351,86.1370717 C25.7443719,93.7694704 24.9262245,101.456386 24.1080771,109.088785 C23.8899044,110.942368 26.7806919,110.942368 26.9988646,109.088785 Z" id="Shape" fill="#09A562"></path>
                <path d="M25.4171129,110.88785 C24.0535339,98.8395639 17.8901567,87.9906542 9.27233733,79.6495327 C7.90875831,78.3411215 5.89066137,80.4127726 7.19969722,81.7211838 C15.272085,89.517134 21.2172895,99.6573209 22.4717822,110.88785 C22.6899549,112.741433 25.5807424,112.741433 25.4171129,110.88785 Z" id="Shape" fill="#09A562"></path>
                <path d="M27.1079509,112.41433 C30.871429,98.3489097 37.5256946,85.2102804 46.7434888,73.9252336 C47.9434383,72.5077882 45.8707982,70.4361371 44.6708487,71.8535826 C35.1257956,83.5202492 28.144271,97.0404984 24.2717066,111.596573 C23.7808181,113.450156 26.6170625,114.213396 27.1079509,112.41433 Z" id="Shape" fill="#09A562"></path>
                <ellipse id="Oval" fill="#FF8300" cx="25.6898287" cy="119.44704" rx="13.0903586" ry="8.23208723"></ellipse>
                <ellipse id="Oval" fill="#09A562" cx="25.6898287" cy="113.123053" rx="6.32700665" ry="2.8894081"></ellipse>
                <g transform="translate(15.272085, 118.847352)" id="Shape">
                    <path d="M0.218172643,0.109034268 C0.218172643,0.109034268 3.10896017,5.9423676 15.7084303,3.97975078" fill="#FF8300"></path>
                    <path d="M0.218172643,0.109034268 C0.65451793,0.654205607 1.19994954,1.09034268 1.74538115,1.47196262 C2.01809695,1.69003115 2.34535591,1.85358255 2.61807172,2.01713396 C2.94533068,2.18068536 3.21804649,2.34423676 3.54530545,2.45327103 C4.79979815,2.99844237 6.10883401,3.38006231 7.47241303,3.59813084 C8.12693096,3.76168224 8.83599205,3.76168224 9.49050998,3.87071651 C10.1995711,3.92523364 10.854089,3.92523364 11.5631501,3.97975078 L13.6357902,3.97975078 C14.3448513,3.97975078 15.0539124,3.92523364 15.7629735,3.97975078 C15.1084555,4.19781931 14.3993944,4.30685358 13.6903334,4.47040498 C12.9812723,4.57943925 12.2722112,4.68847352 11.5631501,4.74299065 C10.854089,4.79750779 10.1450279,4.79750779 9.43596682,4.79750779 C8.72690573,4.74299065 8.01784464,4.68847352 7.30878355,4.57943925 C6.59972246,4.47040498 5.89066137,4.25233645 5.18160028,4.08878505 L4.14528022,3.70716511 C3.81802126,3.54361371 3.49076229,3.38006231 3.16350333,3.2165109 C2.83624436,3.0529595 2.56352856,2.83489097 2.23626959,2.61682243 C1.96355379,2.39875389 1.63629482,2.18068536 1.41812218,1.90809969 C0.927233733,1.30841121 0.490888447,0.763239875 0.218172643,0.109034268 Z" fill="#FCD672"></path>
                </g>
            </g>
            <path d="M12.740026,280.037383 C11.2128175,280.037383 10.012868,278.783489 10.012868,277.311526 L10.012868,246.23676 C10.012868,244.71028 11.2673607,243.510903 12.740026,243.510903 C14.2672345,243.510903 15.467184,244.764798 15.467184,246.23676 L15.467184,277.311526 C15.467184,278.838006 14.2672345,280.037383 12.740026,280.037383 Z" id="Shape" fill="#9E86B6" fill-rule="nonzero"></path>
        </g>
    </g>
</svg>