<?xml version="1.0" encoding="UTF-8"?>
<svg width="400px" height="400px" viewBox="0 0 400 400" version="1.1" xmlns="http://www.w3.org/2000/svg" xmlns:xlink="http://www.w3.org/1999/xlink">
    <!-- Generator: Sketch 52.5 (67469) - http://www.bohemiancoding.com/sketch -->
    <title>tania-resources</title>
    <desc>Created with Sketch.</desc>
    <g id="tania-resources" stroke="none" stroke-width="1" fill="none" fill-rule="evenodd">
        <g id="dots" transform="translate(10.000000, 10.000000)" fill="#C4E5B6" fill-rule="nonzero">
            <circle id="Oval" cx="6.78571429" cy="6.78571429" r="6.78571429"></circle>
            <circle id="Oval" cx="47.5" cy="6.78571429" r="6.78571429"></circle>
            <circle id="Oval" cx="88.2142857" cy="6.78571429" r="6.78571429"></circle>
            <circle id="Oval" cx="128.928571" cy="6.78571429" r="6.78571429"></circle>
            <circle id="Oval" cx="169.642857" cy="6.78571429" r="6.78571429"></circle>
            <circle id="Oval" cx="210.357143" cy="6.78571429" r="6.78571429"></circle>
            <circle id="Oval" cx="251.071429" cy="6.78571429" r="6.78571429"></circle>
            <circle id="Oval" cx="291.785714" cy="6.78571429" r="6.78571429"></circle>
            <circle id="Oval" cx="332.5" cy="6.78571429" r="6.78571429"></circle>
            <circle id="Oval" cx="373.214286" cy="6.78571429" r="6.78571429"></circle>
            <circle id="Oval" cx="6.78571429" cy="47.5" r="6.78571429"></circle>
            <circle id="Oval" cx="47.5" cy="47.5" r="6.78571429"></circle>
            <circle id="Oval" cx="88.2142857" cy="47.5" r="6.78571429"></circle>
            <circle id="Oval" cx="128.928571" cy="47.5" r="6.78571429"></circle>
            <circle id="Oval" cx="169.642857" cy="47.5" r="6.78571429"></circle>
            <circle id="Oval" cx="210.357143" cy="47.5" r="6.78571429"></circle>
            <circle id="Oval" cx="251.071429" cy="47.5" r="6.78571429"></circle>
            <circle id="Oval" cx="291.785714" cy="47.5" r="6.78571429"></circle>
            <circle id="Oval" cx="332.5" cy="47.5" r="6.78571429"></circle>
            <circle id="Oval" cx="373.214286" cy="47.5" r="6.78571429"></circle>
            <circle id="Oval" cx="6.78571429" cy="88.2142857" r="6.78571429"></circle>
            <circle id="Oval" cx="47.5" cy="88.2142857" r="6.78571429"></circle>
            <circle id="Oval" cx="88.2142857" cy="88.2142857" r="6.78571429"></circle>
            <circle id="Oval" cx="128.928571" cy="88.2142857" r="6.78571429"></circle>
            <circle id="Oval" cx="169.642857" cy="88.2142857" r="6.78571429"></circle>
            <circle id="Oval" cx="210.357143" cy="88.2142857" r="6.78571429"></circle>
            <circle id="Oval" cx="251.071429" cy="88.2142857" r="6.78571429"></circle>
            <circle id="Oval" cx="291.785714" cy="88.2142857" r="6.78571429"></circle>
            <circle id="Oval" cx="332.5" cy="88.2142857" r="6.78571429"></circle>
            <circle id="Oval" cx="373.214286" cy="88.2142857" r="6.78571429"></circle>
            <circle id="Oval" cx="6.78571429" cy="128.928571" r="6.78571429"></circle>
            <circle id="Oval" cx="47.5" cy="128.928571" r="6.78571429"></circle>
            <circle id="Oval" cx="88.2142857" cy="128.928571" r="6.78571429"></circle>
            <circle id="Oval" cx="128.928571" cy="128.928571" r="6.78571429"></circle>
            <circle id="Oval" cx="169.642857" cy="128.928571" r="6.78571429"></circle>
            <circle id="Oval" cx="210.357143" cy="128.928571" r="6.78571429"></circle>
            <circle id="Oval" cx="251.071429" cy="128.928571" r="6.78571429"></circle>
            <circle id="Oval" cx="291.785714" cy="128.928571" r="6.78571429"></circle>
            <circle id="Oval" cx="332.5" cy="128.928571" r="6.78571429"></circle>
            <circle id="Oval" cx="373.214286" cy="128.928571" r="6.78571429"></circle>
            <circle id="Oval" cx="6.78571429" cy="169.642857" r="6.78571429"></circle>
            <circle id="Oval" cx="47.5" cy="169.642857" r="6.78571429"></circle>
            <circle id="Oval" cx="88.2142857" cy="169.642857" r="6.78571429"></circle>
            <circle id="Oval" cx="128.928571" cy="169.642857" r="6.78571429"></circle>
            <circle id="Oval" cx="169.642857" cy="169.642857" r="6.78571429"></circle>
            <circle id="Oval" cx="210.357143" cy="169.642857" r="6.78571429"></circle>
            <circle id="Oval" cx="251.071429" cy="169.642857" r="6.78571429"></circle>
            <circle id="Oval" cx="291.785714" cy="169.642857" r="6.78571429"></circle>
            <circle id="Oval" cx="332.5" cy="169.642857" r="6.78571429"></circle>
            <circle id="Oval" cx="373.214286" cy="169.642857" r="6.78571429"></circle>
            <circle id="Oval" cx="6.78571429" cy="210.357143" r="6.78571429"></circle>
            <circle id="Oval" cx="47.5" cy="210.357143" r="6.78571429"></circle>
            <circle id="Oval" cx="88.2142857" cy="210.357143" r="6.78571429"></circle>
            <circle id="Oval" cx="128.928571" cy="210.357143" r="6.78571429"></circle>
            <circle id="Oval" cx="169.642857" cy="210.357143" r="6.78571429"></circle>
            <circle id="Oval" cx="210.357143" cy="210.357143" r="6.78571429"></circle>
            <circle id="Oval" cx="251.071429" cy="210.357143" r="6.78571429"></circle>
            <circle id="Oval" cx="291.785714" cy="210.357143" r="6.78571429"></circle>
            <circle id="Oval" cx="332.5" cy="210.357143" r="6.78571429"></circle>
            <circle id="Oval" cx="373.214286" cy="210.357143" r="6.78571429"></circle>
            <circle id="Oval" cx="6.78571429" cy="251.071429" r="6.78571429"></circle>
            <circle id="Oval" cx="47.5" cy="251.071429" r="6.78571429"></circle>
            <circle id="Oval" cx="88.2142857" cy="251.071429" r="6.78571429"></circle>
            <circle id="Oval" cx="128.928571" cy="251.071429" r="6.78571429"></circle>
            <circle id="Oval" cx="169.642857" cy="251.071429" r="6.78571429"></circle>
            <circle id="Oval" cx="210.357143" cy="251.071429" r="6.78571429"></circle>
            <circle id="Oval" cx="251.071429" cy="251.071429" r="6.78571429"></circle>
            <circle id="Oval" cx="291.785714" cy="251.071429" r="6.78571429"></circle>
            <circle id="Oval" cx="332.5" cy="251.071429" r="6.78571429"></circle>
            <circle id="Oval" cx="373.214286" cy="251.071429" r="6.78571429"></circle>
            <circle id="Oval" cx="6.78571429" cy="291.785714" r="6.78571429"></circle>
            <circle id="Oval" cx="47.5" cy="291.785714" r="6.78571429"></circle>
            <circle id="Oval" cx="88.2142857" cy="291.785714" r="6.78571429"></circle>
            <circle id="Oval" cx="128.928571" cy="291.785714" r="6.78571429"></circle>
            <circle id="Oval" cx="169.642857" cy="291.785714" r="6.78571429"></circle>
            <circle id="Oval" cx="210.357143" cy="291.785714" r="6.78571429"></circle>
            <circle id="Oval" cx="251.071429" cy="291.785714" r="6.78571429"></circle>
            <circle id="Oval" cx="291.785714" cy="291.785714" r="6.78571429"></circle>
            <circle id="Oval" cx="332.5" cy="291.785714" r="6.78571429"></circle>
            <circle id="Oval" cx="373.214286" cy="291.785714" r="6.78571429"></circle>
            <circle id="Oval" cx="6.78571429" cy="332.5" r="6.78571429"></circle>
            <circle id="Oval" cx="47.5" cy="332.5" r="6.78571429"></circle>
            <circle id="Oval" cx="88.2142857" cy="332.5" r="6.78571429"></circle>
            <circle id="Oval" cx="128.928571" cy="332.5" r="6.78571429"></circle>
            <circle id="Oval" cx="169.642857" cy="332.5" r="6.78571429"></circle>
            <circle id="Oval" cx="210.357143" cy="332.5" r="6.78571429"></circle>
            <circle id="Oval" cx="251.071429" cy="332.5" r="6.78571429"></circle>
            <circle id="Oval" cx="291.785714" cy="332.5" r="6.78571429"></circle>
            <circle id="Oval" cx="332.5" cy="332.5" r="6.78571429"></circle>
            <circle id="Oval" cx="373.214286" cy="332.5" r="6.78571429"></circle>
            <circle id="Oval" cx="6.78571429" cy="373.214286" r="6.78571429"></circle>
            <circle id="Oval" cx="47.5" cy="373.214286" r="6.78571429"></circle>
            <circle id="Oval" cx="88.2142857" cy="373.214286" r="6.78571429"></circle>
            <circle id="Oval" cx="128.928571" cy="373.214286" r="6.78571429"></circle>
            <circle id="Oval" cx="169.642857" cy="373.214286" r="6.78571429"></circle>
            <circle id="Oval" cx="210.357143" cy="373.214286" r="6.78571429"></circle>
            <circle id="Oval" cx="251.071429" cy="373.214286" r="6.78571429"></circle>
            <circle id="Oval" cx="291.785714" cy="373.214286" r="6.78571429"></circle>
            <circle id="Oval" cx="332.5" cy="373.214286" r="6.78571429"></circle>
            <circle id="Oval" cx="373.214286" cy="373.214286" r="6.78571429"></circle>
        </g>
        <g id="icon" transform="translate(37.000000, 10.000000)">
            <path d="M0.982142857,374.015748 L324.017857,374.015748" id="Shape" stroke="#FF8300" stroke-width="8.97637795"></path>
            <g id="Group-3" transform="translate(3.000000, 0.000000)">
                <rect id="Rectangle-path" fill="#755399" fill-rule="nonzero" x="15.9285714" y="158.582677" width="71.7857143" height="215.433071"></rect>
                <rect id="Rectangle-path" fill="#755399" fill-rule="nonzero" x="123.607143" y="230.393701" width="71.7857143" height="143.622047"></rect>
                <rect id="Rectangle-path" fill="#755399" fill-rule="nonzero" x="231.285714" y="122.677165" width="71.7857143" height="251.338583"></rect>
                <rect id="Rectangle-path" fill="#6CC04A" fill-rule="nonzero" x="15.9285714" y="158.582677" width="71.7857143" height="65.8267717"></rect>
                <rect id="Rectangle-path" fill="#6CC04A" fill-rule="nonzero" x="231.285714" y="122.677165" width="71.7857143" height="101.732283"></rect>
                <ellipse id="Oval" fill="#09A562" fill-rule="nonzero" cx="51.8214286" cy="84.976378" rx="50.8482143" ry="50.8661417"></ellipse>
                <polygon id="Shape" fill="#09A562" fill-rule="nonzero" points="51.8214286 147.811024 68.3919643 119.086614 35.2508929 119.086614"></polygon>
                <ellipse id="Oval" fill="#09A562" fill-rule="nonzero" cx="159.5" cy="152.598425" rx="50.8482143" ry="50.8661417"></ellipse>
                <polygon id="Shape" fill="#09A562" fill-rule="nonzero" points="159.5 215.433071 176.070536 186.708661 142.929464 186.708661"></polygon>
                <ellipse id="Oval" fill="#09A562" fill-rule="nonzero" cx="267.178571" cy="50.8661417" rx="50.8482143" ry="50.8661417"></ellipse>
                <polygon id="Shape" fill="#09A562" fill-rule="nonzero" points="267.178571 113.700787 283.749107 84.976378 250.608036 84.976378"></polygon>
                <g id="Group" transform="translate(30.883929, 59.244094)">
                    <path d="M38.2857143,48.2929134 C38.2857143,48.2929134 54.4973214,13.584252 0.478571429,0.0598425197 C0.478571429,0.119685039 -3.52946429,53.080315 38.2857143,48.2929134 Z" id="Shape" fill="#D2EA8E" fill-rule="nonzero"></path>
                    <path d="M38.2857143,48.2929134 L6.16160714,7.24094488" id="Shape" stroke="#00BC70" stroke-width="1.63094803" stroke-linecap="round"></path>
                    <polyline id="Shape" stroke="#00BC70" stroke-width="1.63094803" stroke-linecap="round" points="18.6044643 9.45511811 15.6133929 19.3291339 5.74285714 19.6283465"></polyline>
                    <polyline id="Shape" stroke="#00BC70" stroke-width="1.63094803" stroke-linecap="round" points="29.0732143 17.9527559 23.6294643 29.5622047 10.1098214 31.5968504"></polyline>
                    <polyline id="Shape" stroke="#00BC70" stroke-width="1.63094803" stroke-linecap="round" points="36.6705357 30.4598425 32.0642857 40.3937008 20.5785714 41.8897638"></polyline>
                </g>
                <path d="M161.653571,131.533858 C161.115179,130.815748 160.277679,130.456693 159.440179,130.456693 C158.602679,130.456693 157.765179,130.875591 157.226786,131.533858 C152.919643,137.159055 142.929464,150.922835 142.929464,158.223622 C142.929464,167.319685 150.347321,174.740157 159.440179,174.740157 C168.533036,174.740157 175.950893,167.319685 175.950893,158.223622 C175.950893,150.982677 165.960714,137.159055 161.653571,131.533858 Z M159.440179,166.362205 C158.483036,166.362205 157.645536,165.584252 157.645536,164.566929 C157.645536,163.549606 158.423214,162.771654 159.440179,162.771654 C161.952679,162.771654 163.926786,160.737008 163.926786,158.283465 C163.926786,157.325984 164.704464,156.488189 165.721429,156.488189 C166.678571,156.488189 167.516071,157.266142 167.516071,158.283465 C167.516071,162.771654 163.926786,166.362205 159.440179,166.362205 Z" id="Shape" fill="#D2EA8E" fill-rule="nonzero"></path>
                <path d="M289.611607,49.9685039 C289.611607,62.3559055 279.561607,72.4094488 267.178571,72.4094488 C254.795536,72.4094488 244.745536,62.3559055 244.745536,49.9685039 C244.745536,37.5811024 260.358929,34.4094488 267.178571,34.4094488 C273.998214,34.4094488 289.611607,37.5811024 289.611607,49.9685039 Z" id="Shape" fill="#D2EA8E" fill-rule="nonzero"></path>
                <g id="Group" transform="translate(255.812500, 20.944882)">
                    <path d="M10.5883929,13.1055118 C10.5883929,13.1055118 15.0151786,3.6503937 0.299107143,0 C0.358928571,0 -0.717857143,14.4220472 10.5883929,13.1055118 Z" id="Shape" fill="#D2EA8E" fill-rule="nonzero"></path>
                    <path d="M10.5883929,13.1055118 L1.91428571,1.97480315" id="Shape" stroke="#00BC70" stroke-width="0.5" stroke-linecap="round"></path>
                    <polyline id="Shape" stroke="#00BC70" stroke-width="0.5" stroke-linecap="round" points="5.26428571 2.57322835 4.42678571 5.26614173 1.79464286 5.32598425"></polyline>
                    <polyline id="Shape" stroke="#00BC70" stroke-width="0.5" stroke-linecap="round" points="8.13571429 4.84724409 6.64017857 8.01889764 2.93125 8.55748031"></polyline>
                    <polyline id="Shape" stroke="#00BC70" stroke-width="0.5" stroke-linecap="round" points="10.1696429 8.25826772 8.91339286 10.9511811 5.80267857 11.3700787"></polyline>
                </g>
                <g id="Group" transform="translate(266.580357, 26.929134)">
                    <path d="M0.598214286,7.0015748 C0.598214286,7.0015748 6.64017857,9.81417323 8.97321429,0.418897638 C8.97321429,0.418897638 -0.239285714,-0.239370079 0.598214286,7.0015748 Z" id="Shape" fill="#D2EA8E" fill-rule="nonzero"></path>
                    <path d="M0.598214286,7.0015748 L7.77678571,1.43622047" id="Shape" stroke="#00BC70" stroke-width="0.5" stroke-linecap="round"></path>
                    <polyline id="Shape" stroke="#00BC70" stroke-width="0.5" stroke-linecap="round" points="7.35803571 3.59055118 5.62321429 3.0519685 5.56339286 1.37637795"></polyline>
                    <polyline id="Shape" stroke="#00BC70" stroke-width="0.5" stroke-linecap="round" points="5.8625 5.44566929 3.88839286 4.48818898 3.52946429 2.09448819"></polyline>
                    <polyline id="Shape" stroke="#00BC70" stroke-width="0.5" stroke-linecap="round" points="3.70892857 6.76220472 1.97410714 5.92440945 1.73482143 3.9496063"></polyline>
                </g>
            </g>
            <g id="Group" transform="translate(6.366071, 226.803150)" stroke="#FFD600" stroke-linecap="round" stroke-width="5.98425197">
                <path d="M0.299107143,0.299212598 L9.27232143,0.299212598" id="Shape"></path>
                <path d="M26.8598214,0.299212598 L299.585714,0.299212598" id="Shape" stroke-dasharray="17.60076202392578,17.60076202392578"></path>
                <path d="M308.379464,0.299212598 L317.352679,0.299212598" id="Shape"></path>
            </g>
        </g>
    </g>
</svg>