<?xml version="1.0" encoding="UTF-8"?>
<svg width="400px" height="400px" viewBox="0 0 400 400" version="1.1" xmlns="http://www.w3.org/2000/svg" xmlns:xlink="http://www.w3.org/1999/xlink">
    <!-- Generator: Sketch 52.5 (67469) - http://www.bohemiancoding.com/sketch -->
    <title>tania-activities</title>
    <desc>Created with Sketch.</desc>
    <g id="tania-activities" stroke="none" stroke-width="1" fill="none" fill-rule="evenodd">
        <g id="dots" transform="translate(10.000000, 10.000000)" fill="#C4E5B6" fill-rule="nonzero">
            <circle id="Oval" cx="6.78571429" cy="6.78571429" r="6.78571429"></circle>
            <circle id="Oval" cx="47.5" cy="6.78571429" r="6.78571429"></circle>
            <circle id="Oval" cx="88.2142857" cy="6.78571429" r="6.78571429"></circle>
            <circle id="Oval" cx="128.928571" cy="6.78571429" r="6.78571429"></circle>
            <circle id="Oval" cx="169.642857" cy="6.78571429" r="6.78571429"></circle>
            <circle id="Oval" cx="210.357143" cy="6.78571429" r="6.78571429"></circle>
            <circle id="Oval" cx="251.071429" cy="6.78571429" r="6.78571429"></circle>
            <circle id="Oval" cx="291.785714" cy="6.78571429" r="6.78571429"></circle>
            <circle id="Oval" cx="332.5" cy="6.78571429" r="6.78571429"></circle>
            <circle id="Oval" cx="373.214286" cy="6.78571429" r="6.78571429"></circle>
            <circle id="Oval" cx="6.78571429" cy="47.5" r="6.78571429"></circle>
            <circle id="Oval" cx="47.5" cy="47.5" r="6.78571429"></circle>
            <circle id="Oval" cx="88.2142857" cy="47.5" r="6.78571429"></circle>
            <circle id="Oval" cx="128.928571" cy="47.5" r="6.78571429"></circle>
            <circle id="Oval" cx="169.642857" cy="47.5" r="6.78571429"></circle>
            <circle id="Oval" cx="210.357143" cy="47.5" r="6.78571429"></circle>
            <circle id="Oval" cx="251.071429" cy="47.5" r="6.78571429"></circle>
            <circle id="Oval" cx="291.785714" cy="47.5" r="6.78571429"></circle>
            <circle id="Oval" cx="332.5" cy="47.5" r="6.78571429"></circle>
            <circle id="Oval" cx="373.214286" cy="47.5" r="6.78571429"></circle>
            <circle id="Oval" cx="6.78571429" cy="88.2142857" r="6.78571429"></circle>
            <circle id="Oval" cx="47.5" cy="88.2142857" r="6.78571429"></circle>
            <circle id="Oval" cx="88.2142857" cy="88.2142857" r="6.78571429"></circle>
            <circle id="Oval" cx="128.928571" cy="88.2142857" r="6.78571429"></circle>
            <circle id="Oval" cx="169.642857" cy="88.2142857" r="6.78571429"></circle>
            <circle id="Oval" cx="210.357143" cy="88.2142857" r="6.78571429"></circle>
            <circle id="Oval" cx="251.071429" cy="88.2142857" r="6.78571429"></circle>
            <circle id="Oval" cx="291.785714" cy="88.2142857" r="6.78571429"></circle>
            <circle id="Oval" cx="332.5" cy="88.2142857" r="6.78571429"></circle>
            <circle id="Oval" cx="373.214286" cy="88.2142857" r="6.78571429"></circle>
            <circle id="Oval" cx="6.78571429" cy="128.928571" r="6.78571429"></circle>
            <circle id="Oval" cx="47.5" cy="128.928571" r="6.78571429"></circle>
            <circle id="Oval" cx="88.2142857" cy="128.928571" r="6.78571429"></circle>
            <circle id="Oval" cx="128.928571" cy="128.928571" r="6.78571429"></circle>
            <circle id="Oval" cx="169.642857" cy="128.928571" r="6.78571429"></circle>
            <circle id="Oval" cx="210.357143" cy="128.928571" r="6.78571429"></circle>
            <circle id="Oval" cx="251.071429" cy="128.928571" r="6.78571429"></circle>
            <circle id="Oval" cx="291.785714" cy="128.928571" r="6.78571429"></circle>
            <circle id="Oval" cx="332.5" cy="128.928571" r="6.78571429"></circle>
            <circle id="Oval" cx="373.214286" cy="128.928571" r="6.78571429"></circle>
            <circle id="Oval" cx="6.78571429" cy="169.642857" r="6.78571429"></circle>
            <circle id="Oval" cx="47.5" cy="169.642857" r="6.78571429"></circle>
            <circle id="Oval" cx="88.2142857" cy="169.642857" r="6.78571429"></circle>
            <circle id="Oval" cx="128.928571" cy="169.642857" r="6.78571429"></circle>
            <circle id="Oval" cx="169.642857" cy="169.642857" r="6.78571429"></circle>
            <circle id="Oval" cx="210.357143" cy="169.642857" r="6.78571429"></circle>
            <circle id="Oval" cx="251.071429" cy="169.642857" r="6.78571429"></circle>
            <circle id="Oval" cx="291.785714" cy="169.642857" r="6.78571429"></circle>
            <circle id="Oval" cx="332.5" cy="169.642857" r="6.78571429"></circle>
            <circle id="Oval" cx="373.214286" cy="169.642857" r="6.78571429"></circle>
            <circle id="Oval" cx="6.78571429" cy="210.357143" r="6.78571429"></circle>
            <circle id="Oval" cx="47.5" cy="210.357143" r="6.78571429"></circle>
            <circle id="Oval" cx="88.2142857" cy="210.357143" r="6.78571429"></circle>
            <circle id="Oval" cx="128.928571" cy="210.357143" r="6.78571429"></circle>
            <circle id="Oval" cx="169.642857" cy="210.357143" r="6.78571429"></circle>
            <circle id="Oval" cx="210.357143" cy="210.357143" r="6.78571429"></circle>
            <circle id="Oval" cx="251.071429" cy="210.357143" r="6.78571429"></circle>
            <circle id="Oval" cx="291.785714" cy="210.357143" r="6.78571429"></circle>
            <circle id="Oval" cx="332.5" cy="210.357143" r="6.78571429"></circle>
            <circle id="Oval" cx="373.214286" cy="210.357143" r="6.78571429"></circle>
            <circle id="Oval" cx="6.78571429" cy="251.071429" r="6.78571429"></circle>
            <circle id="Oval" cx="47.5" cy="251.071429" r="6.78571429"></circle>
            <circle id="Oval" cx="88.2142857" cy="251.071429" r="6.78571429"></circle>
            <circle id="Oval" cx="128.928571" cy="251.071429" r="6.78571429"></circle>
            <circle id="Oval" cx="169.642857" cy="251.071429" r="6.78571429"></circle>
            <circle id="Oval" cx="210.357143" cy="251.071429" r="6.78571429"></circle>
            <circle id="Oval" cx="251.071429" cy="251.071429" r="6.78571429"></circle>
            <circle id="Oval" cx="291.785714" cy="251.071429" r="6.78571429"></circle>
            <circle id="Oval" cx="332.5" cy="251.071429" r="6.78571429"></circle>
            <circle id="Oval" cx="373.214286" cy="251.071429" r="6.78571429"></circle>
            <circle id="Oval" cx="6.78571429" cy="291.785714" r="6.78571429"></circle>
            <circle id="Oval" cx="47.5" cy="291.785714" r="6.78571429"></circle>
            <circle id="Oval" cx="88.2142857" cy="291.785714" r="6.78571429"></circle>
            <circle id="Oval" cx="128.928571" cy="291.785714" r="6.78571429"></circle>
            <circle id="Oval" cx="169.642857" cy="291.785714" r="6.78571429"></circle>
            <circle id="Oval" cx="210.357143" cy="291.785714" r="6.78571429"></circle>
            <circle id="Oval" cx="251.071429" cy="291.785714" r="6.78571429"></circle>
            <circle id="Oval" cx="291.785714" cy="291.785714" r="6.78571429"></circle>
            <circle id="Oval" cx="332.5" cy="291.785714" r="6.78571429"></circle>
            <circle id="Oval" cx="373.214286" cy="291.785714" r="6.78571429"></circle>
            <circle id="Oval" cx="6.78571429" cy="332.5" r="6.78571429"></circle>
            <circle id="Oval" cx="47.5" cy="332.5" r="6.78571429"></circle>
            <circle id="Oval" cx="88.2142857" cy="332.5" r="6.78571429"></circle>
            <circle id="Oval" cx="128.928571" cy="332.5" r="6.78571429"></circle>
            <circle id="Oval" cx="169.642857" cy="332.5" r="6.78571429"></circle>
            <circle id="Oval" cx="210.357143" cy="332.5" r="6.78571429"></circle>
            <circle id="Oval" cx="251.071429" cy="332.5" r="6.78571429"></circle>
            <circle id="Oval" cx="291.785714" cy="332.5" r="6.78571429"></circle>
            <circle id="Oval" cx="332.5" cy="332.5" r="6.78571429"></circle>
            <circle id="Oval" cx="373.214286" cy="332.5" r="6.78571429"></circle>
            <circle id="Oval" cx="6.78571429" cy="373.214286" r="6.78571429"></circle>
            <circle id="Oval" cx="47.5" cy="373.214286" r="6.78571429"></circle>
            <circle id="Oval" cx="88.2142857" cy="373.214286" r="6.78571429"></circle>
            <circle id="Oval" cx="128.928571" cy="373.214286" r="6.78571429"></circle>
            <circle id="Oval" cx="169.642857" cy="373.214286" r="6.78571429"></circle>
            <circle id="Oval" cx="210.357143" cy="373.214286" r="6.78571429"></circle>
            <circle id="Oval" cx="251.071429" cy="373.214286" r="6.78571429"></circle>
            <circle id="Oval" cx="291.785714" cy="373.214286" r="6.78571429"></circle>
            <circle id="Oval" cx="332.5" cy="373.214286" r="6.78571429"></circle>
            <circle id="Oval" cx="373.214286" cy="373.214286" r="6.78571429"></circle>
        </g>
        <g id="icon" transform="translate(16.000000, 10.000000)">
            <g id="Group-2" transform="translate(0.000000, 19.000000)">
                <path d="M47.2254485,47.9368119 L47.2254485,115.998612 C47.2254485,134.617171 62.3488361,149.748265 80.9579117,149.748265 L179.90647,149.748265" id="Shape" stroke="#FF8300" stroke-width="8.43741327"></path>
                <path d="M66.8464979,95.7488204 L28.2228275,95.7488204 C12.7058945,95.7488204 0.056220772,83.0364511 0.056220772,67.5678601 L0.056220772,28.9245074 C0.056220772,13.3996669 12.7621152,0.743547044 28.2228275,0.743547044 L66.8464979,0.743547044 C82.363431,0.743547044 95.0131047,13.4559164 95.0131047,28.9245074 L95.0131047,67.5678601 C95.0131047,83.0364511 82.3072102,95.7488204 66.8464979,95.7488204 Z" id="Shape" fill="#09A562" fill-rule="nonzero"></path>
                <path d="M47.5065523,69.5928393 C35.7001902,69.5928393 26.142659,60.0304376 26.142659,48.218059 C26.142659,36.4056805 35.7001902,26.8432787 47.5065523,26.8432787 C59.3129144,26.8432787 68.8704457,36.4056805 68.8704457,48.218059 C68.8704457,60.0304376 59.3129144,69.5928393 47.5065523,69.5928393 Z M47.5065523,29.0932556 C36.993268,29.0932556 28.3914899,37.6994172 28.3914899,48.218059 C28.3914899,58.7367009 36.993268,67.3428624 47.5065523,67.3428624 C58.0198367,67.3428624 66.6216148,58.7367009 66.6216148,48.218059 C66.6216148,37.6994172 58.0198367,29.0932556 47.5065523,29.0932556 Z" id="Shape" fill="#D2EA8E" fill-rule="nonzero"></path>
                <path d="M47.5065523,76.0615228 C32.1582816,76.0615228 19.6772702,63.5741512 19.6772702,48.218059 C19.6772702,32.8619669 32.1582816,20.3745952 47.5065523,20.3745952 C62.8548231,20.3745952 75.3358345,32.8619669 75.3358345,48.218059 C75.3358345,63.5741512 62.8548231,76.0615228 47.5065523,76.0615228 Z M47.5065523,22.6245721 C33.3951386,22.6245721 21.9261011,34.0994542 21.9261011,48.218059 C21.9261011,62.3366639 33.3951386,73.8115459 47.5065523,73.8115459 C61.6179661,73.8115459 73.0870036,62.3366639 73.0870036,48.218059 C73.0870036,34.0994542 61.6179661,22.6245721 47.5065523,22.6245721 Z" id="Shape" fill="#D2EA8E" fill-rule="nonzero"></path>
                <path d="M47.5065523,82.8114534 C28.4477106,82.8114534 12.9307776,67.286613 12.9307776,48.218059 C12.9307776,29.149505 28.4477106,13.6246646 47.5065523,13.6246646 C66.565394,13.6246646 82.0823271,29.149505 82.0823271,48.218059 C82.0823271,67.286613 66.565394,82.8114534 47.5065523,82.8114534 Z M47.5065523,15.8746415 C29.6845676,15.8746415 15.1796084,30.3869923 15.1796084,48.218059 C15.1796084,66.0491257 29.6845676,80.5614765 47.5065523,80.5614765 C65.328537,80.5614765 79.8334962,66.0491257 79.8334962,48.218059 C79.8334962,30.3869923 65.328537,15.8746415 47.5065523,15.8746415 Z" id="Shape" fill="#D2EA8E" fill-rule="nonzero"></path>
                <polygon id="Shape" fill="#09A562" fill-rule="nonzero" points="47.5065523 47.9368119 68.3644587 11.7684337 26.6486459 11.7684337"></polygon>
                <polygon id="Shape" fill="#09A562" fill-rule="nonzero" points="47.5065523 48.6680544 26.6486459 84.8364326 68.3644587 84.8364326"></polygon>
                <ellipse id="Oval" fill="#D2EA8E" fill-rule="nonzero" cx="47.5065523" cy="48.218059" rx="14.3362969" ry="14.3436026"></ellipse>
            </g>
            <g id="Group-3" transform="translate(151.000000, 0.000000)">
                <path d="M0.796084366,168.748265 L131.5656,168.748265 C152.311065,168.748265 169.177296,151.929688 169.177296,131.117402 L169.177296,81.2804145" id="Shape" stroke="#FF8300" stroke-width="8.43741327"></path>
                <path d="M188.517242,95.0615228 L149.893572,95.0615228 C134.376639,95.0615228 121.726965,82.3491535 121.726965,66.8805625 L121.726965,28.2372097 C121.726965,12.7123693 134.432859,0.0562494218 149.893572,0.0562494218 L188.517242,0.0562494218 C204.034175,0.0562494218 216.683849,12.7686187 216.683849,28.2372097 L216.683849,66.8805625 C216.683849,82.3491535 203.977954,95.0615228 188.517242,95.0615228 Z" id="Shape" fill="#09A562" fill-rule="nonzero"></path>
                <path d="M171.482348,29.1372005 C170.976361,28.4622074 170.18927,28.1247109 169.40218,28.1247109 C168.615089,28.1247109 167.827998,28.5184568 167.322011,29.1372005 C163.274115,34.4246461 153.885246,47.3620131 153.885246,54.2244426 C153.885246,62.7743547 160.856622,69.749283 169.40218,69.749283 C177.947737,69.749283 184.919113,62.7743547 184.919113,54.2244426 C184.919113,47.4182626 175.530244,34.4246461 171.482348,29.1372005 Z M169.40218,61.874364 C168.502647,61.874364 167.715556,61.1431215 167.715556,60.1868813 C167.715556,59.2306411 168.446426,58.4993986 169.40218,58.4993986 C171.763452,58.4993986 173.618737,56.5869183 173.618737,54.280692 C173.618737,53.3807013 174.349607,52.5932094 175.305361,52.5932094 C176.204893,52.5932094 176.991984,53.3244518 176.991984,54.280692 C176.991984,58.4993986 173.618737,61.874364 169.40218,61.874364 Z" id="Shape" fill="#D2EA8E" fill-rule="nonzero"></path>
            </g>
            <path d="M82.0823271,290.247016 L82.0823271,239.510038 C82.0823271,219.035248 98.6112341,202.38542 119.075595,202.32917 L151.514981,202.216671 L253.555682,202.216671 C271.714991,202.216671 286.444833,216.95402 286.444833,235.122583 L286.444833,303.46563" id="Shape" stroke="#FF8300" stroke-width="8.43741327"></path>
            <path d="M308.595817,379.683597 L269.972147,379.683597 C254.455214,379.683597 241.80554,366.971228 241.80554,351.502637 L241.80554,312.859284 C241.80554,297.334444 254.511435,284.678324 269.972147,284.678324 L308.595817,284.678324 C324.112751,284.678324 336.762424,297.390693 336.762424,312.859284 L336.762424,351.502637 C336.762424,366.971228 324.05653,379.683597 308.595817,379.683597 Z" id="Shape" fill="#09A562" fill-rule="nonzero"></path>
            <g id="Group" transform="translate(268.735290, 313.309279)" fill="#D2EA8E" fill-rule="nonzero">
                <path d="M27.3232952,20.6997872 C27.3232952,24.2997502 24.399815,27.2247201 20.8016856,27.2247201 C17.2035562,27.2247201 14.2800761,24.2997502 14.2800761,20.6997872 C14.2800761,17.0998242 17.2035562,14.1748543 20.8016856,14.1748543 C24.399815,14.1748543 27.3232952,17.0998242 27.3232952,20.6997872 Z" id="Shape"></path>
                <path d="M14.6736215,0.337496531 L11.0192713,4.3874549 L4.49766176,4.3874549 C2.24883088,4.3874549 0.449766176,6.1874364 0.449766176,8.43741327 L0.449766176,32.8496623 C0.449766176,35.0996392 2.30505165,36.8996207 4.49766176,36.8996207 L37.0494887,36.8996207 C39.2983196,36.8996207 41.0973843,35.0996392 41.0973843,32.8496623 L41.0973843,8.43741327 C41.0973843,6.1874364 39.2420988,4.3874549 37.0494887,4.3874549 L30.5278792,4.3874549 L26.873529,0.337496531 L14.6736215,0.337496531 Z M20.8016856,30.8809326 C15.1233877,30.8809326 10.6257259,26.3809788 10.6257259,20.6997872 C10.6257259,15.0185956 15.1233877,10.5186419 20.8016856,10.5186419 C26.4799836,10.5186419 30.9776454,15.0185956 30.9776454,20.6997872 C30.9776454,26.4372282 26.4799836,30.8809326 20.8016856,30.8809326 Z" id="Shape"></path>
            </g>
            <path d="M205.037155,307.121843 L132.287476,307.121843 C117.388972,307.121843 105.132844,294.915718 105.132844,279.953372 L105.132844,91.2928115 C105.132844,76.3867148 117.332751,64.1243408 132.287476,64.1243408 L205.093376,64.1243408 C219.991881,64.1243408 232.248009,76.3304654 232.248009,91.2928115 L232.248009,280.009622 C232.191788,294.915718 219.991881,307.121843 205.037155,307.121843 Z" id="Shape" fill="#755399" fill-rule="nonzero"></path>
            <path d="M218.417699,275.622167 L118.906933,275.622167 C115.308803,275.622167 112.441544,272.697197 112.441544,269.153483 L112.441544,98.155241 C112.441544,94.555278 115.365024,91.6865575 118.906933,91.6865575 L218.361478,91.6865575 C221.959608,91.6865575 224.826867,94.6115274 224.826867,98.155241 L224.826867,269.097234 C224.883088,272.697197 221.959608,275.622167 218.417699,275.622167 Z" id="Shape" fill="#E4EFC6" fill-rule="nonzero"></path>
            <ellipse id="Oval" fill="#9E86B6" fill-rule="nonzero" cx="168.662316" cy="290.528263" rx="11.2441544" ry="11.2498844"></ellipse>
            <path d="M183.560821,81.5616616 L159.385889,81.5616616 C158.317694,81.5616616 157.418162,80.6616708 157.418162,79.5929318 C157.418162,78.5241928 158.317694,77.6242021 159.385889,77.6242021 L183.560821,77.6242021 C184.629015,77.6242021 185.528548,78.5241928 185.528548,79.5929318 C185.528548,80.6616708 184.629015,81.5616616 183.560821,81.5616616 Z" id="Shape" fill="#9E86B6" fill-rule="nonzero"></path>
            <path d="M101.141169,354.933851 L62.5174984,354.933851 C47.0005654,354.933851 34.3508917,342.221482 34.3508917,326.752891 L34.3508917,288.109538 C34.3508917,272.584698 47.0567862,259.928578 62.5174984,259.928578 L101.141169,259.928578 C116.658102,259.928578 129.307776,272.640947 129.307776,288.109538 L129.307776,326.752891 C129.307776,342.221482 116.601881,354.933851 101.141169,354.933851 Z" id="Shape" fill="#09A562" fill-rule="nonzero"></path>
            <path d="M95.5753124,304.646868 L95.2379877,304.646868 L95.2379877,301.890647 C95.2379877,299.415672 93.21404,297.390693 90.740326,297.390693 L86.7486512,297.390693 L86.7486512,293.959478 L95.912637,293.959478 C98.8361172,293.959478 101.141169,291.597002 101.141169,288.728282 C101.141169,285.859561 98.7798964,283.497086 95.912637,283.497086 L85.7928981,283.497086 C84.8371449,282.1471 83.2629633,281.247109 81.5201194,281.247109 C79.7772755,281.247109 78.2030938,282.1471 77.2473407,283.497086 L67.1276018,283.497086 C64.2041216,283.497086 61.89907,285.859561 61.89907,288.728282 C61.89907,291.653252 64.2603424,293.959478 67.1276018,293.959478 L76.2915876,293.959478 L76.2915876,297.390693 L72.2999128,297.390693 C69.8261988,297.390693 67.802251,299.415672 67.802251,301.890647 L67.802251,304.646868 L67.4649264,304.646868 C57.5700705,304.646868 49.4742793,312.690536 49.4742793,322.646683 L49.4742793,333.840318 L61.4493038,333.840318 L61.4493038,322.646683 C61.4493038,319.327967 64.1479008,316.627995 67.4649264,316.627995 L67.802251,316.627995 L67.802251,319.384217 C67.802251,321.859191 69.8261988,323.884171 72.2999128,323.884171 L90.740326,323.884171 C93.21404,323.884171 95.2379877,321.859191 95.2379877,319.384217 L95.2379877,316.627995 L95.5753124,316.627995 C98.8923379,316.627995 101.590935,319.327967 101.590935,322.646683 L101.590935,333.840318 L113.565959,333.840318 L113.565959,322.646683 C113.565959,312.690536 105.526389,304.646868 95.5753124,304.646868 Z" id="Shape" fill="#D2EA8E" fill-rule="nonzero"></path>
            <path d="M145.386916,199.966694 C146.061566,200.585438 146.39889,200.754186 147.07354,199.966694 C149.26615,197.604219 151.627422,195.410491 153.876253,193.104265 C154.607123,192.316773 155.281772,192.148025 156.349967,192.373022 C166.975693,194.791748 175.971016,190.68554 180.974665,181.066889 C184.516574,174.316958 185.753431,167.060783 186.034535,159.52336 C186.034535,158.848367 185.865872,158.623369 185.191223,158.679619 C182.942392,158.735868 180.749782,158.904617 178.500951,159.242113 C172.260445,160.198353 166.188602,161.773337 160.903849,165.3733 C152.414513,171.16699 150.671669,179.660653 152.245851,188.041817 C152.526954,189.391803 152.526954,190.404293 151.290097,191.416782 C149.772137,192.59802 148.479059,194.060505 147.185981,195.52299 C146.39889,196.366731 146.061566,196.254233 145.330696,195.410491 C140.608151,189.954297 139.146411,183.429364 139.315073,176.454436 C139.708618,157.55463 158.092811,143.829771 176.308341,148.83597 C189.745105,152.548432 198.684208,164.810806 198.06578,178.704413 C197.447351,192.429272 187.215171,203.904154 173.441082,206.322879 C172.59777,206.491627 171.979342,206.435378 171.248471,205.816634 C170.011614,204.747895 168.156329,205.029142 167.088134,206.322879 C166.01994,207.560366 166.132381,209.416597 167.313017,210.541586 C168.493654,211.666574 170.40516,211.779073 171.473355,210.541586 C172.148004,209.810343 172.878874,209.585346 173.778406,209.416597 C190.307313,206.772874 202.394779,191.64178 201.101701,175.273198 C199.696182,157.892127 185.809651,144.842261 168.381212,144.842261 C166.919472,144.786012 165.120407,144.95476 163.377563,145.236007 C148.310397,147.935979 137.516008,159.57961 136.279151,174.879452 C135.548281,184.498103 138.078216,193.104265 145.386916,199.966694 Z" id="Shape" fill="#09A562" fill-rule="nonzero"></path>
        </g>
    </g>
</svg>