<?xml version="1.0" encoding="UTF-8"?>
<svg width="400px" height="400px" viewBox="0 0 400 400" version="1.1" xmlns="http://www.w3.org/2000/svg" xmlns:xlink="http://www.w3.org/1999/xlink">
    <!-- Generator: Sketch 52.5 (67469) - http://www.bohemiancoding.com/sketch -->
    <title>tania-works</title>
    <desc>Created with Sketch.</desc>
    <g id="tania-works" stroke="none" stroke-width="1" fill="none" fill-rule="evenodd">
        <g id="dots" transform="translate(10.000000, 10.000000)" fill="#C4E5B6" fill-rule="nonzero">
            <circle id="Oval" cx="6.78571429" cy="6.78571429" r="6.78571429"></circle>
            <circle id="Oval" cx="47.5" cy="6.78571429" r="6.78571429"></circle>
            <circle id="Oval" cx="88.2142857" cy="6.78571429" r="6.78571429"></circle>
            <circle id="Oval" cx="128.928571" cy="6.78571429" r="6.78571429"></circle>
            <circle id="Oval" cx="169.642857" cy="6.78571429" r="6.78571429"></circle>
            <circle id="Oval" cx="210.357143" cy="6.78571429" r="6.78571429"></circle>
            <circle id="Oval" cx="251.071429" cy="6.78571429" r="6.78571429"></circle>
            <circle id="Oval" cx="291.785714" cy="6.78571429" r="6.78571429"></circle>
            <circle id="Oval" cx="332.5" cy="6.78571429" r="6.78571429"></circle>
            <circle id="Oval" cx="373.214286" cy="6.78571429" r="6.78571429"></circle>
            <circle id="Oval" cx="6.78571429" cy="47.5" r="6.78571429"></circle>
            <circle id="Oval" cx="47.5" cy="47.5" r="6.78571429"></circle>
            <circle id="Oval" cx="88.2142857" cy="47.5" r="6.78571429"></circle>
            <circle id="Oval" cx="128.928571" cy="47.5" r="6.78571429"></circle>
            <circle id="Oval" cx="169.642857" cy="47.5" r="6.78571429"></circle>
            <circle id="Oval" cx="210.357143" cy="47.5" r="6.78571429"></circle>
            <circle id="Oval" cx="251.071429" cy="47.5" r="6.78571429"></circle>
            <circle id="Oval" cx="291.785714" cy="47.5" r="6.78571429"></circle>
            <circle id="Oval" cx="332.5" cy="47.5" r="6.78571429"></circle>
            <circle id="Oval" cx="373.214286" cy="47.5" r="6.78571429"></circle>
            <circle id="Oval" cx="6.78571429" cy="88.2142857" r="6.78571429"></circle>
            <circle id="Oval" cx="47.5" cy="88.2142857" r="6.78571429"></circle>
            <circle id="Oval" cx="88.2142857" cy="88.2142857" r="6.78571429"></circle>
            <circle id="Oval" cx="128.928571" cy="88.2142857" r="6.78571429"></circle>
            <circle id="Oval" cx="169.642857" cy="88.2142857" r="6.78571429"></circle>
            <circle id="Oval" cx="210.357143" cy="88.2142857" r="6.78571429"></circle>
            <circle id="Oval" cx="251.071429" cy="88.2142857" r="6.78571429"></circle>
            <circle id="Oval" cx="291.785714" cy="88.2142857" r="6.78571429"></circle>
            <circle id="Oval" cx="332.5" cy="88.2142857" r="6.78571429"></circle>
            <circle id="Oval" cx="373.214286" cy="88.2142857" r="6.78571429"></circle>
            <circle id="Oval" cx="6.78571429" cy="128.928571" r="6.78571429"></circle>
            <circle id="Oval" cx="47.5" cy="128.928571" r="6.78571429"></circle>
            <circle id="Oval" cx="88.2142857" cy="128.928571" r="6.78571429"></circle>
            <circle id="Oval" cx="128.928571" cy="128.928571" r="6.78571429"></circle>
            <circle id="Oval" cx="169.642857" cy="128.928571" r="6.78571429"></circle>
            <circle id="Oval" cx="210.357143" cy="128.928571" r="6.78571429"></circle>
            <circle id="Oval" cx="251.071429" cy="128.928571" r="6.78571429"></circle>
            <circle id="Oval" cx="291.785714" cy="128.928571" r="6.78571429"></circle>
            <circle id="Oval" cx="332.5" cy="128.928571" r="6.78571429"></circle>
            <circle id="Oval" cx="373.214286" cy="128.928571" r="6.78571429"></circle>
            <circle id="Oval" cx="6.78571429" cy="169.642857" r="6.78571429"></circle>
            <circle id="Oval" cx="47.5" cy="169.642857" r="6.78571429"></circle>
            <circle id="Oval" cx="88.2142857" cy="169.642857" r="6.78571429"></circle>
            <circle id="Oval" cx="128.928571" cy="169.642857" r="6.78571429"></circle>
            <circle id="Oval" cx="169.642857" cy="169.642857" r="6.78571429"></circle>
            <circle id="Oval" cx="210.357143" cy="169.642857" r="6.78571429"></circle>
            <circle id="Oval" cx="251.071429" cy="169.642857" r="6.78571429"></circle>
            <circle id="Oval" cx="291.785714" cy="169.642857" r="6.78571429"></circle>
            <circle id="Oval" cx="332.5" cy="169.642857" r="6.78571429"></circle>
            <circle id="Oval" cx="373.214286" cy="169.642857" r="6.78571429"></circle>
            <circle id="Oval" cx="6.78571429" cy="210.357143" r="6.78571429"></circle>
            <circle id="Oval" cx="47.5" cy="210.357143" r="6.78571429"></circle>
            <circle id="Oval" cx="88.2142857" cy="210.357143" r="6.78571429"></circle>
            <circle id="Oval" cx="128.928571" cy="210.357143" r="6.78571429"></circle>
            <circle id="Oval" cx="169.642857" cy="210.357143" r="6.78571429"></circle>
            <circle id="Oval" cx="210.357143" cy="210.357143" r="6.78571429"></circle>
            <circle id="Oval" cx="251.071429" cy="210.357143" r="6.78571429"></circle>
            <circle id="Oval" cx="291.785714" cy="210.357143" r="6.78571429"></circle>
            <circle id="Oval" cx="332.5" cy="210.357143" r="6.78571429"></circle>
            <circle id="Oval" cx="373.214286" cy="210.357143" r="6.78571429"></circle>
            <circle id="Oval" cx="6.78571429" cy="251.071429" r="6.78571429"></circle>
            <circle id="Oval" cx="47.5" cy="251.071429" r="6.78571429"></circle>
            <circle id="Oval" cx="88.2142857" cy="251.071429" r="6.78571429"></circle>
            <circle id="Oval" cx="128.928571" cy="251.071429" r="6.78571429"></circle>
            <circle id="Oval" cx="169.642857" cy="251.071429" r="6.78571429"></circle>
            <circle id="Oval" cx="210.357143" cy="251.071429" r="6.78571429"></circle>
            <circle id="Oval" cx="251.071429" cy="251.071429" r="6.78571429"></circle>
            <circle id="Oval" cx="291.785714" cy="251.071429" r="6.78571429"></circle>
            <circle id="Oval" cx="332.5" cy="251.071429" r="6.78571429"></circle>
            <circle id="Oval" cx="373.214286" cy="251.071429" r="6.78571429"></circle>
            <circle id="Oval" cx="6.78571429" cy="291.785714" r="6.78571429"></circle>
            <circle id="Oval" cx="47.5" cy="291.785714" r="6.78571429"></circle>
            <circle id="Oval" cx="88.2142857" cy="291.785714" r="6.78571429"></circle>
            <circle id="Oval" cx="128.928571" cy="291.785714" r="6.78571429"></circle>
            <circle id="Oval" cx="169.642857" cy="291.785714" r="6.78571429"></circle>
            <circle id="Oval" cx="210.357143" cy="291.785714" r="6.78571429"></circle>
            <circle id="Oval" cx="251.071429" cy="291.785714" r="6.78571429"></circle>
            <circle id="Oval" cx="291.785714" cy="291.785714" r="6.78571429"></circle>
            <circle id="Oval" cx="332.5" cy="291.785714" r="6.78571429"></circle>
            <circle id="Oval" cx="373.214286" cy="291.785714" r="6.78571429"></circle>
            <circle id="Oval" cx="6.78571429" cy="332.5" r="6.78571429"></circle>
            <circle id="Oval" cx="47.5" cy="332.5" r="6.78571429"></circle>
            <circle id="Oval" cx="88.2142857" cy="332.5" r="6.78571429"></circle>
            <circle id="Oval" cx="128.928571" cy="332.5" r="6.78571429"></circle>
            <circle id="Oval" cx="169.642857" cy="332.5" r="6.78571429"></circle>
            <circle id="Oval" cx="210.357143" cy="332.5" r="6.78571429"></circle>
            <circle id="Oval" cx="251.071429" cy="332.5" r="6.78571429"></circle>
            <circle id="Oval" cx="291.785714" cy="332.5" r="6.78571429"></circle>
            <circle id="Oval" cx="332.5" cy="332.5" r="6.78571429"></circle>
            <circle id="Oval" cx="373.214286" cy="332.5" r="6.78571429"></circle>
            <circle id="Oval" cx="6.78571429" cy="373.214286" r="6.78571429"></circle>
            <circle id="Oval" cx="47.5" cy="373.214286" r="6.78571429"></circle>
            <circle id="Oval" cx="88.2142857" cy="373.214286" r="6.78571429"></circle>
            <circle id="Oval" cx="128.928571" cy="373.214286" r="6.78571429"></circle>
            <circle id="Oval" cx="169.642857" cy="373.214286" r="6.78571429"></circle>
            <circle id="Oval" cx="210.357143" cy="373.214286" r="6.78571429"></circle>
            <circle id="Oval" cx="251.071429" cy="373.214286" r="6.78571429"></circle>
            <circle id="Oval" cx="291.785714" cy="373.214286" r="6.78571429"></circle>
            <circle id="Oval" cx="332.5" cy="373.214286" r="6.78571429"></circle>
            <circle id="Oval" cx="373.214286" cy="373.214286" r="6.78571429"></circle>
        </g>
        <g id="icon" transform="translate(38.000000, 24.000000)">
            <path d="M268.807143,75.8428571 L119.453571,75.8428571 C115.653571,75.8428571 111.853571,72.3142857 111.853571,72.3142857 L102.014286,64.7142857 C102.014286,64.7142857 96.1785714,60.6428571 93.6678571,60.6428571 L55.1928571,60.6428571 C45.8285714,60.6428571 37.9571429,68.2428571 37.9571429,77.8785714 L37.9571429,150.010714 C37.9571429,159.375 45.5571429,167.246429 55.1928571,167.246429 L269.078571,167.246429 C278.442857,167.246429 286.314286,159.646429 286.314286,150.010714 L286.314286,92.8071429 C286.042857,83.4428571 278.442857,75.8428571 268.807143,75.8428571 Z" id="Shape" fill="#755399" fill-rule="nonzero"></path>
            <polygon id="Shape" fill="#FEEE99" fill-rule="nonzero" points="27.3714286 98.1 296.628571 98.1 288.621429 157.814286 35.3785714 157.814286"></polygon>
            <g id="Group" transform="translate(80.571429, 0.250000)">
                <path d="M75.2535714,95.475 C75.2535714,95.475 107.35,26.6678571 0.407142857,0 C0.407142857,0 -7.53214286,104.975 75.2535714,95.475 Z" id="Shape" fill="#09A562" fill-rule="nonzero"></path>
                <polyline id="Shape" stroke="#D2EA8E" stroke-width="3.23" stroke-linecap="round" points="11.6714286 14.1142857 75.2535714 95.475 82.2428571 103.753571 91.1321429 95.6107143"></polyline>
                <polyline id="Shape" stroke="#D2EA8E" stroke-width="3.23" stroke-linecap="round" points="36.3035714 18.525 30.3321429 38.0678571 10.8571429 38.7464286"></polyline>
                <polyline id="Shape" stroke="#D2EA8E" stroke-width="3.23" stroke-linecap="round" points="57 35.2857143 46.2785714 58.3571429 19.475 62.3607143"></polyline>
                <polyline id="Shape" stroke="#D2EA8E" stroke-width="3.23" stroke-linecap="round" points="72.1321429 60.1892857 62.9714286 79.8 40.2392857 82.7178571"></polyline>
            </g>
            <g id="Group" transform="translate(168.107143, 20.607143)">
                <path d="M3.59642857,75.2535714 C3.59642857,75.2535714 63.3107143,89.1642857 66.7035714,0.20296324 C66.7035714,0.135714286 -17.6428571,11.3321429 3.59642857,75.2535714 Z" id="Shape" fill="#6CC04A" fill-rule="nonzero"></path>
                <path d="M3.59642857,75.2535714 L57.3392857,11.4" id="Shape" stroke="#D2EA8E" stroke-width="2.61032857" stroke-linecap="round"></path>
                <polyline id="Shape" stroke="#D2EA8E" stroke-width="2.61032857" stroke-linecap="round" points="58.0178571 31.6214286 41.5964286 30.1285714 37.7964286 14.8607143"></polyline>
                <polyline id="Shape" stroke="#D2EA8E" stroke-width="2.61032857" stroke-linecap="round" points="48.1785714 50.7571429 28.1607143 46.075 20.5607143 25.5821429"></polyline>
                <polyline id="Shape" stroke="#D2EA8E" stroke-width="2.61032857" stroke-linecap="round" points="31.0107143 66.9071429 13.9785714 62.9035714 7.87142857 45.3964286"></polyline>
            </g>
            <path d="M162.814286,104.003571 L162.814286,134.946429" id="Shape" stroke="#D2EA8E" stroke-width="3.23" stroke-linecap="round"></path>
            <polygon id="Shape" fill="#C7BAD6" fill-rule="nonzero" points="17.2607143 111.264286 306.060714 111.264286 298.053571 171.996429 25.3357143 171.725"></polygon>
            <path d="M15.225,123.885714 L308.842857,123.885714 C317.189286,123.885714 324.042857,130.739286 324.042857,139.085714 L307.960714,326.371429 C307.960714,334.717857 301.107143,341.571429 292.760714,341.571429 L31.3071429,341.571429 C22.9607143,341.571429 16.1071429,334.717857 16.1071429,326.371429 L0.025,139.085714 C0.025,130.739286 6.87857143,123.885714 15.225,123.885714 Z" id="Shape" fill="#755399" fill-rule="nonzero"></path>
            <path d="M162,161.885714 C124.271429,161.885714 93.6678571,192.489286 93.6678571,230.217857 C93.6678571,267.946429 124.271429,298.55 162,298.55 C199.728571,298.55 230.332143,267.946429 230.332143,230.217857 C230.332143,192.489286 199.728571,161.885714 162,161.885714 Z M162,290.746429 C128.682143,290.746429 101.471429,263.807143 101.471429,230.217857 C101.471429,196.9 128.410714,169.689286 162,169.689286 C195.317857,169.689286 222.528571,196.628571 222.528571,230.217857 C222.528571,263.807143 195.317857,290.746429 162,290.746429 Z M166.071429,204.907143 C163.764286,201.378571 160.507143,201.378571 158.2,204.907143 L135.196429,228.928571 C132.889286,232.457143 134.721429,235.239286 139.267857,235.239286 L149.378571,235.239286 L149.378571,254.035714 C149.378571,256.342857 151.142857,258.107143 153.45,258.107143 L170.889286,258.107143 C173.196429,258.107143 174.960714,256.342857 174.960714,254.035714 L174.960714,235.307143 L185.342857,235.307143 C189.617857,235.307143 191.45,232.525 189.414286,228.996429 L166.071429,204.907143 Z" id="Shape" fill="#C7BAD6" fill-rule="nonzero"></path>
        </g>
    </g>
</svg>