<?xml version="1.0" encoding="UTF-8"?>
<svg width="400px" height="400px" viewBox="0 0 400 400" version="1.1" xmlns="http://www.w3.org/2000/svg" xmlns:xlink="http://www.w3.org/1999/xlink">
    <!-- Generator: Sketch 53.1 (72631) - https://sketchapp.com -->
    <title>terra-soil</title>
    <desc>Created with Sketch.</desc>
    <g id="terra-soil" stroke="none" stroke-width="1" fill="none" fill-rule="evenodd">
        <path d="M261.488495,77.7536007 C243.316498,66.0699463 197.779235,76.7881773 192.647705,78.0493164 C189.583283,78.8002016 187.640838,81.8182373 188.22937,84.9203488 C189.212189,90.1127623 198.359069,135.992126 216.533966,147.672882 C223.320923,152.039032 231.047211,154.291687 238.927155,154.291687 C241.890106,154.291687 244.873352,153.972778 247.836304,153.329163 C258.684997,150.972137 267.96814,144.530182 273.972321,135.191956 C286.363373,115.915375 280.765075,90.150452 261.488495,77.7536007 Z" id="Path" fill="#AED835" fill-rule="nonzero"></path>
        <path d="M279.909821,118.556519 C273.90564,127.894745 264.622497,134.336701 253.773804,136.693726 C250.810852,137.337341 247.827606,137.65625 244.864655,137.65625 C236.984711,137.65625 229.258423,135.403595 222.471466,131.040345 C208.424987,122.00943 199.770965,92.5538637 196.112213,77.2433468 C194.456787,77.6115416 193.25943,77.8985596 192.647705,78.0493164 C189.583283,78.8002016 187.640838,81.8182373 188.22937,84.9174498 C189.212189,90.1127623 198.359069,135.989227 216.533966,147.672882 C223.320923,152.039032 231.047211,154.291687 238.927155,154.291687 C241.890106,154.291687 244.873352,153.972778 247.836304,153.329163 C258.684997,150.972137 267.96814,144.530182 273.972321,135.191956 C277.416535,129.83429 279.466247,123.975067 280.22583,118.040466 C280.115661,118.211517 280.019989,118.385467 279.909821,118.556519 Z" id="Path" fill="#6CC04A" fill-rule="nonzero"></path>
        <path d="M376.765289,114.81369 C371.584473,113.758392 325.661621,104.849243 307.965088,117.243195 C289.192962,130.390931 284.618073,156.358795 297.762909,175.130921 C305.839997,186.660919 318.752899,192.836151 331.865845,192.836151 C340.099487,192.836151 348.411408,190.400848 355.650635,185.3302 C373.347168,172.936249 380.673371,126.732178 381.450348,121.504974 C381.914215,118.385467 379.855804,115.445709 376.765289,114.81369 Z" id="Path" fill="#AED835" fill-rule="nonzero"></path>
        <path d="M376.765289,114.81369 C376.742096,114.810791 376.710205,114.804993 376.687012,114.799194 C373.779144,129.883576 366.270294,160.884399 352.261505,170.69519 C345.019378,175.765838 336.707458,178.201141 328.476715,178.201141 C315.36377,178.201141 302.450866,172.02591 294.373779,160.493011 C292.753143,158.179474 291.40213,155.755768 290.314941,153.259583 C290.662842,160.858307 293.086548,168.451233 297.762909,175.130921 C305.839997,186.663818 318.752899,192.836151 331.865845,192.836151 C340.099487,192.836151 348.411408,190.400848 355.650635,185.3302 C373.347168,172.936249 380.673371,126.732178 381.450348,121.504974 C381.914215,118.385467 379.855804,115.445709 376.765289,114.81369 Z" id="Path" fill="#6CC04A" fill-rule="nonzero"></path>
        <path d="M357.58728,136.215363 C356.792907,133.034974 353.57193,131.104126 350.388641,131.895599 C348.083802,132.472534 307.243195,142.979126 286.51123,167.149505 C286.444549,145.785522 275.308838,126.720581 254.295654,112.010193 C238.845978,101.196289 223.552856,96.5373228 222.909241,96.345978 C219.76654,95.4008482 216.458587,97.1838379 215.516357,100.326538 C214.571228,103.466339 216.354217,106.777191 219.496918,107.719421 C220.04776,107.884674 274.639129,124.754944 274.639129,167.34375 L274.639129,256.40625 C274.639129,259.685211 277.297669,262.34375 280.576629,262.34375 C283.855591,262.34375 286.514129,259.685211 286.514129,256.40625 L286.514129,197.03125 C286.514129,160.60028 352.603607,143.582153 353.270416,143.416901 C356.450806,142.619629 358.381653,139.395752 357.58728,136.215363 Z" id="Path" fill="#998273" fill-rule="nonzero"></path>
        <path d="M69.375,251.886719 C96.6492993,242.13925 151.484375,302.450866 205.566406,274.21875 C259.648437,245.986634 335.500862,254.383827 361.054688,269.023437 C412.875,298.710937 400.559771,419.316406 335.91524,390 C314.208919,380.156146 274.145913,363.362986 215.263164,383.015625 C164.375,400 177.361088,364.720082 123.183594,362.054901 C90.310835,360.437774 41.453125,399.648438 20.6875,351.40625 C-0.078125,303.164062 15.5664062,271.117187 69.375,251.886719 Z" id="Path" fill="#BCABA3" fill-rule="nonzero"></path>
        <path d="M211.132812,285.722656 C211.132812,288.795776 208.639526,291.289062 205.566406,291.289062 C202.493286,291.289062 200,288.795776 200,285.722656 C200,282.649536 202.493286,280.15625 205.566406,280.15625 C208.639526,280.15625 211.132812,282.649536 211.132812,285.722656 Z" id="Path" fill="#7E6F75" fill-rule="nonzero"></path>
        <path d="M175.507812,315.410156 C175.507812,318.483276 173.014526,320.976562 169.941406,320.976562 C166.868286,320.976562 164.375,318.483276 164.375,315.410156 C164.375,312.337036 166.868286,309.84375 169.941406,309.84375 C173.014526,309.84375 175.507812,312.337036 175.507812,315.410156 Z" id="Path" fill="#7E6F75" fill-rule="nonzero"></path>
        <path d="M276.445312,315.410156 C276.445312,318.483276 273.952026,320.976562 270.878906,320.976562 C267.805786,320.976562 265.3125,318.483276 265.3125,315.410156 C265.3125,312.337036 267.805786,309.84375 270.878906,309.84375 C273.952026,309.84375 276.445312,312.337036 276.445312,315.410156 Z" id="Path" fill="#7E6F75" fill-rule="nonzero"></path>
        <path d="M295,274.589844 C295,277.662964 292.506714,280.15625 289.433594,280.15625 C286.360474,280.15625 283.867188,277.662964 283.867188,274.589844 C283.867188,271.516724 286.360474,269.023438 289.433594,269.023438 C292.506714,269.023438 295,271.516724 295,274.589844 Z" id="Path" fill="#7E6F75" fill-rule="nonzero"></path>
        <path d="M235.625,339.902344 C235.625,342.975464 233.131714,345.46875 230.058594,345.46875 C226.985474,345.46875 224.492188,342.975464 224.492188,339.902344 C224.492188,336.829224 226.985474,334.335938 230.058594,334.335938 C233.131714,334.335938 235.625,336.829224 235.625,339.902344 Z" id="Path" fill="#7E6F75" fill-rule="nonzero"></path>
        <path d="M134.6875,339.160156 C134.6875,342.233276 132.194214,344.726562 129.121094,344.726562 C126.047974,344.726562 123.554688,342.233276 123.554688,339.160156 C123.554688,336.087036 126.047974,333.59375 129.121094,333.59375 C132.194214,333.59375 134.6875,336.087036 134.6875,339.160156 Z" id="Path" fill="#7E6F75" fill-rule="nonzero"></path>
        <path d="M56.7578125,345.839844 C56.7578125,348.912964 54.2645264,351.40625 51.1914062,351.40625 C48.1182861,351.40625 45.625,348.912964 45.625,345.839844 C45.625,342.766724 48.1182861,340.273438 51.1914062,340.273438 C54.2645264,340.273438 56.7578125,342.766724 56.7578125,345.839844 Z" id="Path" fill="#7E6F75" fill-rule="nonzero"></path>
        <path d="M38.9453125,279.785156 C38.9453125,282.858276 36.4520264,285.351562 33.3789062,285.351562 C30.3057861,285.351562 27.8125,282.858276 27.8125,279.785156 C27.8125,276.712036 30.3057861,274.21875 33.3789062,274.21875 C36.4520264,274.21875 38.9453125,276.712036 38.9453125,279.785156 Z" id="Path" fill="#7E6F75" fill-rule="nonzero"></path>
        <path d="M329.882812,339.160156 C329.882812,342.233276 327.389526,344.726562 324.316406,344.726562 C321.243286,344.726562 318.75,342.233276 318.75,339.160156 C318.75,336.087036 321.243286,333.59375 324.316406,333.59375 C327.389526,333.59375 329.882812,336.087036 329.882812,339.160156 Z" id="Path" fill="#7E6F75" fill-rule="nonzero"></path>
        <path d="M134.6875,280.527344 C134.6875,283.600464 132.194214,286.09375 129.121094,286.09375 C126.047974,286.09375 123.554688,283.600464 123.554688,280.527344 C123.554688,277.454224 126.047974,274.960938 129.121094,274.960938 C132.194214,274.960938 134.6875,277.454224 134.6875,280.527344 Z" id="Path" fill="#7E6F75" fill-rule="nonzero"></path>
        <path d="M68.6328125,304.277344 C68.6328125,307.350464 66.1395264,309.84375 63.0664062,309.84375 C59.9932861,309.84375 57.5,307.350464 57.5,304.277344 C57.5,301.204224 59.9932861,298.710938 63.0664062,298.710938 C66.1395264,298.710938 68.6328125,301.204224 68.6328125,304.277344 Z" id="Path" fill="#7E6F75" fill-rule="nonzero"></path>
        <path d="M372.1875,292.402344 C372.1875,295.475464 369.694214,297.96875 366.621094,297.96875 C363.547974,297.96875 361.054688,295.475464 361.054688,292.402344 C361.054688,289.329224 363.547974,286.835938 366.621094,286.835938 C369.694214,286.835938 372.1875,289.329224 372.1875,292.402344 Z" id="Path" fill="#7E6F75" fill-rule="nonzero"></path>
        <path d="M93.125,321.71875 C89.8460386,321.71875 87.1875,319.060211 87.1875,315.78125 L87.1875,149.53125 C87.1875,146.252289 89.8460386,143.59375 93.125,143.59375 C96.4039614,143.59375 99.0625,146.252289 99.0625,149.53125 L99.0625,315.78125 C99.0625,319.060211 96.4039614,321.71875 93.125,321.71875 Z" id="Path" fill="#747371" fill-rule="nonzero"></path>
        <path d="M93.125,303.90625 C86.5786747,303.90625 81.25,309.232025 81.25,315.78125 C81.25,322.330475 86.5786747,327.65625 93.125,327.65625 C99.6713253,327.65625 105,322.330475 105,315.78125 C105,309.232025 99.6713253,303.90625 93.125,303.90625 Z" id="Path" fill="#383736" fill-rule="nonzero"></path>
        <path d="M158.4375,30.78125 L21.875,30.78125 C15.3286747,30.78125 10,36.1099247 10,42.65625 L10,149.53125 C10,156.077575 15.3286747,161.40625 21.875,161.40625 L158.4375,161.40625 C164.983825,161.40625 170.3125,156.077575 170.3125,149.53125 L170.3125,42.65625 C170.3125,36.1099247 164.983825,30.78125 158.4375,30.78125 Z" id="Path" fill="#636FB7" fill-rule="nonzero"></path>
        <path d="M21.875,137.65625 L21.875,30.78125 C15.3286747,30.78125 10,36.1099247 10,42.65625 L10,149.53125 C10,156.077575 15.3286747,161.40625 21.875,161.40625 L158.4375,161.40625 C164.983825,161.40625 170.3125,156.077575 170.3125,149.53125 L33.75,149.53125 C27.2036747,149.53125 21.875,144.202575 21.875,137.65625 Z" id="Path" fill="#203298" fill-rule="nonzero"></path>
        <polygon id="Path" fill="#F1EFF0" fill-rule="nonzero" points="33.75 54.53125 146.5625 54.53125 146.5625 119.84375 33.75 119.84375"></polygon>
        <path d="M146.5625,125.78125 L33.75,125.78125 C30.4710386,125.78125 27.8125,123.122711 27.8125,119.84375 L27.8125,54.53125 C27.8125,51.2522886 30.4710386,48.59375 33.75,48.59375 L146.5625,48.59375 C149.841461,48.59375 152.5,51.2522886 152.5,54.53125 L152.5,119.84375 C152.5,123.122711 149.841461,125.78125 146.5625,125.78125 Z M39.6875,113.90625 L140.625,113.90625 L140.625,60.46875 L39.6875,60.46875 L39.6875,113.90625 Z" id="Shape" fill="#A5ADD4" fill-rule="nonzero"></path>
        <path d="M69.375,107.96875 C67.8065493,107.96875 66.2931822,107.348327 65.177002,106.229248 L53.302002,94.354248 C50.982666,92.0349121 50.982666,88.2775879 53.302002,85.958252 C55.6213379,83.638916 59.3786621,83.638916 61.697998,85.958252 L68.7342836,92.9916378 L82.4386593,74.7181704 C84.3289188,72.1987919 87.8572084,71.5928648 90.480957,73.3410645 L104.243317,82.5169371 L118.614502,68.145752 C120.933838,65.826416 124.691162,65.826416 127.010498,68.145752 C129.329834,70.4650879 129.329834,74.2224121 127.010498,76.541748 L109.197998,94.354248 C107.197571,96.3546749 104.060669,96.667786 101.706543,95.0964355 L88.5675049,86.3380434 L74.1238407,105.59433 C73.0917355,106.971436 71.511688,107.832489 69.7953795,107.954254 C69.6562193,107.962952 69.5141602,107.96875 69.375,107.96875 Z" id="Path" fill="#53C091" fill-rule="nonzero"></path>
        <path d="M98.6914062,143.222656 C98.6914062,146.295776 96.1981201,148.789062 93.125,148.789062 C90.0518799,148.789062 87.5585938,146.295776 87.5585938,143.222656 C87.5585938,140.149536 90.0518799,137.65625 93.125,137.65625 C96.1981201,137.65625 98.6914062,140.149536 98.6914062,143.222656 Z" id="Path" fill="#A5ADD4" fill-rule="nonzero"></path>
        <path d="M128.75,143.222656 C128.75,146.295776 126.256714,148.789062 123.183594,148.789062 C120.110474,148.789062 117.617188,146.295776 117.617188,143.222656 C117.617188,140.149536 120.110474,137.65625 123.183594,137.65625 C126.256714,137.65625 128.75,140.149536 128.75,143.222656 Z" id="Path" fill="#A5ADD4" fill-rule="nonzero"></path>
        <path d="M69.375,143.222656 C69.375,146.295776 66.8817139,148.789062 63.8085938,148.789062 C60.7354736,148.789062 58.2421875,146.295776 58.2421875,143.222656 C58.2421875,140.149536 60.7354736,137.65625 63.8085938,137.65625 C66.8817139,137.65625 69.375,140.149536 69.375,143.222656 Z" id="Path" fill="#A5ADD4" fill-rule="nonzero"></path>
    </g>
</svg>