<?xml version="1.0" encoding="UTF-8"?>
<svg width="400px" height="400px" viewBox="0 0 400 400" version="1.1" xmlns="http://www.w3.org/2000/svg" xmlns:xlink="http://www.w3.org/1999/xlink">
    <!-- Generator: Sketch 52.5 (67469) - http://www.bohemiancoding.com/sketch -->
    <title>terra-discover</title>
    <desc>Created with Sketch.</desc>
    <defs>
        <linearGradient x1="-0.952083753%" y1="84.1169182%" x2="77.890189%" y2="1.96390731%" id="linearGradient-1">
            <stop stop-color="#FFFFFF" stop-opacity="0" offset="0%"></stop>
            <stop stop-color="#FFFFFF" offset="100%"></stop>
        </linearGradient>
    </defs>
    <g id="terra-discover" stroke="none" stroke-width="1" fill="none" fill-rule="evenodd">
        <g id="dots" transform="translate(10.000000, 10.000000)" fill="#C4E5B6" fill-rule="nonzero">
            <circle id="Oval" cx="6.78571429" cy="6.78571429" r="6.78571429"></circle>
            <circle id="Oval" cx="47.5" cy="6.78571429" r="6.78571429"></circle>
            <circle id="Oval" cx="88.2142857" cy="6.78571429" r="6.78571429"></circle>
            <circle id="Oval" cx="128.928571" cy="6.78571429" r="6.78571429"></circle>
            <circle id="Oval" cx="169.642857" cy="6.78571429" r="6.78571429"></circle>
            <circle id="Oval" cx="210.357143" cy="6.78571429" r="6.78571429"></circle>
            <circle id="Oval" cx="251.071429" cy="6.78571429" r="6.78571429"></circle>
            <circle id="Oval" cx="291.785714" cy="6.78571429" r="6.78571429"></circle>
            <circle id="Oval" cx="332.5" cy="6.78571429" r="6.78571429"></circle>
            <circle id="Oval" cx="373.214286" cy="6.78571429" r="6.78571429"></circle>
            <circle id="Oval" cx="6.78571429" cy="47.5" r="6.78571429"></circle>
            <circle id="Oval" cx="47.5" cy="47.5" r="6.78571429"></circle>
            <circle id="Oval" cx="88.2142857" cy="47.5" r="6.78571429"></circle>
            <circle id="Oval" cx="128.928571" cy="47.5" r="6.78571429"></circle>
            <circle id="Oval" cx="169.642857" cy="47.5" r="6.78571429"></circle>
            <circle id="Oval" cx="210.357143" cy="47.5" r="6.78571429"></circle>
            <circle id="Oval" cx="251.071429" cy="47.5" r="6.78571429"></circle>
            <circle id="Oval" cx="291.785714" cy="47.5" r="6.78571429"></circle>
            <circle id="Oval" cx="332.5" cy="47.5" r="6.78571429"></circle>
            <circle id="Oval" cx="373.214286" cy="47.5" r="6.78571429"></circle>
            <circle id="Oval" cx="6.78571429" cy="88.2142857" r="6.78571429"></circle>
            <circle id="Oval" cx="47.5" cy="88.2142857" r="6.78571429"></circle>
            <circle id="Oval" cx="88.2142857" cy="88.2142857" r="6.78571429"></circle>
            <circle id="Oval" cx="128.928571" cy="88.2142857" r="6.78571429"></circle>
            <circle id="Oval" cx="169.642857" cy="88.2142857" r="6.78571429"></circle>
            <circle id="Oval" cx="210.357143" cy="88.2142857" r="6.78571429"></circle>
            <circle id="Oval" cx="251.071429" cy="88.2142857" r="6.78571429"></circle>
            <circle id="Oval" cx="291.785714" cy="88.2142857" r="6.78571429"></circle>
            <circle id="Oval" cx="332.5" cy="88.2142857" r="6.78571429"></circle>
            <circle id="Oval" cx="373.214286" cy="88.2142857" r="6.78571429"></circle>
            <circle id="Oval" cx="6.78571429" cy="128.928571" r="6.78571429"></circle>
            <circle id="Oval" cx="47.5" cy="128.928571" r="6.78571429"></circle>
            <circle id="Oval" cx="88.2142857" cy="128.928571" r="6.78571429"></circle>
            <circle id="Oval" cx="128.928571" cy="128.928571" r="6.78571429"></circle>
            <circle id="Oval" cx="169.642857" cy="128.928571" r="6.78571429"></circle>
            <circle id="Oval" cx="210.357143" cy="128.928571" r="6.78571429"></circle>
            <circle id="Oval" cx="251.071429" cy="128.928571" r="6.78571429"></circle>
            <circle id="Oval" cx="291.785714" cy="128.928571" r="6.78571429"></circle>
            <circle id="Oval" cx="332.5" cy="128.928571" r="6.78571429"></circle>
            <circle id="Oval" cx="373.214286" cy="128.928571" r="6.78571429"></circle>
            <circle id="Oval" cx="6.78571429" cy="169.642857" r="6.78571429"></circle>
            <circle id="Oval" cx="47.5" cy="169.642857" r="6.78571429"></circle>
            <circle id="Oval" cx="88.2142857" cy="169.642857" r="6.78571429"></circle>
            <circle id="Oval" cx="128.928571" cy="169.642857" r="6.78571429"></circle>
            <circle id="Oval" cx="169.642857" cy="169.642857" r="6.78571429"></circle>
            <circle id="Oval" cx="210.357143" cy="169.642857" r="6.78571429"></circle>
            <circle id="Oval" cx="251.071429" cy="169.642857" r="6.78571429"></circle>
            <circle id="Oval" cx="291.785714" cy="169.642857" r="6.78571429"></circle>
            <circle id="Oval" cx="332.5" cy="169.642857" r="6.78571429"></circle>
            <circle id="Oval" cx="373.214286" cy="169.642857" r="6.78571429"></circle>
            <circle id="Oval" cx="6.78571429" cy="210.357143" r="6.78571429"></circle>
            <circle id="Oval" cx="47.5" cy="210.357143" r="6.78571429"></circle>
            <circle id="Oval" cx="88.2142857" cy="210.357143" r="6.78571429"></circle>
            <circle id="Oval" cx="128.928571" cy="210.357143" r="6.78571429"></circle>
            <circle id="Oval" cx="169.642857" cy="210.357143" r="6.78571429"></circle>
            <circle id="Oval" cx="210.357143" cy="210.357143" r="6.78571429"></circle>
            <circle id="Oval" cx="251.071429" cy="210.357143" r="6.78571429"></circle>
            <circle id="Oval" cx="291.785714" cy="210.357143" r="6.78571429"></circle>
            <circle id="Oval" cx="332.5" cy="210.357143" r="6.78571429"></circle>
            <circle id="Oval" cx="373.214286" cy="210.357143" r="6.78571429"></circle>
            <circle id="Oval" cx="6.78571429" cy="251.071429" r="6.78571429"></circle>
            <circle id="Oval" cx="47.5" cy="251.071429" r="6.78571429"></circle>
            <circle id="Oval" cx="88.2142857" cy="251.071429" r="6.78571429"></circle>
            <circle id="Oval" cx="128.928571" cy="251.071429" r="6.78571429"></circle>
            <circle id="Oval" cx="169.642857" cy="251.071429" r="6.78571429"></circle>
            <circle id="Oval" cx="210.357143" cy="251.071429" r="6.78571429"></circle>
            <circle id="Oval" cx="251.071429" cy="251.071429" r="6.78571429"></circle>
            <circle id="Oval" cx="291.785714" cy="251.071429" r="6.78571429"></circle>
            <circle id="Oval" cx="332.5" cy="251.071429" r="6.78571429"></circle>
            <circle id="Oval" cx="373.214286" cy="251.071429" r="6.78571429"></circle>
            <circle id="Oval" cx="6.78571429" cy="291.785714" r="6.78571429"></circle>
            <circle id="Oval" cx="47.5" cy="291.785714" r="6.78571429"></circle>
            <circle id="Oval" cx="88.2142857" cy="291.785714" r="6.78571429"></circle>
            <circle id="Oval" cx="128.928571" cy="291.785714" r="6.78571429"></circle>
            <circle id="Oval" cx="169.642857" cy="291.785714" r="6.78571429"></circle>
            <circle id="Oval" cx="210.357143" cy="291.785714" r="6.78571429"></circle>
            <circle id="Oval" cx="251.071429" cy="291.785714" r="6.78571429"></circle>
            <circle id="Oval" cx="291.785714" cy="291.785714" r="6.78571429"></circle>
            <circle id="Oval" cx="332.5" cy="291.785714" r="6.78571429"></circle>
            <circle id="Oval" cx="373.214286" cy="291.785714" r="6.78571429"></circle>
            <circle id="Oval" cx="6.78571429" cy="332.5" r="6.78571429"></circle>
            <circle id="Oval" cx="47.5" cy="332.5" r="6.78571429"></circle>
            <circle id="Oval" cx="88.2142857" cy="332.5" r="6.78571429"></circle>
            <circle id="Oval" cx="128.928571" cy="332.5" r="6.78571429"></circle>
            <circle id="Oval" cx="169.642857" cy="332.5" r="6.78571429"></circle>
            <circle id="Oval" cx="210.357143" cy="332.5" r="6.78571429"></circle>
            <circle id="Oval" cx="251.071429" cy="332.5" r="6.78571429"></circle>
            <circle id="Oval" cx="291.785714" cy="332.5" r="6.78571429"></circle>
            <circle id="Oval" cx="332.5" cy="332.5" r="6.78571429"></circle>
            <circle id="Oval" cx="373.214286" cy="332.5" r="6.78571429"></circle>
            <circle id="Oval" cx="6.78571429" cy="373.214286" r="6.78571429"></circle>
            <circle id="Oval" cx="47.5" cy="373.214286" r="6.78571429"></circle>
            <circle id="Oval" cx="88.2142857" cy="373.214286" r="6.78571429"></circle>
            <circle id="Oval" cx="128.928571" cy="373.214286" r="6.78571429"></circle>
            <circle id="Oval" cx="169.642857" cy="373.214286" r="6.78571429"></circle>
            <circle id="Oval" cx="210.357143" cy="373.214286" r="6.78571429"></circle>
            <circle id="Oval" cx="251.071429" cy="373.214286" r="6.78571429"></circle>
            <circle id="Oval" cx="291.785714" cy="373.214286" r="6.78571429"></circle>
            <circle id="Oval" cx="332.5" cy="373.214286" r="6.78571429"></circle>
            <circle id="Oval" cx="373.214286" cy="373.214286" r="6.78571429"></circle>
        </g>
        <g id="icon" transform="translate(49.000000, 23.000000)">
            <g id="Group-2" transform="translate(30.000000, 90.000000)">
                <g id="Group" transform="translate(0.871795, 0.380952)">
                    <path d="M114.809936,145.485714 C114.809936,145.485714 163.777564,40.6367347 0.621153846,0 C0.621153846,0 -11.4913462,159.961905 114.809936,145.485714 Z" id="Shape" fill="#09A562" fill-rule="nonzero"></path>
                    <polyline id="Shape" stroke="#D2EA8E" stroke-width="4.92190476" stroke-linecap="round" points="17.8064103 21.507483 114.809936 145.485714 125.473077 158.10068 139.034936 145.692517"></polyline>
                    <polyline id="Shape" stroke="#D2EA8E" stroke-width="4.92190476" stroke-linecap="round" points="55.3862179 28.2285714 46.2759615 58.0081633 16.5641026 59.0421769"></polyline>
                    <polyline id="Shape" stroke="#D2EA8E" stroke-width="4.92190476" stroke-linecap="round" points="86.9615385 53.7687075 70.6044872 88.9251701 29.711859 95.0258503"></polyline>
                    <polyline id="Shape" stroke="#D2EA8E" stroke-width="4.92190476" stroke-linecap="round" points="110.047756 91.7170068 96.0717949 121.6 61.3907051 126.046259"></polyline>
                </g>
                <g id="Group" transform="translate(134.419872, 31.401361)">
                    <path d="M5.48685897,114.672109 C5.48685897,114.672109 96.5894231,135.869388 101.765705,0.309277318 C101.765705,0.206802721 -26.9166667,17.2680272 5.48685897,114.672109 Z" id="Shape" fill="#6CC04A" fill-rule="nonzero"></path>
                    <path d="M5.48685897,114.672109 L87.4791667,17.3714286" id="Shape" stroke="#D2EA8E" stroke-width="3.97764354" stroke-linecap="round"></path>
                    <polyline id="Shape" stroke="#D2EA8E" stroke-width="3.97764354" stroke-linecap="round" points="88.5144231 48.185034 63.4612179 45.9102041 57.6637821 22.644898"></polyline>
                    <polyline id="Shape" stroke="#D2EA8E" stroke-width="3.97764354" stroke-linecap="round" points="73.5032051 77.3442177 42.963141 70.2095238 31.3682692 38.9823129"></polyline>
                    <polyline id="Shape" stroke="#D2EA8E" stroke-width="3.97764354" stroke-linecap="round" points="47.3112179 101.953741 21.3262821 95.8530612 12.0089744 69.1755102"></polyline>
                </g>
                <path d="M125.883624,155.34609 L125.883624,199.612313" id="Shape" stroke="#D2EA8E" stroke-width="4.61800333" stroke-linecap="round"></path>
            </g>
            <ellipse id="Oval" stroke="#07834D" stroke-width="18.5690516" stroke-linecap="round" cx="143.909408" cy="144.054908" rx="143.832753" ry="143.760399"></ellipse>
            <ellipse id="Oval" fill="#B2E1D8" fill-rule="nonzero" opacity="0.39" cx="147.804878" cy="146.450915" rx="143.832753" ry="143.760399"></ellipse>
            <path d="M250.885017,62.890183 L38.3121951,239.655574 C38.3121951,239.655574 -58.6550523,117.878536 68.097561,26.9500832 C169.979094,-46.1281198 250.885017,62.890183 250.885017,62.890183 Z" id="Shape" fill="url(#linearGradient-1)" fill-rule="nonzero" opacity="0.63"></path>
            <ellipse id="Oval" stroke="#09A562" stroke-width="18.5690516" stroke-linecap="round" cx="147.804878" cy="146.450915" rx="143.832753" ry="143.760399"></ellipse>
            <path d="M269.763066,296.800333 L323.700348,356.700499" id="Shape" stroke="#755399" stroke-width="32.3460899" stroke-linecap="round"></path>
            <path d="M237.400697,260.261231 L260.174216,286.018303" id="Shape" stroke="#09A562" stroke-width="18.5690516" stroke-linecap="round"></path>
        </g>
    </g>
</svg>