<?xml version="1.0" encoding="UTF-8"?>
<svg width="400px" height="400px" viewBox="0 0 400 400" version="1.1" xmlns="http://www.w3.org/2000/svg" xmlns:xlink="http://www.w3.org/1999/xlink">
    <!-- Generator: Sketch 52.5 (67469) - http://www.bohemiancoding.com/sketch -->
    <title>terra-realtime</title>
    <desc>Created with Sketch.</desc>
    <g id="terra-realtime" stroke="none" stroke-width="1" fill="none" fill-rule="evenodd">
        <g id="dots" transform="translate(10.000000, 10.000000)" fill="#C4E5B6" fill-rule="nonzero">
            <circle id="Oval" cx="6.78571429" cy="6.78571429" r="6.78571429"></circle>
            <circle id="Oval" cx="47.5" cy="6.78571429" r="6.78571429"></circle>
            <circle id="Oval" cx="88.2142857" cy="6.78571429" r="6.78571429"></circle>
            <circle id="Oval" cx="128.928571" cy="6.78571429" r="6.78571429"></circle>
            <circle id="Oval" cx="169.642857" cy="6.78571429" r="6.78571429"></circle>
            <circle id="Oval" cx="210.357143" cy="6.78571429" r="6.78571429"></circle>
            <circle id="Oval" cx="251.071429" cy="6.78571429" r="6.78571429"></circle>
            <circle id="Oval" cx="291.785714" cy="6.78571429" r="6.78571429"></circle>
            <circle id="Oval" cx="332.5" cy="6.78571429" r="6.78571429"></circle>
            <circle id="Oval" cx="373.214286" cy="6.78571429" r="6.78571429"></circle>
            <circle id="Oval" cx="6.78571429" cy="47.5" r="6.78571429"></circle>
            <circle id="Oval" cx="47.5" cy="47.5" r="6.78571429"></circle>
            <circle id="Oval" cx="88.2142857" cy="47.5" r="6.78571429"></circle>
            <circle id="Oval" cx="128.928571" cy="47.5" r="6.78571429"></circle>
            <circle id="Oval" cx="169.642857" cy="47.5" r="6.78571429"></circle>
            <circle id="Oval" cx="210.357143" cy="47.5" r="6.78571429"></circle>
            <circle id="Oval" cx="251.071429" cy="47.5" r="6.78571429"></circle>
            <circle id="Oval" cx="291.785714" cy="47.5" r="6.78571429"></circle>
            <circle id="Oval" cx="332.5" cy="47.5" r="6.78571429"></circle>
            <circle id="Oval" cx="373.214286" cy="47.5" r="6.78571429"></circle>
            <circle id="Oval" cx="6.78571429" cy="88.2142857" r="6.78571429"></circle>
            <circle id="Oval" cx="47.5" cy="88.2142857" r="6.78571429"></circle>
            <circle id="Oval" cx="88.2142857" cy="88.2142857" r="6.78571429"></circle>
            <circle id="Oval" cx="128.928571" cy="88.2142857" r="6.78571429"></circle>
            <circle id="Oval" cx="169.642857" cy="88.2142857" r="6.78571429"></circle>
            <circle id="Oval" cx="210.357143" cy="88.2142857" r="6.78571429"></circle>
            <circle id="Oval" cx="251.071429" cy="88.2142857" r="6.78571429"></circle>
            <circle id="Oval" cx="291.785714" cy="88.2142857" r="6.78571429"></circle>
            <circle id="Oval" cx="332.5" cy="88.2142857" r="6.78571429"></circle>
            <circle id="Oval" cx="373.214286" cy="88.2142857" r="6.78571429"></circle>
            <circle id="Oval" cx="6.78571429" cy="128.928571" r="6.78571429"></circle>
            <circle id="Oval" cx="47.5" cy="128.928571" r="6.78571429"></circle>
            <circle id="Oval" cx="88.2142857" cy="128.928571" r="6.78571429"></circle>
            <circle id="Oval" cx="128.928571" cy="128.928571" r="6.78571429"></circle>
            <circle id="Oval" cx="169.642857" cy="128.928571" r="6.78571429"></circle>
            <circle id="Oval" cx="210.357143" cy="128.928571" r="6.78571429"></circle>
            <circle id="Oval" cx="251.071429" cy="128.928571" r="6.78571429"></circle>
            <circle id="Oval" cx="291.785714" cy="128.928571" r="6.78571429"></circle>
            <circle id="Oval" cx="332.5" cy="128.928571" r="6.78571429"></circle>
            <circle id="Oval" cx="373.214286" cy="128.928571" r="6.78571429"></circle>
            <circle id="Oval" cx="6.78571429" cy="169.642857" r="6.78571429"></circle>
            <circle id="Oval" cx="47.5" cy="169.642857" r="6.78571429"></circle>
            <circle id="Oval" cx="88.2142857" cy="169.642857" r="6.78571429"></circle>
            <circle id="Oval" cx="128.928571" cy="169.642857" r="6.78571429"></circle>
            <circle id="Oval" cx="169.642857" cy="169.642857" r="6.78571429"></circle>
            <circle id="Oval" cx="210.357143" cy="169.642857" r="6.78571429"></circle>
            <circle id="Oval" cx="251.071429" cy="169.642857" r="6.78571429"></circle>
            <circle id="Oval" cx="291.785714" cy="169.642857" r="6.78571429"></circle>
            <circle id="Oval" cx="332.5" cy="169.642857" r="6.78571429"></circle>
            <circle id="Oval" cx="373.214286" cy="169.642857" r="6.78571429"></circle>
            <circle id="Oval" cx="6.78571429" cy="210.357143" r="6.78571429"></circle>
            <circle id="Oval" cx="47.5" cy="210.357143" r="6.78571429"></circle>
            <circle id="Oval" cx="88.2142857" cy="210.357143" r="6.78571429"></circle>
            <circle id="Oval" cx="128.928571" cy="210.357143" r="6.78571429"></circle>
            <circle id="Oval" cx="169.642857" cy="210.357143" r="6.78571429"></circle>
            <circle id="Oval" cx="210.357143" cy="210.357143" r="6.78571429"></circle>
            <circle id="Oval" cx="251.071429" cy="210.357143" r="6.78571429"></circle>
            <circle id="Oval" cx="291.785714" cy="210.357143" r="6.78571429"></circle>
            <circle id="Oval" cx="332.5" cy="210.357143" r="6.78571429"></circle>
            <circle id="Oval" cx="373.214286" cy="210.357143" r="6.78571429"></circle>
            <circle id="Oval" cx="6.78571429" cy="251.071429" r="6.78571429"></circle>
            <circle id="Oval" cx="47.5" cy="251.071429" r="6.78571429"></circle>
            <circle id="Oval" cx="88.2142857" cy="251.071429" r="6.78571429"></circle>
            <circle id="Oval" cx="128.928571" cy="251.071429" r="6.78571429"></circle>
            <circle id="Oval" cx="169.642857" cy="251.071429" r="6.78571429"></circle>
            <circle id="Oval" cx="210.357143" cy="251.071429" r="6.78571429"></circle>
            <circle id="Oval" cx="251.071429" cy="251.071429" r="6.78571429"></circle>
            <circle id="Oval" cx="291.785714" cy="251.071429" r="6.78571429"></circle>
            <circle id="Oval" cx="332.5" cy="251.071429" r="6.78571429"></circle>
            <circle id="Oval" cx="373.214286" cy="251.071429" r="6.78571429"></circle>
            <circle id="Oval" cx="6.78571429" cy="291.785714" r="6.78571429"></circle>
            <circle id="Oval" cx="47.5" cy="291.785714" r="6.78571429"></circle>
            <circle id="Oval" cx="88.2142857" cy="291.785714" r="6.78571429"></circle>
            <circle id="Oval" cx="128.928571" cy="291.785714" r="6.78571429"></circle>
            <circle id="Oval" cx="169.642857" cy="291.785714" r="6.78571429"></circle>
            <circle id="Oval" cx="210.357143" cy="291.785714" r="6.78571429"></circle>
            <circle id="Oval" cx="251.071429" cy="291.785714" r="6.78571429"></circle>
            <circle id="Oval" cx="291.785714" cy="291.785714" r="6.78571429"></circle>
            <circle id="Oval" cx="332.5" cy="291.785714" r="6.78571429"></circle>
            <circle id="Oval" cx="373.214286" cy="291.785714" r="6.78571429"></circle>
            <circle id="Oval" cx="6.78571429" cy="332.5" r="6.78571429"></circle>
            <circle id="Oval" cx="47.5" cy="332.5" r="6.78571429"></circle>
            <circle id="Oval" cx="88.2142857" cy="332.5" r="6.78571429"></circle>
            <circle id="Oval" cx="128.928571" cy="332.5" r="6.78571429"></circle>
            <circle id="Oval" cx="169.642857" cy="332.5" r="6.78571429"></circle>
            <circle id="Oval" cx="210.357143" cy="332.5" r="6.78571429"></circle>
            <circle id="Oval" cx="251.071429" cy="332.5" r="6.78571429"></circle>
            <circle id="Oval" cx="291.785714" cy="332.5" r="6.78571429"></circle>
            <circle id="Oval" cx="332.5" cy="332.5" r="6.78571429"></circle>
            <circle id="Oval" cx="373.214286" cy="332.5" r="6.78571429"></circle>
            <circle id="Oval" cx="6.78571429" cy="373.214286" r="6.78571429"></circle>
            <circle id="Oval" cx="47.5" cy="373.214286" r="6.78571429"></circle>
            <circle id="Oval" cx="88.2142857" cy="373.214286" r="6.78571429"></circle>
            <circle id="Oval" cx="128.928571" cy="373.214286" r="6.78571429"></circle>
            <circle id="Oval" cx="169.642857" cy="373.214286" r="6.78571429"></circle>
            <circle id="Oval" cx="210.357143" cy="373.214286" r="6.78571429"></circle>
            <circle id="Oval" cx="251.071429" cy="373.214286" r="6.78571429"></circle>
            <circle id="Oval" cx="291.785714" cy="373.214286" r="6.78571429"></circle>
            <circle id="Oval" cx="332.5" cy="373.214286" r="6.78571429"></circle>
            <circle id="Oval" cx="373.214286" cy="373.214286" r="6.78571429"></circle>
        </g>
        <g id="icon" transform="translate(24.000000, 7.000000)">
            <g id="Group" transform="translate(0.548600, 55.597201)">
                <g transform="translate(36.668863, 73.281493)" fill="#09A562" fill-rule="nonzero" id="Shape">
                    <path d="M40.9863262,86.755832 C35.7817133,91.9564541 35.7817133,100.407465 40.9863262,105.667185 C46.190939,110.867807 54.6484349,110.867807 59.9121911,105.667185 C95.9304778,69.6765163 154.600659,69.6765163 190.618946,105.667185 C193.221252,108.267496 196.651565,109.567652 200.081878,109.567652 C203.512191,109.567652 206.942504,108.267496 209.544811,105.667185 C214.749423,100.466563 214.749423,92.0155521 209.544811,86.755832 C163.058155,40.2457232 87.4138386,40.2457232 40.9863262,86.755832 Z"></path>
                    <path d="M77.1228995,122.864697 C71.9182867,128.065319 71.9182867,136.51633 77.1228995,141.77605 C82.3275124,146.976672 90.7850082,146.976672 96.0487644,141.77605 C112.13575,125.642302 138.336244,125.642302 154.423229,141.77605 C157.025535,144.376361 160.455848,145.676516 163.886161,145.676516 C167.316474,145.676516 170.746787,144.376361 173.349094,141.77605 C178.553707,136.575428 178.553707,128.124417 173.349094,122.923795 C146.79374,96.3297045 103.61911,96.3297045 77.1228995,122.864697 Z"></path>
                    <path d="M143.06771,170.911353 C143.06771,180.721617 135.083361,188.699844 125.265568,188.699844 C115.447776,188.699844 107.463427,180.721617 107.463427,170.911353 C107.463427,161.101089 115.447776,153.122862 125.265568,153.122862 C135.083361,153.063764 143.06771,161.041991 143.06771,170.911353 Z"></path>
                    <path d="M246.213674,49.9968896 C179.5,-16.6065319 70.9719934,-16.6065319 4.2583196,49.9968896 C-0.946293245,55.1975117 -0.946293245,63.6485226 4.2583196,68.9082426 C9.46293245,74.1088647 17.9204283,74.1088647 23.1841845,68.9082426 C79.4294893,12.6469673 170.983361,12.6469673 227.287809,68.9082426 C229.890115,71.5085537 233.320428,72.8087092 236.750741,72.8087092 C240.181054,72.8087092 243.611367,71.5085537 246.213674,68.9082426 C251.418287,63.7076205 251.418287,55.2566096 246.213674,49.9968896 Z"></path>
                </g>
                <ellipse id="Oval" stroke="#755399" stroke-width="25.5005412" cx="162.052718" cy="161.92846" rx="162.052718" ry="161.92846"></ellipse>
            </g>
            <g id="Group-2" transform="translate(183.000000, 0.000000)">
                <g id="Group" transform="translate(0.652015, 0.285714)">
                    <path d="M85.8662546,109.114286 C85.8662546,109.114286 122.489103,30.477551 0.46456044,0 C0.46456044,0 -8.59436813,119.971429 85.8662546,109.114286 Z" id="Shape" fill="#09A562" fill-rule="nonzero"></path>
                    <polyline id="Shape" stroke="#D2EA8E" stroke-width="3.69142857" stroke-linecap="round" points="13.3173993 16.1306122 85.8662546 109.114286 93.8412088 118.57551 103.984112 109.269388"></polyline>
                    <polyline id="Shape" stroke="#D2EA8E" stroke-width="3.69142857" stroke-linecap="round" points="41.4233059 21.1714286 34.6097527 43.5061224 12.3882784 44.2816327"></polyline>
                    <polyline id="Shape" stroke="#D2EA8E" stroke-width="3.69142857" stroke-linecap="round" points="65.0384615 40.3265306 52.8050366 66.6938776 22.2214744 71.2693878"></polyline>
                    <polyline id="Shape" stroke="#D2EA8E" stroke-width="3.69142857" stroke-linecap="round" points="82.3046245 68.7877551 71.8520147 91.2 45.9140568 94.5346939"></polyline>
                </g>
                <g id="Group" transform="translate(100.532509, 23.551020)">
                    <path d="M4.10361722,86.0040816 C4.10361722,86.0040816 72.2391484,101.902041 76.1104853,0.231957988 C76.1104853,0.155102041 -20.1309524,12.9510204 4.10361722,86.0040816 Z" id="Shape" fill="#6CC04A" fill-rule="nonzero"></path>
                    <path d="M4.10361722,86.0040816 L65.4255952,13.0285714" id="Shape" stroke="#D2EA8E" stroke-width="2.98323265" stroke-linecap="round"></path>
                    <polyline id="Shape" stroke="#D2EA8E" stroke-width="2.98323265" stroke-linecap="round" points="66.1998626 36.1387755 47.4625916 34.4326531 43.1266941 16.9836735"></polyline>
                    <polyline id="Shape" stroke="#D2EA8E" stroke-width="2.98323265" stroke-linecap="round" points="54.9729853 58.0081633 32.1320971 52.6571429 23.4603022 29.2367347"></polyline>
                    <polyline id="Shape" stroke="#D2EA8E" stroke-width="2.98323265" stroke-linecap="round" points="35.3840201 76.4653061 15.9499084 71.8897959 8.98150183 51.8816327"></polyline>
                </g>
            </g>
        </g>
    </g>
</svg>