<?xml version="1.0" encoding="UTF-8"?>
<svg width="400px" height="400px" viewBox="0 0 400 400" version="1.1" xmlns="http://www.w3.org/2000/svg" xmlns:xlink="http://www.w3.org/1999/xlink">
    <!-- Generator: Sketch 52.5 (67469) - http://www.bohemiancoding.com/sketch -->
    <title>terra-climate</title>
    <desc>Created with Sketch.</desc>
    <g id="terra-climate" stroke="none" stroke-width="1" fill="none" fill-rule="evenodd">
        <path d="M319.087098,10.65 C308.670497,10.65 300.195622,19.1735597 300.195622,29.65 L300.195622,110.4 C300.195622,120.87644 308.670497,129.4 319.087098,129.4 C329.5037,129.4 337.978575,120.87644 337.978575,110.4 L337.978575,29.65 C337.978575,19.1735597 329.5037,10.65 319.087098,10.65 Z" id="Path" fill="#F0A0AB"></path>
        <path d="M319.087098,29.65 C316.478912,29.65 314.364229,31.7768309 314.364229,34.4 L314.364229,39.15 L304.918491,39.15 C302.310305,39.15 300.195622,41.2768309 300.195622,43.9 C300.195622,46.5231691 302.310305,48.65 304.918491,48.65 L314.364229,48.65 L314.364229,53.4 L304.918491,53.4 C302.310305,53.4 300.195622,55.5268309 300.195622,58.15 C300.195622,60.7731691 302.310305,62.9 304.918491,62.9 L314.364229,62.9 L314.364229,67.65 L304.918491,67.65 C302.310305,67.65 300.195622,69.7768309 300.195622,72.4 C300.195622,75.0231691 302.310305,77.15 304.918491,77.15 L314.364229,77.15 L314.364229,81.9 L304.918491,81.9 C302.310305,81.9 300.195622,84.0268309 300.195622,86.65 C300.195622,89.2731691 302.310305,91.4 304.918491,91.4 L314.364229,91.4 L314.364229,96.15 L304.918491,96.15 C302.310305,96.15 300.195622,98.2768309 300.195622,100.9 C300.195622,103.523169 302.310305,105.65 304.918491,105.65 L314.364229,105.65 L314.364229,110.4 C314.364229,113.023169 316.478912,115.15 319.087098,115.15 C321.695284,115.15 323.809967,113.023169 323.809967,110.4 L323.809967,34.4 C323.809967,31.7768309 321.695284,29.65 319.087098,29.65 Z" id="Path" fill="#E55B6B"></path>
        <path d="M357.59292,67.15 C349.779893,67.15 343.424313,60.7579102 343.424313,52.9 C343.424313,45.0420898 349.779893,38.65 357.59292,38.65 C365.405948,38.65 371.761528,45.0420898 371.761528,52.9 C371.761528,60.7579102 365.405948,67.15 357.59292,67.15 Z M357.59292,48.15 C354.989347,48.15 352.870051,50.2814699 352.870051,52.9 C352.870051,55.5185301 354.989347,57.65 357.59292,57.65 C360.196494,57.65 362.315789,55.5185301 362.315789,52.9 C362.315789,50.2814699 360.196494,48.15 357.59292,48.15 Z" id="Shape" fill="#AFAFAF" fill-rule="nonzero"></path>
        <path d="M381.207266,76.65 L362.315789,76.65 C359.707603,76.65 357.59292,78.7768309 357.59292,81.4 L357.59292,114.65 C357.59292,117.273169 359.707603,119.4 362.315789,119.4 C364.923976,119.4 367.038659,117.273169 367.038659,114.65 L367.038659,105.15 L376.484397,105.15 C379.092583,105.15 381.207266,103.023169 381.207266,100.4 C381.207266,97.7768309 379.092583,95.65 376.484397,95.65 L367.038659,95.65 L367.038659,86.15 L381.207266,86.15 C383.815452,86.15 385.930135,84.0231691 385.930135,81.4 C385.930135,78.7768309 383.815452,76.65 381.207266,76.65 Z" id="Path" fill="#AFAFAF"></path>
        <g id="Group-2" transform="translate(52.000000, 93.000000)">
            <path d="M148.5,0.125 C66.6161719,0.125 0,66.7131348 0,148.5625 L0,291.0625 C0,294.341461 2.65965802,297 5.94,297 L291.06,297 C294.340342,297 297,294.341461 297,291.0625 L297,148.5625 C297,66.7131348 230.383828,0.125 148.5,0.125 Z" id="Path" fill="#E8F7FC"></path>
            <path d="M23.76,291.0625 L23.76,148.5625 C23.76,70.7110903 84.0301172,6.67132531 160.38,0.600463867 C156.458672,0.2902525 152.499639,0.125 148.5,0.125 C66.6161719,0.125 -3.97903932e-13,66.7131348 -3.97903932e-13,148.5625 L-3.97903932e-13,291.0625 C-3.97903932e-13,294.341461 2.65965802,297 5.94,297 L29.7,297 C26.419658,297 23.76,294.341461 23.76,291.0625 Z" id="Path" fill="#9EDFF5" opacity="0.4"></path>
            <path d="M123.463828,153.972351 C105.281279,142.288696 59.7248437,153.006927 54.5911527,154.268066 C51.5254393,155.018952 49.5850781,158.036987 50.1709567,161.139099 C51.1570902,166.331512 60.3078221,212.210876 78.4903715,223.894531 C85.431006,228.356354 93.2098533,230.487243 100.910391,230.484344 C114.597334,230.484344 128.014541,223.749573 135.95001,211.413605 C148.34918,192.134125 142.748525,166.369202 123.463828,153.972351 Z" id="Path" fill="#BFE15C"></path>
            <path d="M110.240947,218.600647 C102.543311,218.600647 94.7615625,216.469757 87.8209279,212.010834 C71.9238871,201.79126 62.9297752,165.426971 60.264316,152.986634 C57.4538377,153.578064 55.4525685,154.056427 54.5911527,154.268066 C51.5254393,155.018952 49.5850781,158.036987 50.1738576,161.139099 C51.1570902,166.331512 60.3078221,212.210876 78.4903715,223.894531 C85.431006,228.356354 93.2127535,230.487243 100.910391,230.484344 C114.597334,230.484344 128.014541,223.749573 135.95001,211.413605 C136.6258,210.364105 137.234883,209.294312 137.803359,208.210022 C130.117325,214.979584 120.255996,218.600647 110.240947,218.600647 Z" id="Path" fill="#6CC04A"></path>
            <path d="M238.78916,191.03244 C233.606162,189.977142 187.663975,181.067993 169.95709,193.461945 C151.179961,206.609681 146.603144,232.577545 159.753516,251.349671 C167.834004,262.879669 180.752344,269.054901 193.870811,269.054901 C202.105019,269.054901 210.42334,266.619598 217.665615,261.54895 C235.3696,249.154999 242.698887,202.950928 243.476191,197.723724 C243.940254,194.601318 241.880977,191.664459 238.78916,191.03244 Z" id="Path" fill="#BFE15C"></path>
            <path d="M238.78916,191.03244 C238.322197,190.939667 237.518789,190.777313 236.436944,190.577271 C233.748281,205.020935 226.210166,237.793151 211.725615,247.931549 C204.480439,253.002197 196.165019,255.4375 187.930811,255.4375 C174.812344,255.4375 161.894004,249.265167 153.813516,237.732269 C153.651094,237.503235 153.506075,237.268402 153.349453,237.036468 C154.521211,242.034637 156.632695,246.896546 159.753516,251.349671 C167.834004,262.882568 180.752344,269.054901 193.870811,269.054901 C202.105019,269.054901 210.42334,266.619598 217.665615,261.54895 C235.3696,249.154999 242.698887,202.950928 243.476191,197.723724 C243.940254,194.601318 241.880977,191.664459 238.78916,191.03244 Z" id="Path" fill="#6CC04A"></path>
            <path d="M219.603076,212.434113 C218.808369,209.253724 215.588936,207.317077 212.398506,208.114349 C210.095596,208.691284 169.237793,219.197876 148.4971,243.368255 C148.430391,222.004272 137.28999,202.939331 116.267959,188.228942 C100.811778,177.415039 85.509316,172.756073 84.8683299,172.564728 C81.7272067,171.622497 78.4207621,173.402588 77.4752344,176.539489 C76.5297067,179.676392 78.3105469,182.987243 81.445869,183.935272 C81.9998438,184.103424 136.62,201.104157 136.62,243.5625 L136.62,291.0625 C136.62,294.341461 139.279658,297 142.56,297 C145.840342,297 148.5,294.341461 148.5,291.0625 L148.5,273.25 C148.5,236.816131 214.617305,219.800903 215.284394,219.635651 C218.466123,218.838379 220.397783,215.614502 219.603076,212.434113 Z" id="Path" fill="#998273"></path>
        </g>
    </g>
</svg>