<?xml version="1.0" encoding="UTF-8"?>
<svg width="400px" height="400px" viewBox="0 0 400 400" version="1.1" xmlns="http://www.w3.org/2000/svg" xmlns:xlink="http://www.w3.org/1999/xlink">
    <!-- Generator: Sketch 52.5 (67469) - http://www.bohemiancoding.com/sketch -->
    <title>terra-energy</title>
    <desc>Created with Sketch.</desc>
    <g id="terra-energy" stroke="none" stroke-width="1" fill="none" fill-rule="evenodd">
        <g id="Group-2" transform="translate(52.000000, 93.000000)">
            <path d="M148.5,0.125 C66.6161719,0.125 0,66.7131348 0,148.5625 L0,291.0625 C0,294.341461 2.65965802,297 5.94,297 L291.06,297 C294.340342,297 297,294.341461 297,291.0625 L297,148.5625 C297,66.7131348 230.383828,0.125 148.5,0.125 Z" id="Path" fill="#E8F7FC"></path>
            <path d="M23.76,291.0625 L23.76,148.5625 C23.76,70.7110903 84.0301172,6.67132531 160.38,0.600463867 C156.458672,0.2902525 152.499639,0.125 148.5,0.125 C66.6161719,0.125 -3.97903932e-13,66.7131348 -3.97903932e-13,148.5625 L-3.97903932e-13,291.0625 C-3.97903932e-13,294.341461 2.65965802,297 5.94,297 L29.7,297 C26.419658,297 23.76,294.341461 23.76,291.0625 Z" id="Path" fill="#9EDFF5" opacity="0.4"></path>
            <path d="M123.463828,153.972351 C105.281279,142.288696 59.7248437,153.006927 54.5911527,154.268066 C51.5254393,155.018952 49.5850781,158.036987 50.1709567,161.139099 C51.1570902,166.331512 60.3078221,212.210876 78.4903715,223.894531 C85.431006,228.356354 93.2098533,230.487243 100.910391,230.484344 C114.597334,230.484344 128.014541,223.749573 135.95001,211.413605 C148.34918,192.134125 142.748525,166.369202 123.463828,153.972351 Z" id="Path" fill="#BFE15C"></path>
            <path d="M110.240947,218.600647 C102.543311,218.600647 94.7615625,216.469757 87.8209279,212.010834 C71.9238871,201.79126 62.9297752,165.426971 60.264316,152.986634 C57.4538377,153.578064 55.4525685,154.056427 54.5911527,154.268066 C51.5254393,155.018952 49.5850781,158.036987 50.1738576,161.139099 C51.1570902,166.331512 60.3078221,212.210876 78.4903715,223.894531 C85.431006,228.356354 93.2127535,230.487243 100.910391,230.484344 C114.597334,230.484344 128.014541,223.749573 135.95001,211.413605 C136.6258,210.364105 137.234883,209.294312 137.803359,208.210022 C130.117325,214.979584 120.255996,218.600647 110.240947,218.600647 Z" id="Path" fill="#6CC04A"></path>
            <path d="M238.78916,191.03244 C233.606162,189.977142 187.663975,181.067993 169.95709,193.461945 C151.179961,206.609681 146.603144,232.577545 159.753516,251.349671 C167.834004,262.879669 180.752344,269.054901 193.870811,269.054901 C202.105019,269.054901 210.42334,266.619598 217.665615,261.54895 C235.3696,249.154999 242.698887,202.950928 243.476191,197.723724 C243.940254,194.601318 241.880977,191.664459 238.78916,191.03244 Z" id="Path" fill="#BFE15C"></path>
            <path d="M238.78916,191.03244 C238.322197,190.939667 237.518789,190.777313 236.436944,190.577271 C233.748281,205.020935 226.210166,237.793151 211.725615,247.931549 C204.480439,253.002197 196.165019,255.4375 187.930811,255.4375 C174.812344,255.4375 161.894004,249.265167 153.813516,237.732269 C153.651094,237.503235 153.506075,237.268402 153.349453,237.036468 C154.521211,242.034637 156.632695,246.896546 159.753516,251.349671 C167.834004,262.882568 180.752344,269.054901 193.870811,269.054901 C202.105019,269.054901 210.42334,266.619598 217.665615,261.54895 C235.3696,249.154999 242.698887,202.950928 243.476191,197.723724 C243.940254,194.601318 241.880977,191.664459 238.78916,191.03244 Z" id="Path" fill="#6CC04A"></path>
            <path d="M219.603076,212.434113 C218.808369,209.253724 215.588936,207.317077 212.398506,208.114349 C210.095596,208.691284 169.237793,219.197876 148.4971,243.368255 C148.430391,222.004272 137.28999,202.939331 116.267959,188.228942 C100.811778,177.415039 85.509316,172.756073 84.8683299,172.564728 C81.7272067,171.622497 78.4207621,173.402588 77.4752344,176.539489 C76.5297067,179.676392 78.3105469,182.987243 81.445869,183.935272 C81.9998438,184.103424 136.62,201.104157 136.62,243.5625 L136.62,291.0625 C136.62,294.341461 139.279658,297 142.56,297 C145.840342,297 148.5,294.341461 148.5,291.0625 L148.5,273.25 C148.5,236.816131 214.617305,219.800903 215.284394,219.635651 C218.466123,218.838379 220.397783,215.614502 219.603076,212.434113 Z" id="Path" fill="#998273"></path>
            <path d="M148.5,35.75 C135.398936,35.75 124.74,46.4044496 124.74,59.5 C124.74,72.5955504 135.398936,83.25 148.5,83.25 C161.601064,83.25 172.26,72.5955504 172.26,59.5 C172.26,46.4044496 161.601064,35.75 148.5,35.75 Z" id="Path" fill="#FFF3E7"></path>
            <path d="M148.5,29.8125 C145.219658,29.8125 142.56,27.1539614 142.56,23.875 L142.56,6.0625 C142.56,2.78353863 145.219658,0.125 148.5,0.125 C151.780342,0.125 154.44,2.78353863 154.44,6.0625 L154.44,23.875 C154.44,27.1539614 151.780342,29.8125 148.5,29.8125 Z" id="Path" fill="#7E6F75"></path>
            <path d="M148.5,17.9375 C125.572412,17.9375 106.92,36.582062 106.92,59.5 C106.92,62.7789614 109.579658,65.4375 112.86,65.4375 L184.14,65.4375 C187.420342,65.4375 190.08,62.7789614 190.08,59.5 C190.08,36.582062 171.427588,17.9375 148.5,17.9375 Z" id="Path" fill="#AFAFAF"></path>
            <path d="M124.74,59.5 C124.74,39.6406864 138.751787,22.9965513 157.41,18.9087221 C154.538613,18.2796024 151.557012,17.9375 148.5,17.9375 C125.572412,17.9375 106.92,36.582062 106.92,59.5 C106.92,62.7789614 109.579658,65.4375 112.86,65.4375 L130.68,65.4375 C127.399658,65.4375 124.74,62.7789614 124.74,59.5 Z" id="Path" fill="#747371" opacity="0.4"></path>
            <path d="M148.5,112.9375 C145.219658,112.9375 142.56,110.278961 142.56,107 L142.56,95.125 C142.56,91.8460386 145.219658,89.1875 148.5,89.1875 C151.780342,89.1875 154.44,91.8460386 154.44,95.125 L154.44,107 C154.44,110.278961 151.780342,112.9375 148.5,112.9375 Z" id="Path" fill="#FEEE99"></path>
            <path d="M184.14,107 C182.620195,107 181.100391,106.420166 179.940234,105.260498 L168.060234,93.385498 C165.739922,91.0661621 165.739922,87.3088379 168.060234,84.989502 C170.380547,82.670166 174.139453,82.670166 176.459766,84.989502 L188.339766,96.864502 C190.660078,99.1838379 190.660078,102.941162 188.339766,105.260498 C187.179609,106.420166 185.659805,107 184.14,107 Z" id="Path" fill="#FEEE99"></path>
            <path d="M112.86,107 C111.340195,107 109.820391,106.420166 108.660234,105.260498 C106.339922,102.941162 106.339922,99.1838379 108.660234,96.864502 L120.540234,84.989502 C122.860547,82.670166 126.619453,82.670166 128.939766,84.989502 C131.260078,87.3088379 131.260078,91.0661621 128.939766,93.385498 L117.059766,105.260498 C115.899609,106.420166 114.379805,107 112.86,107 Z" id="Path" fill="#FEEE99"></path>
        </g>
        <g id="Group" transform="translate(312.000000, 10.000000)">
            <path d="M27.76295,118.37618 L73.43205,39.3425156 C74.4659687,37.5530996 72.9996125,35.3511348 70.959525,35.630041 L40.5816,39.7799336 L47.8398437,1.48099219 C48.0845062,0.189888672 46.4282937,-0.549910156 45.6388062,0.497615234 L0.73606875,60.069666 C-0.57188125,61.8046953 0.813075,64.2718535 2.9669375,64.0440801 L36.4584125,60.5008086 L25.4788937,117.515754 C25.2141125,118.890994 27.0629562,119.587563 27.76295,118.37618 Z" id="Path" fill="#FFE24E"></path>
            <path d="M14.7780312,55.8479551 C13.9392875,55.9153574 13.3822062,54.9938047 13.8280562,54.2767832 L47.4007,0.288435547 C46.9012,-0.108773438 46.11495,-0.134339844 45.6388062,0.497382812 L0.73606875,60.0694336 C-0.57188125,61.8046953 0.813075,64.2716211 2.9669375,64.0438477 L36.4584125,60.5005762 L25.4788937,117.515521 C25.3308937,118.284605 25.8470437,118.825684 26.450375,118.955143 L45.2646437,59.1188281 C46.1466312,56.3141934 43.9215437,53.5044453 41.004325,53.7391914 L14.7780312,55.8479551 Z" id="Path" fill="#FFA84E" opacity="0.6"></path>
        </g>
    </g>
</svg>