<?xml version="1.0" encoding="UTF-8"?>
<svg width="400px" height="400px" viewBox="0 0 400 400" version="1.1" xmlns="http://www.w3.org/2000/svg" xmlns:xlink="http://www.w3.org/1999/xlink">
    <!-- Generator: Sketch 52.5 (67469) - http://www.bohemiancoding.com/sketch -->
    <title>terra-water</title>
    <desc>Created with Sketch.</desc>
    <g id="terra-water" stroke="none" stroke-width="1" fill="none" fill-rule="evenodd">
        <path d="M204.710102,106.7482 C202.417903,104.452057 198.582097,104.452057 196.2928,106.7482 C191.853478,111.195526 87.5961538,216.409302 87.5961538,277.1875 C87.5961538,339.39209 138.245042,390 200.5,390 C262.754958,390 313.403846,339.39209 313.403846,277.1875 C313.403846,216.409302 209.146522,111.195526 204.710102,106.7482 Z" id="Path" fill="#9EDFF5"></path>
        <path d="M224.269231,372.1875 C162.014273,372.1875 111.365385,321.57959 111.365385,259.375 C111.365385,212.475128 173.437547,139.126129 203.828041,106.026306 C201.524235,104.486847 198.309354,104.724579 196.2928,106.7453 C191.853478,111.195526 87.5961538,216.409302 87.5961538,277.1875 C87.5961538,339.39209 138.245042,390 200.5,390 C231.183547,390 259.041016,377.701722 279.412569,357.787323 C263.094435,366.951599 244.283898,372.1875 224.269231,372.1875 Z" id="Path" fill="#58C8EE" opacity="0.6"></path>
        <path d="M329.890268,37.9682924 C317.9041,23.3100893 306.103628,12.098999 305.607469,11.6293331 C303.31527,9.45785504 299.723191,9.45785504 297.430993,11.6293331 C296.934833,12.098999 285.134362,23.3100893 273.148194,37.9682924 C256.48768,58.3436586 248.038462,74.9037172 248.038462,87.1875 C248.038462,116.654663 272.031109,140.625 301.519231,140.625 C331.010254,140.625 355,116.654663 355,87.1875 C355,74.9037172 346.550781,58.3436586 329.890268,37.9682924 Z" id="Path" fill="#9EDFF5"></path>
        <path d="M319.346154,128.75 C289.858032,128.75 265.865385,104.779663 265.865385,75.3125 C265.865385,63.0287172 274.314603,46.4686586 290.975117,26.0932924 C295.719097,20.2920536 300.431162,15.035858 304.426551,10.7653809 C302.20689,9.51873742 299.360502,9.80285645 297.433894,11.6293331 C296.934833,12.098999 285.134362,23.3100893 273.148194,37.9682924 C256.48768,58.3436586 248.038462,74.9037172 248.038462,87.1875 C248.038462,116.654663 272.031109,140.625 301.519231,140.625 C316.334378,140.625 329.753897,134.574432 339.450768,124.818726 C333.238619,127.346802 326.454871,128.75 319.346154,128.75 Z" id="Path" fill="#58C8EE" opacity="0.6"></path>
        <path d="M127.851806,37.9682924 C115.865638,23.3100893 104.065167,12.098999 103.569007,11.6293331 C101.276809,9.45785504 97.6847298,9.45785504 95.3925314,11.6293331 C94.8963717,12.098999 83.0959001,23.3100893 71.1097322,37.9682924 C54.4492188,58.3436586 46,74.9037172 46,87.1875 C46,116.654663 69.9926474,140.625 99.4807692,140.625 C128.971792,140.625 152.961538,116.654663 152.961538,87.1875 C152.961538,74.9037172 144.515221,58.3436586 127.851806,37.9682924 Z" id="Path" fill="#9EDFF5"></path>
        <path d="M117.307692,128.75 C87.8195705,128.75 63.8269231,104.779663 63.8269231,75.3125 C63.8269231,63.0287172 72.2761418,46.4686586 88.9366553,26.0932924 C93.6806357,20.2920536 98.3927,15.035858 102.388089,10.7653809 C100.168429,9.51873742 97.3220403,9.79995746 95.3925314,11.6293331 C94.8963717,12.098999 83.0959001,23.3100893 71.1097322,37.9682924 C54.4492188,58.3436586 46,74.9037172 46,87.1875 C46,116.654663 69.9926474,140.625 99.4807692,140.625 C114.293016,140.625 127.715436,134.574432 137.412306,124.818726 C131.200158,127.346802 124.41641,128.75 117.307692,128.75 Z" id="Path" fill="#58C8EE" opacity="0.6"></path>
        <path d="M343.115385,336.5625 C343.115385,362.797088 321.832754,384.0625 295.576923,384.0625 C269.321092,384.0625 248.038462,362.797088 248.038462,336.5625 C248.038462,310.330811 269.321092,289.0625 295.576923,289.0625 C321.832754,289.0625 343.115385,310.330811 343.115385,336.5625 Z" id="Path" fill="#FEEE99"></path>
        <path d="M313.403846,372.1875 C287.150916,372.1875 265.865385,350.922088 265.865385,324.6875 C265.865385,312.070312 270.800866,300.609894 278.832266,292.103729 C260.842858,298.870392 248.038462,316.219025 248.038462,336.5625 C248.038462,362.797088 269.323993,384.0625 295.576923,384.0625 C309.202449,384.0625 321.481671,378.325043 330.148503,369.14917 C324.940279,371.109009 319.29973,372.1875 313.403846,372.1875 Z" id="Path" fill="#FFE24E"></path>
        <path d="M295.576923,283.125 C266.088801,283.125 242.096154,307.098236 242.096154,336.5625 C242.096154,366.029663 266.088801,390 295.576923,390 C325.067946,390 349.057692,366.029663 349.057692,336.5625 C349.057692,307.098236 325.067946,283.125 295.576923,283.125 Z M301.519231,377.695923 L301.519231,366.25 C301.519231,362.971039 298.858539,360.3125 295.576923,360.3125 C292.295307,360.3125 289.634615,362.971039 289.634615,366.25 L289.634615,377.693024 C271.445003,375.083771 257.027362,360.674896 254.413095,342.5 L265.865385,342.5 C269.147001,342.5 271.807692,339.841461 271.807692,336.5625 C271.807692,333.283539 269.147001,330.625 265.865385,330.625 L254.413095,330.625 C257.027362,312.453003 271.445003,298.044128 289.634615,295.431976 L289.634615,306.875 C289.634615,310.153961 292.295307,312.8125 295.576923,312.8125 C298.858539,312.8125 301.519231,310.153961 301.519231,306.875 L301.519231,295.431976 C319.708843,298.044128 334.126484,312.453003 336.740751,330.625 L325.288462,330.625 C322.006845,330.625 319.346154,333.283539 319.346154,336.5625 C319.346154,339.841461 322.006845,342.5 325.288462,342.5 L336.740751,342.5 C334.129385,360.674896 319.708843,375.083771 301.519231,377.695923 Z" id="Shape" fill="#747371" fill-rule="nonzero"></path>
        <path d="M295.579824,342.5 C294.044922,342.5 292.524527,341.908569 291.375526,340.760498 L273.548603,322.947998 C271.227389,320.631561 271.227389,316.871338 273.548603,314.552002 C275.869817,312.235565 279.630183,312.235565 281.951397,314.552002 L296.334219,328.923187 L310.107722,319.747314 C312.83805,317.929535 316.52878,318.665924 318.348032,321.394043 C320.167283,324.122162 319.430298,327.809906 316.69997,329.627686 L298.873047,341.502686 C297.869122,342.172394 296.720121,342.5 295.579824,342.5 Z" id="Path" fill="#383736"></path>
    </g>
</svg>