<?xml version="1.0" encoding="UTF-8"?>
<svg width="400px" height="400px" viewBox="0 0 400 400" version="1.1" xmlns="http://www.w3.org/2000/svg" xmlns:xlink="http://www.w3.org/1999/xlink">
    <!-- Generator: Sketch 52.5 (67469) - http://www.bohemiancoding.com/sketch -->
    <title>why-value</title>
    <desc>Created with Sketch.</desc>
    <g id="why-value" stroke="none" stroke-width="1" fill="none" fill-rule="evenodd">
        <path d="M194.050903,47.2963511 C194.050903,47.2963511 205.949097,23.5182446 229.745483,23.5182446 C253.54187,23.5182446 277.338257,47.2963511 277.338257,47.2963511 C277.338257,47.2963511 253.54187,71.0744576 229.745483,71.0744576 C205.949097,71.0744576 194.050903,47.2963511 194.050903,47.2963511 Z" id="Path" fill="#BFE15C"></path>
        <path d="M229.745483,55.2542531 C215.145264,55.2542531 205.03006,46.3026995 199.388275,39.3848001 C195.836792,43.7418021 194.050903,47.2963511 194.050903,47.2963511 C194.050903,47.2963511 205.949097,71.0744576 229.745483,71.0744576 C253.54187,71.0744576 277.338257,47.2963511 277.338257,47.2963511 C277.338257,47.2963511 273.775177,43.7418021 268.043518,39.3848001 C258.940124,46.3026995 244.345703,55.2542531 229.745483,55.2542531 Z" id="Path" fill="#AED835"></path>
        <path d="M176.203613,136.46425 C86.9671631,71.0744576 15.5780029,134.804302 15.5780029,235.861255 C15.5780029,348.807261 122.661743,403.967949 176.203613,374.245316 C229.745483,403.967949 336.829224,348.807261 336.829224,235.861255 C336.829224,134.804302 265.440063,71.0744576 176.203613,136.46425 Z" id="Path" fill="#E55B6B"></path>
        <path d="M51.272583,229.916728 C51.272583,171.81854 74.8689272,126.061329 111.885529,110.078895 C55.0067139,106.27521 15.5780029,160.758013 15.5780029,235.861255 C15.5780029,346.368035 118.075257,401.543208 172.65213,376.038523 C118.16803,372.347818 51.272583,319.188918 51.272583,229.916728 Z" id="Path" fill="#DB132B" opacity="0.6"></path>
        <path d="M360.62561,310.868898 L223.796387,310.868898 L182.15271,346.536058 L182.15271,180.089312 C182.15271,166.95747 192.80716,156.311206 205.949097,156.311206 L360.62561,156.311206 C373.767547,156.311206 384.421997,166.95747 384.421997,180.089312 L384.421997,287.090792 C384.421997,300.222633 373.767547,310.868898 360.62561,310.868898 Z" id="Path" fill="#F1EFF0"></path>
        <path d="M360.62561,287.090792 L223.796387,287.090792 L182.15271,322.757951 L182.15271,346.536058 L223.796387,310.868898 L360.62561,310.868898 C373.767547,310.868898 384.421997,300.222633 384.421997,287.090792 L384.421997,263.312685 C384.421997,276.444527 373.767547,287.090792 360.62561,287.090792 Z" id="Path" fill="#EAE7E8"></path>
        <path d="M229.745483,76.6481755 C255.556793,76.6481755 280.243225,52.2732992 281.284027,51.2361933 C283.461304,49.0605891 283.461304,45.5321131 281.284027,43.3565089 C280.246124,42.3165062 255.556793,17.9445266 229.745483,17.9445266 C202.812194,17.9445266 189.609375,43.7070388 189.061432,44.8020835 C188.278656,46.3722261 188.278656,48.220476 189.061432,49.7877219 C189.609375,50.8856634 202.812194,76.6481755 229.745483,76.6481755 Z M229.745483,29.0919625 C245.296631,29.0919625 261.442108,40.9288704 269.000244,47.2963511 C261.439209,53.6638317 245.293732,65.5007396 229.745483,65.5007396 C214.03778,65.5007396 204.102326,52.8092334 200.52475,47.2963511 C204.102326,41.7834687 214.03778,29.0919625 229.745483,29.0919625 Z" id="Shape" fill="#212121" fill-rule="nonzero"></path>
        <path d="M360.62561,150.737488 L321.599884,150.737488 C307.283783,126.466901 287.024383,111.008814 262.981567,106.026072 C237.75589,100.797091 209.860077,107.642567 181.781616,125.841161 L181.781616,17.5737179 C181.781616,14.4942676 179.285431,12 176.203613,12 C173.124694,12 170.62561,14.4942676 170.62561,17.5737179 L170.62561,125.858543 C134.736786,102.619268 99.137878,97.9957469 69.5083622,112.999014 C51.3363644,122.199704 36.2229918,138.489214 25.7975767,160.109098 C15.4620361,181.543577 10,207.737734 10,235.861255 C10,266.255979 17.384186,294.081114 31.9467159,318.568972 C44.7320557,340.070082 62.6721191,358.007951 83.8215639,370.44163 C115.8284,389.263067 150.885163,393.014608 176.203613,380.537475 C186.034699,385.38406 197.350159,387.808802 209.459992,387.808802 C222.645416,387.808802 236.773071,384.932137 250.935516,379.178809 C280.222931,367.283962 305.332642,345.012266 321.698456,316.442616 L360.62561,316.442616 C376.823273,316.442616 390,303.27601 390,287.090792 L390,180.089312 C390,163.904093 376.823273,150.737488 360.62561,150.737488 Z M378.843994,287.090792 C378.843994,297.128698 370.674134,305.29518 360.62561,305.29518 L223.796387,305.29518 C222.465668,305.29518 221.178436,305.773176 220.166626,306.636464 L187.730713,334.418146 L187.730713,180.089312 C187.730713,170.051406 195.903473,161.884924 205.949097,161.884924 L242.388763,161.884924 C245.467682,161.884924 247.963867,159.387759 247.963867,156.311206 C247.963867,153.231755 245.467682,150.737488 242.388763,150.737488 L205.949097,150.737488 C189.751434,150.737488 176.574707,163.904093 176.574707,180.089312 L176.574707,346.536058 C176.574707,351.185651 182.228089,353.813178 185.782471,350.768491 L225.860596,316.442616 L308.672485,316.442616 C293.573608,340.19465 271.803742,358.671351 246.734619,368.854105 C221.500244,379.103488 196.779022,379.294687 178.914337,369.375555 C177.22702,368.439842 175.180206,368.439842 173.495788,369.375555 C151.450501,381.615138 119.255218,378.34449 89.4807436,360.835368 C46.6976925,335.68411 21.1560059,288.962216 21.1560059,235.861255 C21.1560059,182.887759 41.6154478,139.619021 74.5500181,122.941321 C102.680664,108.697054 137.609863,115.093504 172.904358,140.957409 C174.843903,142.376911 177.563324,142.376911 179.502868,140.957409 C207.932129,120.125493 236.013489,111.817061 260.717316,116.938856 C279.698181,120.872905 296.069794,132.507027 308.417358,150.737488 L268.414612,150.737488 C265.332794,150.737488 262.836609,153.231755 262.836609,156.311206 C262.836609,159.387759 265.332794,161.884924 268.414612,161.884924 L360.62561,161.884924 C370.674134,161.884924 378.843994,170.051406 378.843994,180.089312 L378.843994,287.090792 Z" id="Shape" fill="#212121" fill-rule="nonzero"></path>
        <path d="M354.676514,275.572547 L217.476196,275.572547 L217.476196,186.033839 C217.476196,182.954389 214.980011,180.460121 211.898193,180.460121 C208.816376,180.460121 206.32019,182.954389 206.32019,186.033839 L206.32019,281.146265 C206.32019,284.222818 208.816376,286.719983 211.898193,286.719983 L354.676514,286.719983 C357.758331,286.719983 360.254517,284.222818 360.254517,281.146265 C360.254517,278.069711 357.758331,275.572547 354.676514,275.572547 Z" id="Path" fill="#212121"></path>
        <path d="M233.691253,261.308001 L253.54187,241.469736 L273.395386,261.308001 C275.891571,263.802268 280.196839,263.312685 282.066803,260.32304 L308.09845,218.705559 L320.988159,231.585368 C323.638001,234.233173 328.247681,233.479968 329.920502,230.136896 L347.767792,194.469736 C349.144897,191.71764 348.028717,188.368774 345.271606,186.992727 C342.517395,185.616679 339.165954,186.732002 337.788849,189.486995 L323.403168,218.236255 L311.026611,205.872103 C308.527526,203.374938 304.225159,203.867419 302.352295,206.857064 L276.323548,248.474544 L257.484741,229.65021 C255.304565,227.471709 251.776276,227.471709 249.5961,229.65021 L225.799713,253.428316 C223.622437,255.60392 223.622437,259.132396 225.799713,261.308001 C227.979889,263.483604 231.511078,263.483604 233.691253,261.308001 Z" id="Path" fill="#203298"></path>
    </g>
</svg>