<?xml version="1.0" encoding="UTF-8"?>
<svg width="400px" height="400px" viewBox="0 0 400 400" version="1.1" xmlns="http://www.w3.org/2000/svg" xmlns:xlink="http://www.w3.org/1999/xlink">
    <!-- Generator: Sketch 52.5 (67469) - http://www.bohemiancoding.com/sketch -->
    <title>why-dome</title>
    <desc>Created with Sketch.</desc>
    <g id="why-dome" stroke="none" stroke-width="1" fill="none" fill-rule="evenodd">
        <path d="M199.896094,17.5044965 C98.9623045,17.5044965 17.1398438,99.2925201 17.1398438,200.183829 L17.1398438,382.863161 L382.652344,382.863161 L382.652344,200.183829 C382.652344,99.2925201 300.829883,17.5044965 199.896094,17.5044965 Z" id="Path" fill="#F9FAFC"></path>
        <path d="M215.125781,18.1387999 C210.104883,17.727059 205.024609,17.5044965 199.896094,17.5044965 C98.9623045,17.5044965 17.1398437,99.2925201 17.1398437,200.183829 L17.1398437,382.863161 L47.5992187,382.863161 L47.5992187,200.183829 C47.5992187,104.418878 121.320704,25.8765571 215.125781,18.1387999 Z" id="Path" fill="#AFAFAF" opacity="0.3"></path>
        <path d="M114.2625,290.351332 C93.0396482,276.711958 81.3279295,214.887794 81.3279295,214.887794 C81.3279295,214.887794 142.458204,199.88337 163.681054,213.522744 C184.907617,227.165828 191.049219,255.420142 177.404102,276.637771 C163.755273,297.85169 135.485352,303.994416 114.2625,290.351332 Z" id="Path" fill="#BFE15C"></path>
        <path d="M129.492187,275.128055 C114.073242,265.220312 103.678906,229.892218 99.1404294,211.300827 C88.6681643,213.088747 81.3242187,214.891503 81.3242187,214.891503 C81.3242187,214.891503 93.0359375,276.711958 114.2625,290.351332 C135.485352,303.994416 163.755273,297.85169 177.400391,276.637771 C177.593359,276.341021 177.764062,276.036851 177.949609,275.736392 C163.484375,284.520194 144.684766,284.894841 129.492187,275.128055 Z" id="Path" fill="#AED835"></path>
        <path d="M231.773046,263.977671 C252.442969,249.511107 314.11875,262.089599 314.11875,262.089599 C314.11875,262.089599 304.863671,324.325504 284.19375,338.795778 C263.523829,353.266053 235.034961,348.247268 220.558594,327.586046 C206.085937,306.924823 211.106836,278.447946 231.773046,263.977671 Z" id="Path" fill="#BFE15C"></path>
        <path d="M298.655273,259.541259 C294.417383,279.022899 285.681836,310.300354 271.799219,320.018919 C253.953321,332.512097 230.277539,330.464521 214.828906,316.372603 C216.183398,320.267447 218.075977,324.043592 220.558594,327.586046 C235.034961,348.247268 263.527539,353.262343 284.19375,338.795778 C304.863671,324.325504 314.11875,262.089599 314.11875,262.089599 C314.11875,262.089599 307.854687,260.813574 298.655273,259.541259 Z" id="Path" fill="#AED835"></path>
        <path d="M222.740625,86.0092461 C222.740625,98.6211233 212.513281,108.844163 199.896094,108.844163 C187.278906,108.844163 177.051562,98.6211233 177.051562,86.0092461 C177.051562,73.3973689 187.278906,63.1743296 199.896094,63.1743296 C212.513281,63.1743296 222.740625,73.3973689 222.740625,86.0092461 Z" id="Path" fill="#FFF7D5"></path>
        <path d="M199.896094,40.339413 C174.661719,40.339413 154.207031,60.7854916 154.207031,86.0092461 L245.585156,86.0092461 C245.585156,60.7854916 225.130469,40.339413 199.896094,40.339413 Z" id="Path" fill="#FFE24E"></path>
        <path d="M211.318359,41.7786508 C207.666796,40.840179 203.840821,40.339413 199.896094,40.339413 C174.661719,40.339413 154.207031,60.7854916 154.207031,86.0092461 L177.051562,86.0092461 C177.051562,64.7285582 191.613281,46.8493675 211.318359,41.7786508 Z" id="Path" fill="#FFD600"></path>
        <path d="M382.652344,265.042262 C378.711329,265.042262 375.516211,268.236035 375.516211,272.179101 L375.516211,382.863161 C375.516211,386.806228 378.711329,390 382.652344,390 C386.597071,390 389.792188,386.806228 389.792188,382.863161 L389.792188,272.179101 C389.792188,268.236035 386.597071,265.042262 382.652344,265.042262 Z" id="Path" fill="#212121"></path>
        <path d="M199.896094,10.3676577 C95.1882812,10.3676577 10,95.5200853 10,200.183829 L10,382.863161 C10,386.806228 13.1951169,390 17.1398437,390 C21.0845705,390 24.2796875,386.806228 24.2796875,382.863161 L24.2796875,200.183829 C24.2796875,105.780218 99.2183589,28.5547268 192.75625,24.7971285 L192.75625,33.6996301 C166.994921,37.1938625 147.067187,59.3128697 147.067187,86.0092461 C147.067187,89.9523127 150.262304,93.1460849 154.207031,93.1460849 L170.776367,93.1460849 C173.990039,106.236471 185.824219,115.981001 199.896094,115.981001 C213.967969,115.981001 225.802148,106.236471 229.015821,93.1460849 L245.585156,93.1460849 C249.529883,93.1460849 252.725,89.9523127 252.725,86.0092461 C252.725,59.3128697 232.797266,37.1938625 207.035937,33.6996301 L207.035937,24.7971285 C300.573829,28.5547268 375.516211,105.780218 375.516211,200.183829 L375.516211,238.242023 C375.516211,242.18509 378.711329,245.378862 382.652344,245.378862 C386.597071,245.378862 389.792187,242.18509 389.792187,238.242023 L389.792187,200.183829 C389.792187,95.5200853 304.603906,10.3676577 199.896094,10.3676577 Z M199.896094,101.707324 C193.806446,101.707324 188.529492,98.2205108 185.924414,93.1460849 L213.867773,93.1460849 C211.262696,98.2205108 205.985742,101.707324 199.896094,101.707324 Z M237.784766,78.8724073 L162.011133,78.8724073 C165.365821,61.0228917 181.077929,47.4762518 199.896094,47.4762518 C218.714258,47.4762518 234.426367,61.0228917 237.784766,78.8724073 Z" id="Shape" fill="#212121" fill-rule="nonzero"></path>
        <path d="M315.547461,255.097426 C308.927148,253.747213 250.208984,242.359431 227.676171,258.135405 C209.021289,271.196116 201.399023,294.220211 206.950586,315.040937 C204.263867,317.559603 201.736719,320.211806 199.421094,323.001256 L199.421094,321.97005 C199.421094,305.993769 194.552344,291.022729 185.141406,277.579952 C198.563867,253.465301 191.082617,222.651517 167.540429,207.520974 C144.399023,192.650087 86.1818357,206.348811 79.6208982,207.95868 C75.9359375,208.863768 73.6054688,212.491537 74.3105464,216.215751 C75.5685544,222.851824 87.2617188,281.485924 110.399414,296.356812 C119.220313,302.024738 129.10625,304.732582 138.888281,304.732582 C152.503711,304.728872 165.896484,299.45785 175.916016,289.65397 C181.519531,298.823546 185.141406,309.551061 185.141406,321.97005 L185.141406,382.863161 C185.141406,386.806228 188.336523,390 192.28125,390 C196.222266,390 199.417383,386.806228 199.417383,382.863161 L199.417383,360.028245 C199.417383,348.124858 204.86875,337.831341 213.014258,329.088343 C213.556054,329.963755 214.112696,330.82804 214.710156,331.681196 C224.974609,346.33323 241.388086,354.17485 258.057617,354.17485 C268.51875,354.17485 279.083789,351.08494 288.286914,344.641754 C310.819727,328.86578 320.186133,269.819938 321.180664,263.139353 C321.737304,259.385464 319.262109,255.854139 315.547461,255.097426 Z M118.125586,284.349563 C118.121875,284.349563 118.121875,284.349563 118.125586,284.349563 C105.823829,276.444883 94.8839839,243.349833 89.7369143,220.292354 C112.848633,215.399687 147.501367,211.608706 159.821679,219.524513 C175.363086,229.513862 181.311719,248.873093 175.051367,265.502225 C170.171484,260.527952 164.586523,255.824464 158.300196,251.425144 C138.550586,237.60401 119.008789,231.654172 118.184961,231.405644 C114.410937,230.274284 110.436523,232.414594 109.300977,236.187029 C108.165429,239.955755 110.302929,243.935915 114.076954,245.074693 C114.551954,245.219358 146.343554,255.108554 167.239844,278.128939 C154.782227,291.571717 134.064062,294.594858 118.125586,284.349563 Z M280.100586,332.949802 C262.688867,345.13881 238.601171,340.895285 226.407031,323.494604 C225.468164,322.15181 224.640625,320.768213 223.894727,319.35865 C249.066016,300.207143 284.713281,291.007892 285.392383,290.837261 C289.218359,289.880241 291.541406,286.003944 290.587696,282.183288 C289.630273,278.358921 285.748633,276.036851 281.930079,276.990162 C279.603321,277.572533 246.472071,286.08926 219.608594,304.866119 C218.428516,291.571717 224.169336,278.013948 235.869921,269.823647 C241.759179,265.702531 253.159179,264.189106 266.002734,264.189106 C279.276758,264.189106 294.087109,265.806394 305.928711,267.820585 C301.698242,291.063532 292.075781,324.562904 280.100586,332.949802 Z" id="Shape" fill="#212121" fill-rule="nonzero"></path>
        <path d="M207.035937,146.902357 L207.035937,131.679079 C207.035937,127.736013 203.840821,124.54224 199.896094,124.54224 C195.951367,124.54224 192.75625,127.736013 192.75625,131.679079 L192.75625,146.902357 C192.75625,150.845423 195.951367,154.039196 199.896094,154.039196 C203.840821,154.039196 207.035937,150.845423 207.035937,146.902357 Z" id="Path" fill="#212121"></path>
        <path d="M245.585156,146.427557 C247.410937,146.427557 249.240429,145.730194 250.635742,144.335469 C253.422656,141.549728 253.422656,137.031709 250.635742,134.245967 L235.406054,119.022689 C232.615429,116.236948 228.095508,116.236948 225.308594,119.022689 C222.521679,121.808431 222.521679,126.32645 225.308594,129.112191 L240.538281,144.335469 C241.929883,145.730194 243.759375,146.427557 245.585156,146.427557 Z" id="Path" fill="#212121"></path>
        <path d="M159.257617,144.335469 L174.487304,129.112191 C177.274219,126.32645 177.274219,121.808431 174.487304,119.022689 C171.696679,116.236948 167.176758,116.236948 164.389844,119.022689 L149.160156,134.245967 C146.373242,137.031709 146.373242,141.549728 149.160156,144.335469 C151.909961,147.084116 156.504102,147.084116 159.257617,144.335469 Z" id="Path" fill="#212121"></path>
    </g>
</svg>