<?xml version="1.0" encoding="UTF-8"?>
<svg width="400px" height="400px" viewBox="0 0 400 400" version="1.1" xmlns="http://www.w3.org/2000/svg" xmlns:xlink="http://www.w3.org/1999/xlink">
    <!-- Generator: Sketch 52.5 (67469) - http://www.bohemiancoding.com/sketch -->
    <title>why-edu</title>
    <desc>Created with Sketch.</desc>
    <g id="why-edu" stroke="none" stroke-width="1" fill="none" fill-rule="evenodd">
        <path d="M274.860717,122.661743 C274.860717,132.518921 266.869057,140.509033 257.009969,140.509033 C247.150882,140.509033 239.159222,132.518921 239.159222,122.661743 C239.159222,112.804565 247.150882,104.814453 257.009969,104.814453 C266.869057,104.814453 274.860717,112.804565 274.860717,122.661743 Z" id="Path" fill="#FEE3C9"></path>
        <path d="M120.154237,122.661743 C120.154237,132.518921 112.162577,140.509033 102.303489,140.509033 C92.4444018,140.509033 84.4527416,132.518921 84.4527416,122.661743 C84.4527416,112.804565 92.4444018,104.814453 102.303489,104.814453 C112.162577,104.814453 120.154237,112.804565 120.154237,122.661743 Z" id="Path" fill="#FEDAB7"></path>
        <path d="M108.253738,86.9671631 L108.253738,134.559937 C108.253738,173.985748 140.223279,205.949097 179.656729,205.949097 C219.090179,205.949097 251.05972,173.985748 251.05972,134.559937 L251.05972,86.9671631 L108.253738,86.9671631 Z" id="Path" fill="#FFF3E7"></path>
        <path d="M132.054735,134.559937 L132.054735,86.9671631 L108.253738,86.9671631 L108.253738,134.559937 C108.253738,173.985748 140.223279,205.949097 179.656729,205.949097 C183.710554,205.949097 187.686086,205.606995 191.557228,204.957581 C157.786954,199.292603 132.054735,169.932709 132.054735,134.559937 Z" id="Path" fill="#FEE3C9"></path>
        <path d="M197.507477,164.30542 L161.805982,164.30542 C161.805982,174.162598 169.797642,182.15271 179.656729,182.15271 C189.515817,182.15271 197.507477,174.162598 197.507477,164.30542 Z" id="Path" fill="#FDC5C4"></path>
        <path d="M251.05972,86.9671631 L108.253738,86.9671631 L108.253738,39.3743896 C108.253738,26.2324526 118.910252,15.5780029 132.054735,15.5780029 L227.258723,15.5780029 C240.403206,15.5780029 251.05972,26.2324526 251.05972,39.3743896 L251.05972,86.9671631 Z" id="Path" fill="#998273"></path>
        <path d="M155.855732,15.5780029 L132.054735,15.5780029 C118.910252,15.5780029 108.253738,26.2324526 108.253738,39.3743896 L108.253738,86.9671631 L132.054735,86.9671631 L132.054735,39.3743896 C132.054735,26.2324526 142.711249,15.5780029 155.855732,15.5780029 Z" id="Path" fill="#775846"></path>
        <path d="M286.761215,86.9671631 C227.258723,116.712646 132.054735,116.712646 72.5522431,86.9671631 L286.761215,86.9671631 Z" id="Path" fill="#FFF7D5"></path>
        <polygon id="Path" fill="#FEEDDB" points="149.905483 217.84729 209.407975 217.84729 209.407975 289.23645 149.905483 289.23645"></polygon>
        <path d="M375.797474,355.639038 L364.114456,301.134644 L334.363209,301.134644 L293.613281,229.838257 C289.376773,222.42508 281.489503,217.84729 272.949794,217.84729 L209.407975,217.84729 L179.656729,253.54187 L149.905483,217.84729 L96.35324,217.84729 C83.2058573,217.84729 72.5522431,228.50174 72.5522431,241.643677 L72.5522431,384.421997 L274.860717,384.421997 L274.860717,313.032837 L322.462711,384.421997 L352.524229,384.421997 C367.678225,384.421997 378.97268,370.453796 375.797474,355.639038 Z" id="Path" fill="#BFE15C"></path>
        <polygon id="Path" fill="#09A562" points="251.05972 336.829224 251.05972 217.84729 227.258723 217.84729 227.258723 336.829224 132.054735 336.829224 132.054735 217.84729 108.253738 217.84729 108.253738 336.829224 72.5522431 354.676514 72.5522431 384.421997 274.860717 384.421997 274.860717 360.62561"></polygon>
        <path d="M126.104486,384.421997 L30.9004985,384.421997 C27.6151028,384.421997 24.9502492,381.75766 24.9502492,378.4729 L24.9502492,253.54187 C24.9502492,250.257111 27.6151028,247.592773 30.9004985,247.592773 L126.104486,247.592773 C129.389882,247.592773 132.054735,250.257111 132.054735,253.54187 L132.054735,378.4729 C132.054735,381.75766 129.389882,384.421997 126.104486,384.421997 Z" id="Path" fill="#F9FAFC"></path>
        <path d="M24.9502492,360.62561 L24.9502492,378.4729 C24.9502492,381.75766 27.6151028,384.421997 30.9004985,384.421997 L126.104486,384.421997 C129.389882,384.421997 132.054735,381.75766 132.054735,378.4729 L132.054735,360.62561 L24.9502492,360.62561 Z" id="Path" fill="#AFAFAF"></path>
        <polygon id="Path" fill="#FFA84E" points="328.41296 200 352.213957 200 352.213957 384.421997 328.41296 384.421997"></polygon>
        <path d="M352.213957,342.77832 L322.462711,342.77832 C319.177315,342.77832 316.512462,340.113983 316.512462,336.829224 L316.512462,289.23645 C316.512462,285.951691 319.177315,283.287354 322.462711,283.287354 L352.213957,283.287354 C358.787649,283.287354 364.114456,288.613128 364.114456,295.185547 L364.114456,330.880127 C364.114456,337.452545 358.787649,342.77832 352.213957,342.77832 Z" id="Path" fill="#FFF3E7"></path>
        <path d="M334.363209,336.829224 L334.363209,289.23645 C334.363209,285.951691 337.028063,283.287354 340.313459,283.287354 L322.462711,283.287354 C319.177315,283.287354 316.512462,285.951691 316.512462,289.23645 L316.512462,336.829224 C316.512462,340.113983 319.177315,342.77832 322.462711,342.77832 L340.313459,342.77832 C337.028063,342.77832 334.363209,340.113983 334.363209,336.829224 Z" id="Path" fill="#FEE3C9"></path>
        <path d="M149.905483,122.661743 C149.905483,125.740661 147.408814,128.239746 144.3264,128.239746 C141.246885,128.239746 138.747316,125.740661 138.747316,122.661743 C138.747316,119.579925 141.246885,117.08374 144.3264,117.08374 C147.408814,117.08374 149.905483,119.579925 149.905483,122.661743 Z" id="Path" fill="#212121"></path>
        <path d="M220.566143,122.661743 C220.566143,125.740661 218.066574,128.239746 214.987059,128.239746 C211.904644,128.239746 209.407975,125.740661 209.407975,122.661743 C209.407975,119.579925 211.904644,117.08374 214.987059,117.08374 C218.066574,117.08374 220.566143,119.579925 220.566143,122.661743 Z" id="Path" fill="#212121"></path>
        <path d="M197.507477,158.727417 L161.805982,158.727417 C158.726466,158.727417 156.226898,161.226501 156.226898,164.30542 C156.226898,177.221222 166.738425,187.730713 179.656729,187.730713 C192.575034,187.730713 203.086561,177.221222 203.086561,164.30542 C203.086561,161.226501 200.586992,158.727417 197.507477,158.727417 Z M179.656729,176.574707 C174.89827,176.574707 170.760353,173.852386 168.727641,169.883423 L190.585817,169.883423 C188.550206,173.852386 184.415189,176.574707 179.656729,176.574707 Z" id="Shape" fill="#212121" fill-rule="nonzero"></path>
        <path d="M165.993194,145.800018 L183.843942,151.749115 C186.729175,152.711639 189.936278,151.105499 190.898989,148.220825 C191.873298,145.298462 190.292945,142.141266 187.370015,141.167145 L176.446726,137.525788 L184.2963,125.755158 C186.007141,123.192291 185.314106,119.727783 182.750743,118.020172 C180.18738,116.312561 176.722201,117.002563 175.014259,119.568329 L163.113761,137.415619 C161.104247,140.427856 162.562811,144.657746 165.993194,145.800018 Z" id="Path" fill="#212121"></path>
        <path d="M70.0584739,91.9537354 C77.0787239,95.4646303 84.6383244,98.5957338 92.6270851,101.335449 C84.5223351,105.026092 78.873658,113.193054 78.873658,122.661743 C78.873658,135.577545 89.3851848,146.087036 102.303489,146.087036 C102.712351,146.087036 103.124113,146.07254 103.532975,146.052246 C109.097561,183.06015 141.113497,211.5271 179.656729,211.5271 C218.199962,211.5271 250.215898,183.06015 255.780483,146.049347 C256.189345,146.07254 256.601107,146.087036 257.009969,146.087036 C269.928274,146.087036 280.439801,135.577545 280.439801,122.661743 C280.439801,113.195954 274.791123,105.026092 266.686373,101.335449 C274.675134,98.5957338 282.234735,95.4646303 289.254985,91.9537354 C291.577669,90.7940674 292.807156,88.097839 292.163416,85.5842592 C291.539973,83.1460575 289.281082,81.3891602 286.761215,81.3891602 L256.638804,81.3891602 L256.638804,39.3743896 C256.638804,23.1767271 243.459524,10 227.258723,10 L132.054735,10 C115.853935,10 102.674655,23.1767271 102.674655,39.3743896 L102.674655,81.3891602 L72.5522431,81.3891602 C69.962783,81.3891602 67.7183903,83.1692509 67.1239456,85.6857296 C66.5295008,88.2022098 67.7444877,90.7998661 70.0584739,91.9537354 Z M102.303489,134.93103 C95.5355153,134.93103 90.0318252,129.428405 90.0318252,122.661743 C90.0318252,115.895081 95.5355153,110.392456 102.303489,110.392456 C102.428178,110.392456 102.549966,110.406952 102.674655,110.409851 L102.674655,134.559937 C102.674655,134.675903 102.677554,134.79187 102.680454,134.910736 C102.552867,134.913636 102.428178,134.93103 102.303489,134.93103 Z M179.656729,200.371094 C143.360789,200.371094 113.832822,170.848846 113.832822,134.559937 L113.832822,107.449798 C134.235334,112.297211 156.598064,114.854279 179.656729,114.854279 C202.715395,114.854279 225.078125,112.297211 245.480637,107.449798 L245.480637,134.559937 C245.480637,170.848846 215.952669,200.371094 179.656729,200.371094 Z M257.009969,134.93103 C256.885281,134.93103 256.760592,134.919434 256.633005,134.916535 C256.635904,134.797669 256.638804,134.678802 256.638804,134.559937 L256.638804,110.409851 C256.763492,110.406952 256.885281,110.392456 257.009969,110.392456 C263.777943,110.392456 269.281633,115.895081 269.281633,122.661743 C269.281633,129.428405 263.777943,134.93103 257.009969,134.93103 Z M113.832822,39.3743896 C113.832822,29.3287661 122.007166,21.1560059 132.054735,21.1560059 L227.258723,21.1560059 C237.306293,21.1560059 245.480637,29.3287661 245.480637,39.3743896 L245.480637,81.3891602 L113.832822,81.3891602 L113.832822,39.3743896 Z M257.627612,92.545166 C210.054616,107.293244 149.258843,107.293244 101.682946,92.545166 L257.627612,92.545166 Z" id="Shape" fill="#212121" fill-rule="nonzero"></path>
        <path d="M381.25187,354.470672 L369.693539,300.543213 L369.693539,295.185547 C369.693539,287.499847 364.703101,280.96222 357.793041,278.628387 L357.793041,205.578003 L364.114456,205.578003 C373.753163,205.578003 381.594038,197.738647 381.594038,188.101807 L381.594038,104.069367 C381.594038,100.990448 379.094469,98.4942627 376.014954,98.4942627 C372.935439,98.4942627 370.43587,100.990448 370.43587,104.069367 L370.43587,188.101807 C370.43587,191.586609 367.599933,194.421997 364.114456,194.421997 L357.793041,194.421997 L357.793041,104.814453 C357.793041,101.732635 355.293472,99.2364502 352.213957,99.2364502 C349.134442,99.2364502 346.634873,101.732635 346.634873,104.814453 L346.634873,194.421997 L333.971745,194.421997 C333.980445,194.300232 333.992044,194.175568 333.992044,194.050903 L333.992044,104.814453 C333.992044,101.732635 331.492475,99.2364502 328.41296,99.2364502 C325.330545,99.2364502 322.833877,101.732635 322.833877,104.814453 L322.833877,194.050903 C322.833877,194.175568 322.845475,194.300232 322.854175,194.421997 L316.512462,194.421997 C313.026985,194.421997 310.191047,191.586609 310.191047,188.101807 L310.191047,104.814453 C310.191047,101.732635 307.691479,99.2364502 304.611963,99.2364502 C301.529548,99.2364502 299.03288,101.732635 299.03288,104.814453 L299.03288,188.101807 C299.03288,197.738647 306.873754,205.578003 316.512462,205.578003 L322.833877,205.578003 L322.833877,269.722137 L298.455833,227.069549 C293.239216,217.940063 283.46712,212.269287 272.949794,212.269287 L96.35324,212.269287 C80.1524394,212.269287 66.9731595,225.446014 66.9731595,241.643677 L66.9731595,242.014771 L30.9004985,242.014771 C24.5413873,242.014771 19.3711656,247.18689 19.3711656,253.54187 L19.3711656,378.4729 C19.3711656,384.83078 24.5413873,390 30.9004985,390 L126.104486,390 C132.460698,390 137.633819,384.83078 137.633819,378.4729 L137.633819,342.407227 L227.258723,342.407227 C230.338238,342.407227 232.837807,339.911041 232.837807,336.829224 L232.837807,274.117279 C232.837807,271.035462 230.338238,268.539276 227.258723,268.539276 C224.179209,268.539276 221.67964,271.035462 221.67964,274.117279 L221.67964,331.251221 L137.633819,331.251221 L137.633819,223.425293 L147.292825,223.425293 L175.370926,257.113647 C177.566023,259.746094 181.744536,259.746094 183.942532,257.113647 L212.020633,223.425293 L221.67964,223.425293 L221.67964,248.088532 C221.67964,251.170349 224.179209,253.666535 227.258723,253.666535 C230.338238,253.666535 232.837807,251.170349 232.837807,248.088532 L232.837807,223.425293 L245.480637,223.425293 L245.480637,336.829224 C245.480637,338.3078 246.069282,339.728394 247.116085,340.772095 L269.281633,362.936249 L269.281633,384.421997 C269.281633,387.503815 271.781202,390 274.860717,390 C277.943132,390 280.439801,387.503815 280.439801,384.421997 L280.439801,331.454163 L317.82314,387.515412 C318.855445,389.066468 320.598183,390 322.462711,390 L352.524229,390 C361.440903,390 369.766032,386.025238 375.371213,379.093323 C380.976395,372.161408 383.119296,363.188477 381.25187,354.470672 Z M78.1313267,241.643677 C78.1313267,231.598053 86.3056702,223.425293 96.35324,223.425293 L102.674655,223.425293 L102.674655,242.014771 L78.1313267,242.014771 L78.1313267,241.643677 Z M30.9004985,253.170776 L126.104486,253.170776 C126.310367,253.170776 126.475652,253.336029 126.475652,253.54187 L126.475652,355.047607 L30.5293328,355.047607 L30.5293328,253.54187 C30.5293328,253.336029 30.6946173,253.170776 30.9004985,253.170776 Z M126.475652,378.4729 C126.475652,378.678742 126.310367,378.843994 126.104486,378.843994 L30.9004985,378.843994 C30.6946173,378.843994 30.5293328,378.678742 30.5293328,378.4729 L30.5293328,366.203613 L126.475652,366.203613 L126.475652,378.4729 Z M126.475652,242.035065 C126.350963,242.029266 126.229175,242.014771 126.104486,242.014771 L113.832822,242.014771 L113.832822,223.425293 L126.475652,223.425293 L126.475652,242.035065 Z M179.656729,244.829865 L161.814681,223.425293 L197.498778,223.425293 L179.656729,244.829865 Z M358.535372,330.880127 C358.535372,334.364929 355.699434,337.200317 352.213957,337.200317 L322.462711,337.200317 C322.25683,337.200317 322.091545,337.035065 322.091545,336.829224 L322.091545,330.509033 L334.363209,330.509033 C337.445624,330.509033 339.942293,328.012848 339.942293,324.93103 C339.942293,321.852112 337.445624,319.353027 334.363209,319.353027 L322.091545,319.353027 L322.091545,306.712646 L334.363209,306.712646 C337.445624,306.712646 339.942293,304.216461 339.942293,301.134644 C339.942293,298.055725 337.445624,295.556641 334.363209,295.556641 L322.091545,295.556641 L322.091545,289.23645 C322.091545,289.030609 322.25683,288.865356 322.462711,288.865356 L352.213957,288.865356 C355.699434,288.865356 358.535372,291.700745 358.535372,295.185547 L358.535372,330.880127 Z M333.992044,348.356323 L346.634873,348.356323 L346.634873,378.843994 L333.992044,378.843994 L333.992044,348.356323 Z M346.634873,205.578003 L346.634873,277.709351 L333.992044,277.709351 L333.992044,205.578003 L346.634873,205.578003 Z M280.439801,311.34552 L280.439801,283.287354 C280.439801,280.208435 277.943132,277.709351 274.860717,277.709351 C271.781202,277.709351 269.281633,280.208435 269.281633,283.287354 L269.281633,347.161865 L256.638804,334.518585 L256.638804,223.425293 L272.949794,223.425293 C279.47129,223.425293 285.534629,226.941986 288.770729,232.604065 L315.781729,279.863434 C312.853,281.953735 310.936278,285.371857 310.936278,289.23645 L310.936278,336.829224 C310.936278,343.184204 316.106499,348.356323 322.462711,348.356323 L322.836776,348.356323 L322.836776,374.924316 L280.439801,311.34552 Z M366.695216,372.080231 C364.358033,374.970703 361.255321,377.029114 357.793041,378.069916 L357.793041,347.437287 C361.530794,346.176147 364.706001,343.682861 366.834403,340.441589 L370.343079,356.807404 C371.500072,362.214355 370.171995,367.780762 366.695216,372.080231 Z" id="Shape" fill="#212121" fill-rule="nonzero"></path>
        <path d="M42.8009969,336.45813 L114.203988,336.45813 C117.283503,336.45813 119.783071,333.961945 119.783071,330.880127 C119.783071,327.801208 117.283503,325.302124 114.203988,325.302124 L113.832822,325.302124 L113.832822,277.338257 C113.832822,274.259339 111.333253,271.760254 108.253738,271.760254 C105.171324,271.760254 102.674655,274.259339 102.674655,277.338257 L102.674655,325.302124 L90.0318252,325.302124 L90.0318252,295.185547 C90.0318252,292.106628 87.5322561,289.607544 84.4527416,289.607544 C81.3703267,289.607544 78.873658,292.106628 78.873658,295.185547 L78.873658,325.302124 L66.2308282,325.302124 L66.2308282,313.032837 C66.2308282,309.953919 63.7312592,307.454834 60.6517446,307.454834 C57.5693298,307.454834 55.072661,309.953919 55.072661,313.032837 L55.072661,325.302124 L48.3800805,325.302124 L48.3800805,289.23645 C48.3800805,286.157532 45.8805123,283.658447 42.8009969,283.658447 C39.7185821,283.658447 37.2219133,286.157532 37.2219133,289.23645 L37.2219133,330.880127 C37.2219133,333.961945 39.7185821,336.45813 42.8009969,336.45813 Z" id="Path" fill="#203298"></path>
    </g>
</svg>