<?xml version="1.0" encoding="UTF-8"?>
<svg width="400px" height="400px" viewBox="0 0 400 400" version="1.1" xmlns="http://www.w3.org/2000/svg" xmlns:xlink="http://www.w3.org/1999/xlink">
    <!-- Generator: Sketch 52.5 (67469) - http://www.bohemiancoding.com/sketch -->
    <title>why-scale</title>
    <desc>Created with Sketch.</desc>
    <g id="why-scale" stroke="none" stroke-width="1" fill="none" fill-rule="evenodd">
        <polygon id="Path" fill="#9B8F94" points="164.30542 295.185547 235.69458 295.185547 235.69458 384.421997 164.30542 384.421997"></polygon>
        <polygon id="Path" fill="#8D7F85" points="164.30542 295.185547 235.69458 295.185547 235.69458 330.880127 164.30542 330.880127"></polygon>
        <path d="M372.523804,307.08374 L27.4761963,307.08374 C20.9037779,307.08374 15.5780029,301.757965 15.5780029,295.185547 L15.5780029,27.4761963 C15.5780029,20.9037779 20.9037779,15.5780029 27.4761963,15.5780029 L372.523804,15.5780029 C379.096222,15.5780029 384.421997,20.9037779 384.421997,27.4761963 L384.421997,295.185547 C384.421997,301.757965 379.096222,307.08374 372.523804,307.08374 Z" id="Path" fill="#9B8F94"></path>
        <path d="M39.3743896,295.185547 L39.3743896,27.4761963 C39.3743896,20.9037779 44.7001646,15.5780029 51.272583,15.5780029 L27.4761963,15.5780029 C20.9037779,15.5780029 15.5780029,20.9037779 15.5780029,27.4761963 L15.5780029,295.185547 C15.5780029,301.757965 20.9037779,307.08374 27.4761963,307.08374 L51.272583,307.08374 C44.7001646,307.08374 39.3743896,301.757965 39.3743896,295.185547 Z" id="Path" fill="#8D7F85"></path>
        <polygon id="Path" fill="#F1EFF0" points="15.5780029 51.272583 384.421997 51.272583 384.421997 271.38916 15.5780029 271.38916"></polygon>
        <polygon id="Path" fill="#EAE7E8" points="15.5780029 51.272583 39.3743896 51.272583 39.3743896 271.38916 15.5780029 271.38916"></polygon>
        <path d="M133.098755,199.083862 C116.515503,188.423615 107.365723,140.103149 107.365723,140.103149 C107.365723,140.103149 155.126648,128.376007 171.707001,139.036255 C188.290253,149.699401 193.088379,171.782379 182.428131,188.365631 C171.764984,204.945984 149.679108,209.747009 133.098755,199.083862 Z" id="Path" fill="#BFE15C"></path>
        <path d="M142.44278,182.428131 C131.666565,175.496216 124.030151,152.659455 120.003205,137.519989 C112.50885,138.84201 107.365723,140.103149 107.365723,140.103149 C107.365723,140.103149 116.515503,188.423615 133.098755,199.083862 C149.679108,209.747009 171.764984,204.945984 182.425232,188.365631 C184.622803,184.950409 186.150665,181.300354 187.066803,177.563324 C175.458527,189.270172 156.869049,191.702575 142.44278,182.428131 Z" id="Path" fill="#AED835"></path>
        <path d="M224.90387,178.470765 C241.052246,167.161102 289.23645,176.995086 289.23645,176.995086 C289.23645,176.995086 282.005921,225.63736 265.857544,236.947021 C249.709167,248.256683 227.45224,244.334106 216.142578,228.18573 C204.835815,212.037354 208.758392,189.780426 224.90387,178.470765 Z" id="Path" fill="#BFE15C"></path>
        <path d="M281.811676,175.69046 C278.158722,190.734253 271.713867,210.61966 262.123413,217.337036 C245.975036,228.643799 223.718109,224.721222 212.408447,208.575745 C211.445923,207.198639 210.599365,205.775146 209.857178,204.319763 C209.074401,212.478027 211.074829,220.946502 216.142578,228.18573 C227.45224,244.334106 249.709167,248.253784 265.857544,236.944123 C282.005921,225.63736 289.23645,176.992188 289.23645,176.992188 C289.23645,176.992188 286.37207,176.409455 281.811676,175.69046 Z" id="Path" fill="#AED835"></path>
        <path d="M372.523804,10 L27.4761963,10 C17.8393555,10 10,17.8393555 10,27.4761963 L10,295.185547 C10,304.822388 17.8393555,312.661743 27.4761963,312.661743 L158.727417,312.661743 L158.727417,378.843994 L147.200317,378.843994 C144.121399,378.843994 141.625213,381.343079 141.625213,384.421997 C141.625213,387.503815 144.121399,390 147.200317,390 L253.54187,390 C256.620788,390 259.119873,387.503815 259.119873,384.421997 C259.119873,381.343079 256.620788,378.843994 253.54187,378.843994 L241.272583,378.843994 L241.272583,312.661743 L372.523804,312.661743 C382.160645,312.661743 390,304.822388 390,295.185547 L390,27.4761963 C390,17.8393555 382.160645,10 372.523804,10 Z M27.4761963,21.1560059 L372.523804,21.1560059 C376.008606,21.1560059 378.843994,23.9913937 378.843994,27.4761963 L378.843994,45.6945801 L343.149414,45.6945801 C340.070495,45.6945801 337.57431,48.1907652 337.57431,51.272583 C337.57431,54.3515011 340.070495,56.8505859 343.149414,56.8505859 L378.843994,56.8505859 L378.843994,265.811157 L199.628906,265.811157 L199.628906,253.54187 C199.628906,244.235534 203.884888,236.193237 210.251465,229.359894 C210.671844,230.041198 211.109619,230.719604 211.576385,231.386413 C219.59549,242.835236 232.418518,248.96698 245.43869,248.96698 C253.614349,248.96698 261.868286,246.549072 269.058228,241.513214 C286.661987,229.185944 293.976593,183.034058 294.753571,177.815552 C295.188446,174.881592 293.257599,172.121582 290.35263,171.530151 C285.180511,170.474854 239.309845,161.574401 221.706085,173.904572 C207.129059,184.112549 201.174164,202.107697 205.511322,218.380737 C203.412323,220.349274 201.437988,222.422181 199.628906,224.602356 L199.628906,223.796387 C199.628906,211.309662 195.825195,199.608612 188.4729,189.10202 C198.959198,170.251618 193.11737,146.171112 174.725036,134.345398 C156.645813,122.722626 111.163636,133.429261 106.037903,134.6875 C103.159027,135.394897 101.335449,138.227386 101.886292,141.141052 C102.86911,146.327667 112.004395,192.151947 130.083618,203.77472 C136.821289,208.108978 144.495392,210.347137 152.320251,210.347137 C155.262909,210.347137 158.225861,210.031128 161.168518,209.390412 C168.877411,207.714691 175.783234,203.951569 181.277161,198.553314 C185.649109,205.717163 188.4729,214.095765 188.4729,223.796387 L188.4729,265.811157 L21.1560059,265.811157 L21.1560059,56.8505859 L316.007386,56.8505859 C319.089203,56.8505859 321.585388,54.3515011 321.585388,51.272583 C321.585388,48.1907652 319.089203,45.6945801 316.007386,45.6945801 L21.1560059,45.6945801 L21.1560059,27.4761963 C21.1560059,23.9913937 23.9913937,21.1560059 27.4761963,21.1560059 Z M228.104554,183.039856 C232.705536,179.815979 241.614685,178.636017 251.645813,178.636017 C262.016144,178.636017 273.586731,179.900055 282.837982,181.474304 C279.532928,199.640503 272.015381,225.825806 262.659759,232.37793 C249.056854,241.904602 230.238343,238.587952 220.71167,224.985046 C219.97818,223.938446 219.328766,222.857056 218.748932,221.755371 C238.414001,206.784058 266.260529,199.597015 266.793976,199.460755 C269.78302,198.715668 271.5979,195.686035 270.849915,192.696991 C270.104828,189.710846 267.075195,187.890167 264.08905,188.641052 C262.271271,189.093323 236.384583,195.749817 215.400391,210.425415 C214.478454,200.037689 218.96347,189.441224 228.104554,183.039856 Z M167.503205,168.659974 C152.073822,157.857666 136.803894,153.207397 136.163177,153.013153 C133.214722,152.128906 130.109711,153.801727 129.222565,156.747284 C128.335419,159.695739 130.00534,162.806549 132.950897,163.696595 C133.32489,163.809662 158.162079,171.538849 174.487305,189.533997 C170.329895,194.036408 164.911346,197.161712 158.796997,198.489533 C150.937347,200.197144 142.880554,198.74466 136.113892,194.393005 C126.503143,188.211975 117.95929,162.34848 113.935241,144.32724 C131.999969,140.509033 159.081116,137.548981 168.691864,143.727112 C180.833587,151.534577 185.480957,166.662445 180.590057,179.662323 C176.777649,175.774536 172.414398,172.098389 167.503205,168.659974 Z M230.116577,378.843994 L169.883423,378.843994 L169.883423,312.661743 L230.116577,312.661743 L230.116577,378.843994 Z M372.523804,301.505737 L27.4761963,301.505737 C23.9913937,301.505737 21.1560059,298.670349 21.1560059,295.185547 L21.1560059,276.967163 L378.843994,276.967163 L378.843994,295.185547 C378.843994,298.670349 376.008606,301.505737 372.523804,301.505737 Z" id="Shape" fill="#212121" fill-rule="nonzero"></path>
        <path d="M205.578003,33.425293 C205.578003,36.5042118 203.078919,39.0032959 200,39.0032959 C196.921081,39.0032959 194.421997,36.5042118 194.421997,33.425293 C194.421997,30.3434752 196.921081,27.84729 200,27.84729 C203.078919,27.84729 205.578003,30.3434752 205.578003,33.425293 Z" id="Path" fill="#000000"></path>
        <path d="M229.003296,33.425293 C229.003296,36.5042118 226.504212,39.0032959 223.425293,39.0032959 C220.343475,39.0032959 217.84729,36.5042118 217.84729,33.425293 C217.84729,30.3434752 220.343475,27.84729 223.425293,27.84729 C226.504212,27.84729 229.003296,30.3434752 229.003296,33.425293 Z" id="Path" fill="#000000"></path>
        <path d="M182.15271,33.425293 C182.15271,36.5042118 179.656525,39.0032959 176.574707,39.0032959 C173.495788,39.0032959 170.996704,36.5042118 170.996704,33.425293 C170.996704,30.3434752 173.495788,27.84729 176.574707,27.84729 C179.656525,27.84729 182.15271,30.3434752 182.15271,33.425293 Z" id="Path" fill="#000000"></path>
        <path d="M211.898193,283.658447 L188.101807,283.658447 C185.022888,283.658447 182.523804,286.157532 182.523804,289.23645 C182.523804,292.318268 185.022888,294.814453 188.101807,294.814453 L211.898193,294.814453 C214.977112,294.814453 217.476196,292.318268 217.476196,289.23645 C217.476196,286.157532 214.977112,283.658447 211.898193,283.658447 Z" id="Path" fill="#212121"></path>
        <path d="M360.62561,134.93103 L276.967163,134.93103 L276.967163,75.0689697 C276.967163,71.9871519 274.470978,69.4909668 271.38916,69.4909668 C268.310241,69.4909668 265.811157,71.9871519 265.811157,75.0689697 L265.811157,140.509033 C265.811157,143.587952 268.310241,146.087036 271.38916,146.087036 L360.62561,146.087036 C363.707428,146.087036 366.203613,143.587952 366.203613,140.509033 C366.203613,137.427215 363.707428,134.93103 360.62561,134.93103 Z" id="Path" fill="#212121"></path>
        <path d="M311.026611,94.9224854 C308.663788,92.5567627 304.628143,92.8466797 302.621918,95.519714 L284.774627,119.316101 C282.927856,121.777497 283.426514,125.273895 285.890808,127.123566 C288.323211,128.947144 291.874694,128.439789 293.698273,126.007386 L307.686768,107.357025 L315.039062,114.706421 C317.488861,117.159118 321.701355,116.738739 323.623504,113.856964 L331.746979,101.668854 L338.835449,108.757324 C341.198273,111.123047 345.233917,110.83313 347.240143,108.160095 L365.087433,84.3637081 C366.934204,81.8994141 366.435547,78.4030148 363.971253,76.5562437 C361.506958,74.7065737 358.013458,75.2081299 356.163788,77.6724247 L342.175293,96.3227846 L334.822998,88.9733887 C332.3732,86.5206905 328.160706,86.9410707 326.238556,89.8228453 L318.115082,102.008057 L311.026611,94.9224854 Z" id="Path" fill="#203298"></path>
        <path d="M39.3743896,80.6469727 L75.0689697,80.6469727 C78.1478878,80.6469727 80.6469727,78.1478878 80.6469727,75.0689697 C80.6469727,71.9871519 78.1478878,69.4909668 75.0689697,69.4909668 L39.3743896,69.4909668 C36.2925718,69.4909668 33.7963867,71.9871519 33.7963867,75.0689697 C33.7963867,78.1478878 36.2925718,80.6469727 39.3743896,80.6469727 Z" id="Path" fill="#212121"></path>
        <path d="M116.712646,69.4909668 L98.8653564,69.4909668 C95.7835386,69.4909668 93.2873535,71.9871519 93.2873535,75.0689697 C93.2873535,78.1478878 95.7835386,80.6469727 98.8653564,80.6469727 L116.712646,80.6469727 C119.791565,80.6469727 122.290649,78.1478878 122.290649,75.0689697 C122.290649,71.9871519 119.791565,69.4909668 116.712646,69.4909668 Z" id="Path" fill="#212121"></path>
        <path d="M116.712646,93.2873535 L39.3743896,93.2873535 C36.2925718,93.2873535 33.7963867,95.7835386 33.7963867,98.8653564 C33.7963867,101.944275 36.2925718,104.443359 39.3743896,104.443359 L116.712646,104.443359 C119.791565,104.443359 122.290649,101.944275 122.290649,98.8653564 C122.290649,95.7835386 119.791565,93.2873535 116.712646,93.2873535 Z" id="Path" fill="#212121"></path>
        <path d="M80.6469727,223.796387 C80.6469727,220.717468 78.1478878,218.218384 75.0689697,218.218384 L39.3743896,218.218384 C36.2925718,218.218384 33.7963867,220.717468 33.7963867,223.796387 C33.7963867,226.875306 36.2925718,229.37439 39.3743896,229.37439 L75.0689697,229.37439 C78.1478878,229.37439 80.6469727,226.875306 80.6469727,223.796387 Z" id="Path" fill="#212121"></path>
        <path d="M93.2873535,223.796387 C93.2873535,226.875306 95.7835386,229.37439 98.8653564,229.37439 L110.76355,229.37439 C113.842468,229.37439 116.341553,226.875306 116.341553,223.796387 C116.341553,220.717468 113.842468,218.218384 110.76355,218.218384 L98.8653564,218.218384 C95.7835386,218.218384 93.2873535,220.717468 93.2873535,223.796387 Z" id="Path" fill="#212121"></path>
        <path d="M57.2216797,242.014771 L39.3743896,242.014771 C36.2925718,242.014771 33.7963867,244.513855 33.7963867,247.592773 C33.7963867,250.671692 36.2925718,253.170776 39.3743896,253.170776 L57.2216797,253.170776 C60.3005985,253.170776 62.7996826,250.671692 62.7996826,247.592773 C62.7996826,244.513855 60.3005985,242.014771 57.2216797,242.014771 Z" id="Path" fill="#212121"></path>
        <path d="M110.76355,242.014771 L81.0180664,242.014771 C77.9362486,242.014771 75.4400635,244.513855 75.4400635,247.592773 C75.4400635,250.671692 77.9362486,253.170776 81.0180664,253.170776 L110.76355,253.170776 C113.842468,253.170776 116.341553,250.671692 116.341553,247.592773 C116.341553,244.513855 113.842468,242.014771 110.76355,242.014771 Z" id="Path" fill="#212121"></path>
        <path d="M39.3743896,205.578003 L92.9162598,205.578003 C95.9951786,205.578003 98.4942627,203.078919 98.4942627,200 C98.4942627,196.921081 95.9951786,194.421997 92.9162598,194.421997 L39.3743896,194.421997 C36.2925718,194.421997 33.7963867,196.921081 33.7963867,200 C33.7963867,203.078919 36.2925718,205.578003 39.3743896,205.578003 Z" id="Path" fill="#212121"></path>
    </g>
</svg>